<?xml version="1.0" encoding="UTF-8" standalone="no"?>
<!-- Created with Inkscape (http://www.inkscape.org/) -->

<svg
   xmlns:dc="http://purl.org/dc/elements/1.1/"
   xmlns:cc="http://creativecommons.org/ns#"
   xmlns:rdf="http://www.w3.org/1999/02/22-rdf-syntax-ns#"
   xmlns:svg="http://www.w3.org/2000/svg"
   xmlns="http://www.w3.org/2000/svg"
   xmlns:sodipodi="http://sodipodi.sourceforge.net/DTD/sodipodi-0.dtd"
   xmlns:inkscape="http://www.inkscape.org/namespaces/inkscape"
   width="140"
   height="75"
   id="svg2"
   version="1.1"
   inkscape:version="0.48.5 r10040"
   sodipodi:docname="mapasculturais_logo-instituicao.svg">
  <defs
     id="defs4" />
  <sodipodi:namedview
     id="base"
     pagecolor="#ffffff"
     bordercolor="#666666"
     borderopacity="1.0"
     inkscape:pageopacity="0.0"
     inkscape:pageshadow="2"
     inkscape:zoom="9.3303771"
     inkscape:cx="72.979809"
     inkscape:cy="37.300903"
     inkscape:document-units="px"
     inkscape:current-layer="layer1"
     showgrid="false"
     inkscape:window-width="1920"
     inkscape:window-height="1014"
     inkscape:window-x="0"
     inkscape:window-y="27"
     inkscape:window-maximized="1" />
  <metadata
     id="metadata7">
    <rdf:RDF>
      <cc:Work
         rdf:about="">
        <dc:format>image/svg+xml</dc:format>
        <dc:type
           rdf:resource="http://purl.org/dc/dcmitype/StillImage" />
        <dc:title />
      </cc:Work>
    </rdf:RDF>
  </metadata>
  <g
     inkscape:label="Camada 1"
     inkscape:groupmode="layer"
     id="layer1"
     transform="translate(0,-977.36218)">
    <rect
       style="fill:#b3b3b3;stroke:none"
       id="rect2985"
       width="140"
       height="75"
       x="0.097140498"
       y="977.41003"
       inkscape:export-filename="/home/system/mapasculturaisThemeEstadoSP/assets/img/logo-instituicao.png"
       inkscape:export-xdpi="90"
       inkscape:export-ydpi="90" />
    <g
       transform="matrix(0.29633718,0,0,0.29633718,-15.33638,903.57109)"
       style="font-size:40px;font-style:normal;font-weight:normal;line-height:125%;letter-spacing:0px;word-spacing:0px;fill:#ffffff;fill-opacity:1;stroke:none;font-family:Sans"
       id="flowRoot2987">
      <g
         transform="translate(24.715771,296.83969)"
         style="font-family:Sans"
         id="flowRoot3001">
        <path
           d="m 53.832813,53.418899 c -3.099997,0 -3.200001,-1.600002 -3.200001,-3.45 l 0,-26.85 -4,0 0,28.3 c 0.05,3.399996 2.050004,5.75 5.200001,5.75 2.349997,0 4,-0.9 4.849999,-1.2 l 0,-3.1 c -1.099998,0.349999 -1.9,0.55 -2.849999,0.55"
           style="font-size:50px;font-variant:normal;font-stretch:normal;text-align:center;text-anchor:middle;font-family:Cantarell;-inkscape-font-specification:Cantarell"
           id="path2990" />
        <path
           d="m 71.295312,35.368899 c 4.899996,0 7.45,4.150005 7.45,9.3 0,5.149995 -2.500004,9.25 -7.45,9.25 -4.899995,0 -7.45,-4.150005 -7.45,-9.25 0,-5.099995 2.600005,-9.3 7.45,-9.3 m -0.1,21.8 c 7.399993,0 11.8,-5.050008 11.8,-12.55 0,-7.549993 -4.200007,-12.45 -11.649999,-12.45 -7.399993,0 -11.750001,4.950007 -11.750001,12.5 0,7.499992 4.200008,12.5 11.6,12.5"
           style="font-size:50px;font-variant:normal;font-stretch:normal;text-align:center;text-anchor:middle;font-family:Cantarell;-inkscape-font-specification:Cantarell"
           id="path2992" />
        <path
           d="m 105.26797,55.518899 0,0.7 c 0,1.549998 0,2.750001 -0.1,3.45 -0.5,4.349995 -3.30001,7 -8.350001,7 -1.749998,0 -3.650002,-0.500001 -5.75,-1.25 l -1.1,2.9 c 1.999998,0.899999 5.000002,1.6 7.35,1.6 3.700001,0 6.800001,-1.150002 8.750001,-3 2.4,-2.299998 3.35,-4.600005 3.35,-9.1 l 0,-25.25 -2.95,0 -0.5,1.4 -1.15,-0.5 c -2,-0.899999 -3.9,-1.35 -5.700001,-1.35 -1.399999,0 -2.750002,0.25 -4.05,0.8 -4.399996,1.849998 -7.25,5.950006 -7.25,12.1 0,3.149997 0.800001,5.600002 2.2,7.65 1.849998,2.699997 4.700004,4.45 8.85,4.45 2.400001,0 4.350001,-0.500001 6.400001,-1.6 m -13.300001,-11.05 c 0,-5.249995 2.500005,-9.05 7.7,-9.05 1.650001,0 3.500001,0.400001 5.600001,1.25 l 0,15.85 c -1.55,0.849999 -3.3,1.35 -5.400001,1.35 -5.249995,0 -7.9,-4.200005 -7.9,-9.4"
           style="font-size:50px;font-variant:normal;font-stretch:normal;text-align:center;text-anchor:middle;font-family:Cantarell;-inkscape-font-specification:Cantarell"
           id="path2994" />
        <path
           d="m 127.25234,35.368899 c 4.9,0 7.45,4.150005 7.45,9.3 0,5.149995 -2.5,9.25 -7.45,9.25 -4.89999,0 -7.45,-4.150005 -7.45,-9.25 0,-5.099995 2.60001,-9.3 7.45,-9.3 m -0.1,21.8 c 7.4,0 11.8,-5.050008 11.8,-12.55 0,-7.549993 -4.2,-12.45 -11.65,-12.45 -7.39999,0 -11.75,4.950007 -11.75,12.5 0,7.499992 4.20001,12.5 11.6,12.5"
           style="font-size:50px;font-variant:normal;font-stretch:normal;text-align:center;text-anchor:middle;font-family:Cantarell;-inkscape-font-specification:Cantarell"
           id="path2996" />
        <path
           d="m 144.125,38.918899 0,3.35 14.5,0 0,-3.35 -14.5,0"
           style="font-size:50px;font-variant:normal;font-stretch:normal;text-align:center;text-anchor:middle;font-family:Cantarell;-inkscape-font-specification:Cantarell"
           id="path2998" />
        <path
           d="m 164.89453,32.568899 0,24.1 4.15,0 0,-24.1 -4.15,0 m 0,-9.4 0,4.15 4.15,0 0,-4.15 -4.15,0"
           style="font-size:50px;font-variant:normal;font-stretch:normal;text-align:center;text-anchor:middle;font-family:Cantarell;-inkscape-font-specification:Cantarell"
           id="path3000" />
        <path
           d="m 192.02734,41.318899 0,15.35 4.15,0 0,-16.35 c 0,-5.099995 -2.7,-8.25 -7.9,-8.25 -2.54999,0 -5.5,0.800001 -8.55,2.4 l -0.8,-1.9 -2.9,0 0,24.1 4.15,0 0,-19.4 c 2.45,-1.149999 4.75001,-1.75 6.65,-1.75 3.9,0 5.2,1.800004 5.2,5.8"
           style="font-size:50px;font-variant:normal;font-stretch:normal;text-align:center;text-anchor:middle;font-family:Cantarell;-inkscape-font-specification:Cantarell"
           id="path3002" />
        <path
           d="m 210.53281,53.768899 c -2.94999,0 -5.8,-0.600001 -8.5,-1.65 l 0,3.65 c 2.2,0.949999 5.15001,1.4 8.85,1.4 3.7,0 6.35,-1.100002 8,-3.2 0.85,-1.049999 1.25,-2.400001 1.25,-3.7 0,-1.549999 -0.35,-2.700001 -1.4,-3.85 -0.9,-0.999999 -1.7,-1.800001 -5,-3 l -3.7,-1.35 c -1.1,-0.4 -1.85,-0.8 -2.2,-1.05 -0.85,-0.55 -1.45,-0.950002 -1.45,-2.4 0,-0.5 0.25,-1.050001 0.8,-1.55 1.3,-1.199999 3,-1.55 5.2,-1.55 3.1,0 5.3,1.4 6.4,1.9 l 0,-3.35 c -2.2,-1.049999 -3.7,-1.7 -6.75,-1.75 l -0.2,0 c -1.8,0 -3.5,0.3 -5.05,0.9 -2.4,0.949999 -4.55,2.650003 -4.55,5.95 0,3.799996 3.25,5.000001 5.2,5.9 l 3.75,1.45 c 1.2,0.449999 2.45,1.05 3.25,1.6 0.95,0.649999 1.4,1.350001 1.4,2.3 0,2.399997 -2.65,3.35 -5.3,3.35"
           style="font-size:50px;font-variant:normal;font-stretch:normal;text-align:center;text-anchor:middle;font-family:Cantarell;-inkscape-font-specification:Cantarell"
           id="path3004" />
        <path
           d="m 234.425,57.118899 c 1.7,0 3.45,-0.300001 5.3,-0.9 l 0,-3.05 c -1.3,0.349999 -2.65,0.55 -4.1,0.55 -3.1,0 -3.8,-1.650003 -3.8,-4.85 l 0,-12.95 7.9,0 0,-3.4 -7.9,0 0,-6.2 -4.15,0.2 0,6 -4.05,0 0,3.4 4.05,0 0,13.25 c 0,5.099995 1.75,7.95 6.75,7.95"
           style="font-size:50px;font-variant:normal;font-stretch:normal;text-align:center;text-anchor:middle;font-family:Cantarell;-inkscape-font-specification:Cantarell"
           id="path3006" />
        <path
           d="m 244.97266,32.568899 0,24.1 4.15,0 0,-24.1 -4.15,0 m 0,-9.4 0,4.15 4.15,0 0,-4.15 -4.15,0"
           style="font-size:50px;font-variant:normal;font-stretch:normal;text-align:center;text-anchor:middle;font-family:Cantarell;-inkscape-font-specification:Cantarell"
           id="path3008" />
        <path
           d="m 264.40547,57.118899 c 1.7,0 3.45,-0.300001 5.3,-0.9 l 0,-3.05 c -1.3,0.349999 -2.65,0.55 -4.1,0.55 -3.1,0 -3.8,-1.650003 -3.8,-4.85 l 0,-12.95 7.9,0 0,-3.4 -7.9,0 0,-6.2 -4.15,0.2 0,6 -4.05,0 0,3.4 4.05,0 0,13.25 c 0,5.099995 1.75,7.95 6.75,7.95"
           style="font-size:50px;font-variant:normal;font-stretch:normal;text-align:center;text-anchor:middle;font-family:Cantarell;-inkscape-font-specification:Cantarell"
           id="path3010" />
        <path
           d="m 279.10312,48.018899 0,-15.35 -4.15,0 0,16.35 c 0,5.099995 2.75001,8.25 7.95,8.25 2.55,0 5.45001,-0.800002 8.5,-2.4 l 0.8,1.8 2.9,0 0,-24 -4.15,0 0,19.4 c -2.44999,1.149999 -4.7,1.75 -6.6,1.75 -3.89999,0 -5.25,-1.800004 -5.25,-5.8"
           style="font-size:50px;font-variant:normal;font-stretch:normal;text-align:center;text-anchor:middle;font-family:Cantarell;-inkscape-font-specification:Cantarell"
           id="path3012" />
        <path
           d="m 302.10156,32.568899 0,24.1 4.15,0 0,-24.1 -4.15,0 m 0,-9.4 0,4.15 4.15,0 0,-4.15 -4.15,0"
           style="font-size:50px;font-variant:normal;font-stretch:normal;text-align:center;text-anchor:middle;font-family:Cantarell;-inkscape-font-specification:Cantarell"
           id="path3014" />
        <path
           d="m 323.78437,57.168899 0.25,0 c 2.3,0 4.45001,-0.450001 6.75,-1.4 l -0.94999,-2.75 c -1.55,0.549999 -3.25001,0.85 -4.60001,0.85 -0.39999,0 -0.75,0 -1.1,-0.05 -5.34999,-0.65 -7.85,-3.600006 -7.85,-9.5 0,-5.649995 2.80001,-8.8 8.55001,-8.8 1.44999,0 3.2,0.3 5.04999,0.95 l 1,-2.9 c -2.19999,-0.949999 -4.3,-1.45 -6.25,-1.45 -4.19999,0 -7.3,1.150002 -9.35,3.6 -1.94999,2.349997 -3.15,5.450004 -3.15,9.3 0,7.649992 4.20001,12.15 11.65,12.15"
           style="font-size:50px;font-variant:normal;font-stretch:normal;text-align:center;text-anchor:middle;font-family:Cantarell;-inkscape-font-specification:Cantarell"
           id="path3016" />
        <path
           d="m 344.13828,35.668899 c 3,0 4.8,0.950002 5.5,2.85 0.3,0.799999 0.45,2.000002 0.45,3.75 l 0,0.2 c -3.7,0.1 -6.7,0.45 -9.1,1.05 -3.15,0.849999 -5.9,3.150004 -5.9,7.15 0,3.899996 3.55001,6.6 7.75,6.6 2.7,0 5.15,-1.000002 7.4,-2.85 l 0.9,2.25 3.1,0 0,-15.65 c 0,-3.949996 -0.85,-5.750002 -3.4,-7.45 -1.35,-0.899999 -3.45,-1.35 -6.25,-1.35 -2.8,0 -5.5,0.500001 -8.1,1.5 l 0,3.25 c 2.05,-0.699999 5.6,-1.3 7.65,-1.3 m -0.7,18.35 c -0.6,0 -1.2,-0.1 -1.65,-0.3 -1.4,-0.65 -2.65,-1.850002 -2.65,-3.55 0,-0.6 0.2,-1.150001 0.55,-1.75 0.8,-1.299999 2.15,-2.100001 4,-2.5 1,-0.2 3.1,-0.35 6.4,-0.45 l 0,5.75 c -1.75,1.699998 -3.75,2.8 -6.65,2.8"
           style="font-size:50px;font-variant:normal;font-stretch:normal;text-align:center;text-anchor:middle;font-family:Cantarell;-inkscape-font-specification:Cantarell"
           id="path3018" />
        <path
           d="m 371.58828,35.368899 c 4.9,0 7.45,4.150005 7.45,9.3 0,5.149995 -2.5,9.25 -7.45,9.25 -4.89999,0 -7.45,-4.150005 -7.45,-9.25 0,-5.099995 2.60001,-9.3 7.45,-9.3 m -0.1,21.8 c 7.39999,0 11.8,-5.050008 11.8,-12.55 0,-7.549993 -4.20001,-12.45 -11.65,-12.45 -7.39999,0 -11.75,4.950007 -11.75,12.5 0,7.499992 4.20001,12.5 11.6,12.5"
           style="font-size:50px;font-variant:normal;font-stretch:normal;text-align:center;text-anchor:middle;font-family:Cantarell;-inkscape-font-specification:Cantarell"
           id="path3020" />
        <path
           d="m 390.11094,51.518899 0,5.15 5.1,0 0,-5.15 -5.1,0"
           style="font-size:50px;font-variant:normal;font-stretch:normal;text-align:center;text-anchor:middle;font-family:Cantarell;-inkscape-font-specification:Cantarell"
           id="path3022" />
        <path
           d="m 412.67813,35.518899 c 5.24999,0 7.84999,3.800005 7.84999,9.2 0,5.349994 -2.75,9.35 -7.9,9.35 -1.84999,0 -3.65,-0.400001 -5.4,-1.15 l 0,-15.9 c 1.7,-0.949999 3.00001,-1.5 5.45001,-1.5 m -5.45001,34.2 0,-13.6 c 1.9,0.799999 3.85001,1.2 5.8,1.2 3.3,0 6.05001,-1.150002 8.25,-3.3 2.3,-2.249998 3.5,-5.500004 3.5,-9.65 0,-4.999995 -1.75,-8.500002 -5.09999,-10.65 -1.7,-1.049999 -3.70001,-1.6 -6.10001,-1.6 -2.39999,0 -4.65,0.750001 -6.8,2.15 l -0.75,-1.7 -2.95,0 0,37.15 4.15,0"
           style="font-size:50px;font-variant:normal;font-stretch:normal;text-align:center;text-anchor:middle;font-family:Cantarell;-inkscape-font-specification:Cantarell"
           id="path3024" />
        <path
           d="m 446.71484,41.318899 0,15.35 4.15,0 0,-16.35 c 0,-5.099995 -2.7,-8.25 -7.9,-8.25 -2.54999,0 -5.5,0.800001 -8.55,2.4 l -0.8,-1.9 -2.9,0 0,24.1 4.15,0 0,-19.4 c 2.45,-1.149999 4.75001,-1.75 6.65,-1.75 3.9,0 5.2,1.800004 5.2,5.8"
           style="font-size:50px;font-variant:normal;font-stretch:normal;text-align:center;text-anchor:middle;font-family:Cantarell;-inkscape-font-specification:Cantarell"
           id="path3026" />
        <path
           d="m 473.92031,55.518899 0,0.7 c 0,1.549998 0,2.750001 -0.1,3.45 -0.5,4.349995 -3.3,7 -8.35,7 -1.75,0 -3.65,-0.500001 -5.75,-1.25 l -1.1,2.9 c 2,0.899999 5,1.6 7.35,1.6 3.7,0 6.8,-1.150002 8.75,-3 2.4,-2.299998 3.35,-4.600005 3.35,-9.1 l 0,-25.25 -2.95,0 -0.5,1.4 -1.15,-0.5 c -2,-0.899999 -3.9,-1.35 -5.7,-1.35 -1.4,0 -2.75,0.25 -4.05,0.8 -4.39999,1.849998 -7.25,5.950006 -7.25,12.1 0,3.149997 0.8,5.600002 2.2,7.65 1.85,2.699997 4.70001,4.45 8.85,4.45 2.4,0 4.35,-0.500001 6.4,-1.6 m -13.3,-11.05 c 0,-5.249995 2.50001,-9.05 7.7,-9.05 1.65,0 3.5,0.400001 5.6,1.25 l 0,15.85 c -1.55,0.849999 -3.3,1.35 -5.4,1.35 -5.24999,0 -7.9,-4.200005 -7.9,-9.4"
           style="font-size:50px;font-variant:normal;font-stretch:normal;text-align:center;text-anchor:middle;font-family:Cantarell;-inkscape-font-specification:Cantarell"
           id="path3028" />
        <path
           d="m 162.36875,84.468899 -4.75,0 -7.45,3.25 1.5,3.4 6.75,-2.75 0,27.150001 -8.65,0 0,3.65 20.65,0 0,-3.65 -8.05,0 0,-31.050001"
           style="font-size:50px;font-variant:normal;font-stretch:normal;text-align:center;text-anchor:middle;font-family:Cantarell;-inkscape-font-specification:Cantarell"
           id="path3030" />
        <path
           d="m 198.75703,84.468899 -6,0 -14.7,23.500001 0,2.9 16.75,0 0,8.3 3.95,0 0,-8.3 5.95,0 0,-3.65 -5.95,0 0,-22.750001 m -3.95,22.750001 -11.8,0 11.8,-18.850001 0,18.850001"
           style="font-size:50px;font-variant:normal;font-stretch:normal;text-align:center;text-anchor:middle;font-family:Cantarell;-inkscape-font-specification:Cantarell"
           id="path3032" />
        <path
           d="m 223.34531,87.768899 c 1.45,0 2.8,0.500001 4.05,1.45 3.1,2.399997 4.7,6.450006 4.7,12.250001 0,6.34999 -1.65,10.7 -4.95,13.1 -1.2,0.9 -2.5,1.35 -3.95,1.35 -1.45,0 -2.85,-0.45 -4.05,-1.25 -3.39999,-2.25 -5.15,-6.80001 -5.15,-13.55 0,-6.949994 2.95001,-13.350001 9.35,-13.350001 m -13.45,13.600001 c 0,8.19999 2.75001,14.3 7.95,17 1.65,0.85 3.35,1.3 5.15,1.3 1.8,0 3.55,-0.4 5.15,-1.2 5.5,-2.75 8.1,-8.80001 8.1,-17.15 0,-7.799993 -2.45,-13.050004 -7.4,-15.800001 -1.8,-0.999999 -3.6,-1.5 -5.75,-1.5 -3.79999,0 -7.05,1.600003 -9.6,4.75 -2.4,2.999997 -3.6,7.150005 -3.6,12.600001"
           style="font-size:50px;font-variant:normal;font-stretch:normal;text-align:center;text-anchor:middle;font-family:Cantarell;-inkscape-font-specification:Cantarell"
           id="path3034" />
        <path
           d="m 245.33359,95.068899 -4.8,0 8.7,12.150001 -8.45,11.95 4.55,0 6.2,-8.85 6.25,8.85 4.95,0 -8.6,-12.05 8.75,-12.050001 -4.65,0 -6.45,9.000001 -6.45,-9.000001"
           style="font-size:50px;font-variant:normal;font-stretch:normal;text-align:center;text-anchor:middle;font-family:Cantarell;-inkscape-font-specification:Cantarell"
           id="path3036" />
        <path
           d="m 292.51953,84.468899 -23.85,0 0,3.65 18.65,0 -14.2,31.050001 4.7,0 14.7,-32.100001 0,-2.6"
           style="font-size:50px;font-variant:normal;font-stretch:normal;text-align:center;text-anchor:middle;font-family:Cantarell;-inkscape-font-specification:Cantarell"
           id="path3038" />
        <path
           d="m 309.95781,100.9689 c 3.7,0 6.35,0.25 8.4,2.1 1.45,1.35 2.15,3.2 2.15,5.45 0,2.7 -1.45,4.35 -3.1,5.55 -2,1.45 -4.95,1.6 -7.35,1.6 -3.04999,0 -5.35,-0.8 -7.8,-1.55 l -1.15,3.9 c 3.05,1.1 6.65001,1.65 9.25,1.65 1.65,0 3.35,-0.15 5.15,-0.55 2,-0.4 3.7,-1.3 5.25,-2.55 2.55,-2.15 3.9,-4.95 3.9,-8.6 0,-1.55 -0.35,-3.05 -1,-4.5 -1.9,-3.949997 -5.55,-6.200001 -11.9,-6.200001 -1.5,0 -3.2,0.15 -5.1,0.35 l 0,-9.5 16,0 0,-3.65 -20,0 0,17.100001 c 0.35,-0.05 0.75,-0.05 1.1,-0.1 2.15,-0.25 4.05,-0.5 6.2,-0.5"
           style="font-size:50px;font-variant:normal;font-stretch:normal;text-align:center;text-anchor:middle;font-family:Cantarell;-inkscape-font-specification:Cantarell"
           id="path3040" />
        <path
           d="m 341.09609,98.018899 c 5.25,0 7.85,3.800001 7.85,9.200001 0,5.34999 -2.75,9.35 -7.9,9.35 -1.84999,0 -3.65,-0.4 -5.4,-1.15 l 0,-15.900001 c 1.7,-0.949999 3.00001,-1.5 5.45,-1.5 m -5.45,34.200001 0,-13.6 c 1.9,0.8 3.85001,1.2 5.8,1.2 3.3,0 6.05001,-1.15 8.25,-3.3 2.3,-2.25 3.5,-5.50001 3.5,-9.65 0,-5 -1.75,-8.500003 -5.1,-10.650001 -1.69999,-1.049999 -3.7,-1.6 -6.1,-1.6 -2.39999,0 -4.65,0.750001 -6.8,2.15 l -0.75,-1.7 -2.95,0 0,37.150001 4.15,0"
           style="font-size:50px;font-variant:normal;font-stretch:normal;text-align:center;text-anchor:middle;font-family:Cantarell;-inkscape-font-specification:Cantarell"
           id="path3042" />
        <path
           d="m 362.03281,95.068899 -4.8,0 8.7,12.150001 -8.45,11.95 4.55,0 6.2,-8.85 6.25,8.85 4.95,0 -8.6,-12.05 8.75,-12.050001 -4.65,0 -6.45,9.000001 -6.45,-9.000001"
           style="font-size:50px;font-variant:normal;font-stretch:normal;text-align:center;text-anchor:middle;font-family:Cantarell;-inkscape-font-specification:Cantarell"
           id="path3044" />
      </g>
    </g>
  </g>
</svg>
