<?xml version="1.0" encoding="UTF-8" standalone="no"?>
<svg
   width="46"
   height="46"
   viewBox="0 0 46 46"
   fill="none"
   version="1.1"
   id="svg13"
   xmlns="http://www.w3.org/2000/svg"
   xmlns:svg="http://www.w3.org/2000/svg">
  <rect
     style="fill:#c4c4c4;fill-opacity:1;stroke:none;stroke-width:1;stroke-linecap:square;paint-order:fill markers stroke"
     id="rect58"
     width="46"
     height="46"
     x="0"
     y="3.3299293e-07"
     ry="0" />
  <g
     clip-path="url(#clip0_954_2232)"
     id="g6">
    <path
       d="M11.0029 15.5C11.0029 14.7044 11.319 13.9413 11.8816 13.3787C12.4442 12.8161 13.2073 12.5 14.0029 12.5H32.0029C32.7986 12.5 33.5616 12.8161 34.1243 13.3787C34.6869 13.9413 35.0029 14.7044 35.0029 15.5V30.5C35.0029 31.2956 34.6869 32.0587 34.1243 32.6213C33.5616 33.1839 32.7986 33.5 32.0029 33.5H14.0029C13.2073 33.5 12.4442 33.1839 11.8816 32.6213C11.319 32.0587 11.0029 31.2956 11.0029 30.5V15.5ZM12.5029 29V30.5C12.5029 30.8978 12.661 31.2794 12.9423 31.5607C13.2236 31.842 13.6051 32 14.0029 32H32.0029C32.4008 32 32.7823 31.842 33.0636 31.5607C33.3449 31.2794 33.5029 30.8978 33.5029 30.5V25.25L27.8374 22.3295C27.6968 22.259 27.5375 22.2346 27.3822 22.2596C27.2269 22.2847 27.0833 22.3579 26.9719 22.469L21.4069 28.034L17.4169 25.376C17.2729 25.2801 17.1001 25.237 16.9278 25.2539C16.7556 25.2709 16.5945 25.3468 16.4719 25.469L12.5029 29ZM20.0029 19.25C20.0029 18.6533 19.7659 18.081 19.3439 17.659C18.922 17.2371 18.3497 17 17.7529 17C17.1562 17 16.5839 17.2371 16.1619 17.659C15.74 18.081 15.5029 18.6533 15.5029 19.25C15.5029 19.8467 15.74 20.419 16.1619 20.841C16.5839 21.2629 17.1562 21.5 17.7529 21.5C18.3497 21.5 18.922 21.2629 19.3439 20.841C19.7659 20.419 20.0029 19.8467 20.0029 19.25Z"
       fill="#505050"
       id="path4" />
  </g>
  <defs
     id="defs11">
    <clipPath
       id="clip0_954_2232">
      <rect
         width="24"
         height="24"
         fill="white"
         transform="translate(11 11)"
         id="rect8" />
    </clipPath>
  </defs>
</svg>
