<svg width="32" height="32" viewBox="0 0 32 32" fill="none" xmlns="http://www.w3.org/2000/svg">
<path d="M1.59007 12.9187C1.59007 12.7979 1.66066 12.6882 1.77063 12.6381L8.57733 9.5401C8.78144 9.4472 9.01329 9.59641 9.01329 9.82067V19.1103C9.01329 19.2311 8.9427 19.3408 8.83273 19.3908L2.02603 22.4889C1.82191 22.5818 1.59007 22.4326 1.59007 22.2083V12.9187Z" fill="#76E5EB"/>
<path d="M8.77703 19.1104C8.77703 19.2312 8.84762 19.3409 8.95759 19.3909L15.7643 22.489C15.9684 22.5819 16.2003 22.4326 16.2003 22.2084V12.9188C16.2003 12.798 16.1297 12.6883 16.0197 12.6382L9.21299 9.54019C9.00888 9.44729 8.77703 9.59649 8.77703 9.82076V19.1104Z" fill="#117C83"/>
<path d="M23.1855 19.1104C23.1855 19.2312 23.2561 19.3409 23.366 19.3909L30.1727 22.489C30.3769 22.5819 30.6087 22.4326 30.6087 22.2084V12.9188C30.6087 12.798 30.5381 12.6883 30.4281 12.6382L23.6214 9.54019C23.4173 9.44729 23.1855 9.59649 23.1855 9.82076V19.1104Z" fill="#D14526"/>
<path d="M15.9985 12.9187C15.9985 12.7979 16.0691 12.6882 16.1791 12.6381L22.9858 9.5401C23.1899 9.4472 23.4217 9.59641 23.4217 9.82067V19.1103C23.4217 19.2311 23.3511 19.3408 23.2412 19.3908L16.4345 22.4889C16.2304 22.5818 15.9985 22.4326 15.9985 22.2083V12.9187Z" fill="#EA9C8A"/>
</svg>
