<svg xmlns="http://www.w3.org/2000/svg" width="574" height="607" viewBox="0 0 574 607" version="1.1"><path d="M 279 2.110 C 222.460 6.592, 168.471 26.965, 122.612 61.128 C 58.087 109.194, 16.231 179.186, 3.983 259.500 C 1.294 277.130, 0.241 312.275, 1.885 329.500 C 8.956 403.574, 39.773 468.473, 92.134 519.566 C 146.405 572.521, 212.507 601.059, 291.250 605.530 L 303 606.197 303 303.599 L 303 1 296.250 1.139 C 292.538 1.216, 284.775 1.653, 279 2.110" stroke="none" fill="#183eff" fill-rule="evenodd"/><path d="M 329 122.416 L 329 245 450.941 245 C 518.009 245, 573.117 244.619, 573.405 244.154 C 574.363 242.604, 572.029 214.660, 569.968 203 C 552.999 107.012, 482.932 31.544, 388.500 7.546 C 376.302 4.446, 355.382 1.389, 340.250 0.496 L 329 -0.169 329 122.416" stroke="none" fill="#00cf00" fill-rule="evenodd"/><path d="M 296.264 0.718 C 297.784 0.947, 300.034 0.941, 301.264 0.704 C 302.494 0.467, 301.250 0.279, 298.500 0.286 C 295.750 0.294, 294.744 0.488, 296.264 0.718 M 87.971 89.750 L 81.500 96.500 88.250 90.029 C 94.520 84.018, 95.457 83, 94.721 83 C 94.568 83, 91.530 86.037, 87.971 89.750 M 429.922 365.552 C 405.062 370.054, 381.911 382.138, 363.936 399.993 C 344.814 418.989, 333.088 443.476, 330.004 470.850 C 329.300 477.091, 329.019 502.757, 329.208 543.500 L 329.500 606.500 395.500 606.500 C 467.464 606.500, 470.708 606.300, 488 600.806 C 563.095 576.947, 595.695 485.666, 552.452 420.339 C 541.387 403.623, 520.470 384.791, 503.500 376.264 C 481.976 365.450, 453.433 361.294, 429.922 365.552 M 88 517.500 C 89.866 519.425, 91.617 521, 91.892 521 C 92.167 521, 90.866 519.425, 89 517.500 C 87.134 515.575, 85.383 514, 85.108 514 C 84.833 514, 86.134 515.575, 88 517.500" stroke="none" fill="#ff4800" fill-rule="evenodd"/><path d="M 282.264 1.718 C 283.784 1.947, 286.034 1.941, 287.264 1.704 C 288.494 1.467, 287.250 1.279, 284.500 1.286 C 281.750 1.294, 280.744 1.488, 282.264 1.718 M 270.250 2.689 C 271.212 2.941, 272.788 2.941, 273.750 2.689 C 274.712 2.438, 273.925 2.232, 272 2.232 C 270.075 2.232, 269.288 2.438, 270.250 2.689 M 95.469 83.250 L 89.500 89.500 95.750 83.531 C 101.556 77.987, 102.458 77, 101.719 77 C 101.564 77, 98.751 79.813, 95.469 83.250 M 81.971 96.750 L 75.500 103.500 82.250 97.029 C 88.520 91.018, 89.457 90, 88.721 90 C 88.568 90, 85.530 93.037, 81.971 96.750 M 1.252 278.500 C 1.263 280.700, 1.468 281.482, 1.707 280.238 C 1.946 278.994, 1.937 277.194, 1.687 276.238 C 1.437 275.282, 1.241 276.300, 1.252 278.500 M 0.400 303.500 C 0.401 311.750, 0.556 314.992, 0.744 310.704 C 0.932 306.417, 0.931 299.667, 0.742 295.704 C 0.552 291.742, 0.399 295.250, 0.400 303.500 M 1.252 328.500 C 1.263 330.700, 1.468 331.482, 1.707 330.238 C 1.946 328.994, 1.937 327.194, 1.687 326.238 C 1.437 325.282, 1.241 326.300, 1.252 328.500 M 29 432.362 C 29 433.447, 34.968 445, 35.529 445 C 35.804 445, 34.619 442.188, 32.896 438.750 C 29.630 432.234, 29 431.202, 29 432.362 M 89 517.500 C 95.307 523.825, 100.692 529, 100.967 529 C 101.242 529, 96.307 523.825, 90 517.500 C 83.693 511.175, 78.308 506, 78.033 506 C 77.758 506, 82.693 511.175, 89 517.500 M 271.250 604.689 C 272.212 604.941, 273.788 604.941, 274.750 604.689 C 275.712 604.438, 274.925 604.232, 273 604.232 C 271.075 604.232, 270.288 604.438, 271.250 604.689 M 283.768 605.725 C 285.565 605.947, 288.265 605.943, 289.768 605.715 C 291.271 605.486, 289.800 605.304, 286.500 605.310 C 283.200 605.315, 281.971 605.502, 283.768 605.725" stroke="none" fill="#1c3cfb" fill-rule="evenodd"/></svg>