<svg xmlns="http://www.w3.org/2000/svg" width="1480" height="607" viewBox="0 0 1480 607" version="1.1"><path d="M 760 340.472 L 760 402 768.500 402 L 777 402 777 349.800 C 777 320.771, 777.380 298.022, 777.856 298.550 C 778.327 299.072, 787.890 322.557, 799.106 350.737 L 819.500 401.973 824.574 401.987 L 829.647 402 850.574 349.750 L 871.500 297.500 871.759 349.750 L 872.018 402 881.017 402 L 890.015 402 889.758 340.750 L 889.500 279.500 875.628 279.500 L 861.756 279.500 843.598 325.697 C 833.610 351.106, 825.167 372.166, 824.835 372.498 C 824.503 372.830, 820.288 363.066, 815.469 350.801 C 810.650 338.535, 802.374 317.475, 797.078 304 L 787.450 279.500 773.725 279.222 L 760 278.944 760 340.472 M 949.176 284.250 C 948.094 287.137, 937.880 314.025, 926.478 344 C 915.076 373.975, 905.527 399.288, 905.257 400.250 C 904.816 401.823, 905.674 402, 913.743 402 L 922.720 402 929.610 383.750 L 936.500 365.500 958.655 365.231 L 980.811 364.962 983.555 372.231 C 985.064 376.229, 988.193 384.450, 990.507 390.500 L 994.716 401.500 1003.980 401.789 C 1011.209 402.015, 1013.140 401.795, 1012.772 400.789 C 1012.513 400.080, 1002.013 372.387, 989.439 339.250 L 966.577 279 958.860 279 L 951.144 279 949.176 284.250 M 1027 340.500 L 1027 402 1035.500 402 L 1044 402 1044 377.500 L 1044 353 1057.250 352.985 C 1065.528 352.976, 1072.907 352.403, 1076.913 351.459 C 1096.269 346.896, 1106.004 333.571, 1104.743 313.365 C 1104.085 302.818, 1100.944 295.933, 1093.901 289.601 C 1084.753 281.376, 1073.613 279.023, 1043.750 279.008 L 1027 279 1027 340.500 M 1139.176 284.250 C 1138.094 287.137, 1127.880 314.025, 1116.478 344 C 1105.076 373.975, 1095.527 399.288, 1095.257 400.250 C 1094.816 401.823, 1095.674 402, 1103.743 402 L 1112.720 402 1119.610 383.750 L 1126.500 365.500 1148.655 365.231 L 1170.811 364.962 1173.555 372.231 C 1175.064 376.229, 1178.193 384.450, 1180.507 390.500 L 1184.716 401.500 1193.980 401.789 C 1201.209 402.015, 1203.140 401.795, 1202.772 400.789 C 1202.513 400.080, 1192.013 372.387, 1179.439 339.250 L 1156.577 279 1148.860 279 L 1141.144 279 1139.176 284.250 M 1266 340.492 L 1266 402.252 1292.250 401.733 C 1315.125 401.281, 1319.445 400.939, 1325.852 399.075 C 1334.846 396.459, 1340.049 393.883, 1346.227 388.990 C 1360.455 377.718, 1367.079 362.527, 1367.150 341 C 1367.183 331.325, 1366.781 328.230, 1364.620 321.500 C 1358.081 301.137, 1343.726 286.976, 1323.955 281.384 C 1319.962 280.255, 1311.462 279.693, 1292.250 279.287 L 1266 278.733 1266 340.492 M 1415.915 281.708 C 1415.328 283.244, 1404.938 310.600, 1392.826 342.500 C 1380.714 374.400, 1370.597 400.837, 1370.343 401.250 C 1370.090 401.663, 1374.077 402, 1379.205 402 L 1388.528 402 1394.925 384.750 C 1398.444 375.262, 1401.755 366.938, 1402.284 366.250 C 1402.999 365.319, 1408.675 365, 1424.500 365 C 1440.330 365, 1445.998 365.319, 1446.707 366.250 C 1447.231 366.938, 1450.548 375.258, 1454.080 384.741 L 1460.500 401.982 1469.729 401.991 L 1478.958 402 1476.448 395.250 C 1475.068 391.538, 1464.615 363.975, 1453.219 334 L 1432.500 279.500 1424.741 279.208 C 1417.062 278.919, 1416.972 278.944, 1415.915 281.708 M 1044 315.884 L 1044 337 1056.057 337 C 1071.469 337, 1076.095 335.837, 1081.546 330.595 C 1087.009 325.342, 1088.722 319.750, 1087.177 312.220 C 1085.694 304.997, 1082.717 301.222, 1076.091 298.162 C 1071.184 295.895, 1068.880 295.530, 1057.250 295.174 L 1044 294.768 1044 315.884 M 1283 340.615 L 1283 386.231 1299.750 385.746 C 1318.781 385.194, 1323.773 384.045, 1332.370 378.234 C 1343.726 370.560, 1348.980 360.361, 1349.753 344.494 C 1350.775 323.522, 1342.847 308.446, 1326.609 300.484 C 1317.526 296.030, 1311.753 295, 1295.864 295 L 1283 295 1283 340.615 M 950.726 325.299 C 946.477 338.085, 943 348.873, 943 349.273 C 943 349.673, 950.248 350, 959.107 350 C 971.571 350, 975.110 349.717, 974.754 348.750 C 974.501 348.063, 971.022 337.600, 967.022 325.500 C 963.023 313.400, 959.458 303.174, 959.101 302.776 C 958.743 302.377, 954.975 312.512, 950.726 325.299 M 1140.726 325.299 C 1136.477 338.085, 1133 348.873, 1133 349.273 C 1133 349.673, 1140.248 350, 1149.107 350 C 1161.571 350, 1165.110 349.717, 1164.754 348.750 C 1164.501 348.063, 1161.022 337.600, 1157.022 325.500 C 1153.023 313.400, 1149.458 303.174, 1149.101 302.776 C 1148.743 302.377, 1144.975 312.512, 1140.726 325.299 M 1416.634 324.692 C 1412.427 337.236, 1408.988 348.063, 1408.992 348.750 C 1408.998 349.695, 1412.738 350, 1424.333 350 C 1432.767 350, 1439.922 349.745, 1440.233 349.434 C 1440.834 348.832, 1426.259 304.067, 1425.015 302.692 C 1424.613 302.247, 1420.841 312.147, 1416.634 324.692 M 807.972 476.926 C 784.182 480.210, 764.065 497.313, 756.718 520.500 C 754.885 526.285, 754.508 529.757, 754.546 540.500 C 754.587 551.993, 754.891 554.282, 757.169 560.242 C 764.527 579.493, 778.701 593.603, 797.333 600.227 C 806.273 603.405, 825.519 603.439, 835.500 600.295 C 848.050 596.341, 860.742 587.049, 867.999 576.502 C 869.650 574.103, 871 571.883, 871 571.570 C 871 571.256, 866.454 571, 860.897 571 L 850.794 571 845.647 575.653 C 842.816 578.212, 837.575 581.699, 834 583.403 C 827.900 586.309, 826.792 586.500, 816 586.500 C 805.323 586.500, 804.070 586.291, 798.500 583.576 C 786.081 577.523, 775.003 563.096, 772.105 549.201 C 766.576 522.687, 783.896 497.190, 810.422 492.794 C 823.086 490.696, 835.780 494.703, 846.371 504.143 L 851.821 509 861.936 509 L 872.051 509 870.381 505.750 C 869.462 503.962, 865.223 499.006, 860.961 494.735 C 854.754 488.514, 851.550 486.196, 844.856 483.083 C 832.971 477.554, 819.595 475.322, 807.972 476.926 M 889.203 525.750 C 889.513 572.140, 889.533 572.545, 891.864 578.344 C 895.567 587.554, 901.336 593.861, 910.192 598.384 C 917.057 601.890, 918.730 602.317, 927.370 602.769 C 935.402 603.189, 938.033 602.918, 943.721 601.082 C 955.653 597.233, 963.452 589.930, 968.218 578.145 C 970.464 572.588, 970.505 571.771, 970.796 525.750 L 971.092 479 962.611 479 L 954.130 479 953.815 523.823 L 953.500 568.646 950.487 574.534 C 948.474 578.470, 946.041 581.430, 943.151 583.461 C 939.134 586.284, 938.208 586.500, 930.091 586.500 C 922.251 586.500, 920.931 586.220, 917.232 583.772 C 911.682 580.100, 908.276 573.975, 907.045 565.455 C 906.492 561.630, 906.031 540.612, 906.020 518.750 L 906 479 897.446 479 L 888.891 479 889.203 525.750 M 997 540 L 997 601 1027 601 L 1057 601 1057 593.020 L 1057 585.040 1035.750 584.770 L 1014.500 584.500 1014.241 531.750 L 1013.982 479 1005.491 479 L 997 479 997 540 M 1051 486.468 L 1051 493.937 1062.750 494.218 L 1074.500 494.500 1074.759 547.750 L 1075.018 601 1083.500 601 L 1091.982 601 1092.241 547.750 L 1092.500 494.500 1104.250 494.218 L 1116 493.937 1116 486.468 L 1116 479 1083.500 479 L 1051 479 1051 486.468 M 1130.205 526.773 L 1130.500 574.547 1133.774 581.195 C 1140.233 594.311, 1151.858 601.778, 1167.359 602.768 C 1185.892 603.951, 1200.040 596.255, 1207.375 581 L 1210.500 574.500 1210.787 526.750 L 1211.074 479 1202.584 479 L 1194.094 479 1193.797 524.750 C 1193.507 569.429, 1193.449 570.594, 1191.342 574.500 C 1186.796 582.924, 1179.892 587.015, 1170.282 586.978 C 1163.160 586.951, 1157.564 584.545, 1153.284 579.671 C 1147.270 572.821, 1147 570.358, 1147 522.318 L 1147 479 1138.455 479 L 1129.909 479 1130.205 526.773 M 1235 539.927 L 1235 601 1243.500 601 L 1252 601 1252 572.500 C 1252 556.825, 1252.338 544.019, 1252.750 544.041 C 1253.162 544.064, 1262.500 556.872, 1273.500 572.503 L 1293.500 600.924 1304.309 600.962 C 1312.700 600.991, 1314.949 600.720, 1314.362 599.750 C 1313.946 599.063, 1306.494 589.012, 1297.803 577.415 C 1289.111 565.818, 1282 556.081, 1282 555.778 C 1282 555.475, 1284.042 554.921, 1286.538 554.547 C 1299.758 552.564, 1310.990 543.216, 1314.685 531.121 C 1316.573 524.939, 1316.445 510.836, 1314.440 504.097 C 1311.307 493.573, 1304.264 485.855, 1294.079 481.788 C 1288.893 479.716, 1286.616 479.535, 1261.750 479.207 L 1235 478.855 1235 539.927 M 1348.725 539.270 C 1336.199 572.396, 1325.961 599.837, 1325.975 600.250 C 1325.989 600.663, 1329.981 601, 1334.846 601 L 1343.693 601 1347.485 590.750 C 1349.570 585.112, 1352.607 577.004, 1354.233 572.731 L 1357.189 564.963 1379.704 565.231 L 1402.220 565.500 1408.842 583.250 L 1415.464 601 1424.717 601 L 1433.971 601 1432.124 596.250 C 1431.108 593.638, 1420.678 566.188, 1408.945 535.250 L 1387.614 479 1379.557 479.020 L 1371.500 479.040 1348.725 539.270 M 1252.667 494.667 C 1252.300 495.033, 1252 505.885, 1252 518.782 L 1252 542.232 1265.250 541.748 C 1280.064 541.207, 1285.360 539.801, 1291.435 534.793 C 1296.302 530.781, 1298.950 524.962, 1298.978 518.218 C 1299.031 505.362, 1291 497.148, 1276.294 495.022 C 1268.519 493.898, 1253.659 493.674, 1252.667 494.667 M 1371.640 524.444 C 1367.438 536.854, 1364 547.456, 1364 548.004 C 1364 548.624, 1370.016 549, 1379.922 549 L 1395.844 549 1388.295 526.250 C 1384.143 513.737, 1380.416 503.135, 1380.013 502.690 C 1379.610 502.244, 1375.842 512.033, 1371.640 524.444" stroke="none" fill="#000000" fill-rule="evenodd"/><path d="M 427.776 366.980 C 384.444 376.117, 349.731 405.878, 336.571 445.176 C 330.526 463.226, 330.711 460.546, 330.283 536.250 L 329.888 606 391.338 606 C 426.819 606, 457.082 605.559, 462.949 604.957 C 491.157 602.063, 515.664 590.536, 535.007 571.064 C 565.911 539.954, 578.100 495.242, 566.865 454.197 C 554.986 410.799, 516.148 374.934, 471.953 366.551 C 460.581 364.393, 439.052 364.603, 427.776 366.980" stroke="none" fill="#ff4800" fill-rule="evenodd"/><path d="M 269 2.588 C 244.117 5.561, 215.897 12.392, 194.804 20.550 C 178.800 26.740, 152.063 40.483, 138 49.747 C 92.512 79.714, 57.004 119.263, 32.852 166.863 C -3.666 238.832, -9.697 322.693, 16.081 400.041 C 45.481 488.255, 116.096 559.339, 204.389 589.598 C 233.647 599.626, 268.735 606, 294.674 606 L 303 606 303 303.500 L 303 1 291.750 1.107 C 285.563 1.166, 275.325 1.833, 269 2.588" stroke="none" fill="#183eff" fill-rule="evenodd"/><path d="M 329.667 0.667 C 329.300 1.033, 329 56.160, 329 123.171 L 329 245.008 451.202 244.754 L 573.405 244.500 573.138 234.500 C 571.036 155.669, 525.772 78.262, 457.498 36.740 C 423.045 15.787, 385.951 3.923, 345.919 1.053 C 328.648 -0.185, 330.475 -0.141, 329.667 0.667" stroke="none" fill="#00cf00" fill-rule="evenodd"/><path d="M 1026.470 340.500 C 1026.470 374.600, 1026.596 388.695, 1026.749 371.822 C 1026.903 354.949, 1026.903 327.049, 1026.750 309.822 C 1026.596 292.595, 1026.470 306.400, 1026.470 340.500 M 1044.423 316.500 C 1044.424 328.050, 1044.570 332.638, 1044.747 326.696 C 1044.924 320.753, 1044.923 311.303, 1044.745 305.696 C 1044.567 300.088, 1044.422 304.950, 1044.423 316.500 M 1283.484 340.750 L 1283.500 385.500 1295.252 385.550 L 1307.003 385.600 1295.512 385.268 L 1284.021 384.937 1283.745 340.468 L 1283.469 296 1283.484 340.750 M 870.857 299.250 C 870.661 299.938, 870.733 323.450, 871.018 351.500 L 871.536 402.500 871.768 350.250 C 871.896 321.512, 871.823 298, 871.607 298 C 871.391 298, 871.053 298.563, 870.857 299.250 M 777 350.500 C 777 379.008, 777.217 402.116, 777.482 401.851 C 778.148 401.185, 778.201 299.868, 777.536 299.202 C 777.241 298.908, 777 321.992, 777 350.500 M 1044.450 354.271 C 1044.181 354.970, 1044.092 366.107, 1044.250 379.021 L 1044.539 402.500 1044.769 378.280 L 1045 354.060 1057.750 353.747 L 1070.500 353.435 1057.719 353.217 C 1048.142 353.054, 1044.815 353.319, 1044.450 354.271 M 443.750 364.743 C 447.738 364.932, 454.262 364.932, 458.250 364.743 C 462.238 364.553, 458.975 364.397, 451 364.397 C 443.025 364.397, 439.762 364.553, 443.750 364.743 M 424.500 366.601 C 387.738 375.392, 357.860 398.512, 341.642 430.717 C 337.980 437.990, 332.953 451.723, 333.055 454.176 C 333.085 454.904, 334.448 451.482, 336.082 446.570 C 349.596 405.960, 383.827 376.247, 427.776 366.980 C 432.574 365.968, 435.150 365.147, 433.500 365.154 C 431.850 365.161, 427.800 365.812, 424.500 366.601 M 489.754 371.460 C 526.167 384.683, 555.222 415.516, 566.589 453 C 567.841 457.125, 568.895 459.770, 568.932 458.878 C 569.060 455.831, 563.928 441.514, 559.477 432.500 C 548.562 410.395, 525.684 387.410, 503.500 376.264 C 497.036 373.017, 483.633 367.968, 481.690 368.050 C 481.036 368.077, 484.664 369.612, 489.754 371.460 M 571.378 485 C 571.378 491.325, 571.541 493.913, 571.739 490.750 C 571.937 487.587, 571.937 482.413, 571.739 479.250 C 571.541 476.087, 571.378 478.675, 571.378 485 M 329.489 540.500 L 329.500 606.500 392.250 606.511 L 455 606.523 392.507 606.254 L 330.014 605.985 329.746 540.242 L 329.478 474.500 329.489 540.500 M 888.459 521 C 888.459 544.925, 888.589 554.712, 888.749 542.750 C 888.908 530.788, 888.908 511.212, 888.749 499.250 C 888.589 487.288, 888.459 497.075, 888.459 521 M 971.460 522.500 C 971.460 547.250, 971.590 557.232, 971.749 544.682 C 971.908 532.132, 971.908 511.882, 971.749 499.682 C 971.590 487.482, 971.460 497.750, 971.460 522.500 M 996.488 539.500 L 996.500 601.500 1027.250 601.764 L 1058 602.029 1058 593.014 L 1058 584 1036.250 584.229 L 1014.500 584.458 1035.750 584.749 L 1057 585.040 1057 593.020 L 1057 601 1027.008 601 L 997.015 601 996.746 539.250 L 996.477 477.500 996.488 539.500 M 1147.459 521 C 1147.459 544.925, 1147.589 554.712, 1147.749 542.750 C 1147.908 530.788, 1147.908 511.212, 1147.749 499.250 C 1147.589 487.288, 1147.459 497.075, 1147.459 521 M 1193.460 522 C 1193.460 546.475, 1193.590 556.488, 1193.749 544.250 C 1193.908 532.013, 1193.908 511.988, 1193.749 499.750 C 1193.590 487.513, 1193.460 497.525, 1193.460 522 M 1234.488 539.500 L 1234.500 601.500 1243.500 601.556 L 1252.500 601.612 1243.758 601.269 L 1235.015 600.925 1234.746 539.213 L 1234.477 477.500 1234.488 539.500 M 1050.349 487 C 1050.349 491.675, 1050.522 493.587, 1050.732 491.250 C 1050.943 488.913, 1050.943 485.087, 1050.732 482.750 C 1050.522 480.413, 1050.349 482.325, 1050.349 487 M 1074.241 548.250 L 1074 602 1083.500 602 L 1093 602 1092.759 548.250 L 1092.518 494.500 1092.250 547.750 L 1091.982 601 1083.500 601 L 1075.018 601 1074.750 547.750 L 1074.482 494.500 1074.241 548.250 M 564.161 524.745 C 553.621 555.228, 531.207 580.287, 501.608 594.682 C 496.598 597.118, 493.625 598.803, 495 598.425 C 499.141 597.287, 511.054 591.063, 518.500 586.148 C 532.429 576.952, 547.709 560.233, 556.224 544.870 C 560.268 537.574, 567.294 520.382, 566.817 518.950 C 566.641 518.422, 565.446 521.030, 564.161 524.745 M 1257.784 541.738 C 1260.689 541.941, 1265.189 541.939, 1267.784 541.734 C 1270.378 541.528, 1268 541.363, 1262.500 541.365 C 1257 541.368, 1254.878 541.536, 1257.784 541.738 M 1364.015 547.250 C 1364.001 548.853, 1365.327 548.981, 1379.750 548.779 L 1395.500 548.558 1380.542 548.251 C 1370.139 548.038, 1365.347 547.572, 1364.807 546.722 C 1364.268 545.873, 1364.026 546.034, 1364.015 547.250 M 847.437 573.250 L 844.500 576.500 847.517 573.786 C 850.351 571.237, 851.200 571.053, 861.517 570.749 L 872.500 570.425 861.437 570.212 L 850.374 570 847.437 573.250 M 1344 599.833 C 1344 600.628, 1340.893 601.066, 1334.250 601.208 L 1324.500 601.415 1333.910 601.747 C 1342.609 602.054, 1346.518 601.184, 1344.683 599.350 C 1344.307 598.974, 1344 599.192, 1344 599.833 M 1414.255 600 C 1414.576 601.183, 1416.809 601.560, 1424.831 601.785 C 1430.424 601.942, 1435.001 601.717, 1435.002 601.285 C 1435.003 600.853, 1430.663 600.645, 1425.356 600.822 C 1418.196 601.061, 1415.467 600.803, 1414.777 599.822 C 1414.045 598.780, 1413.934 598.818, 1414.255 600 M 485.769 600.564 C 485.459 600.874, 481.221 602.004, 476.353 603.075 C 470.097 604.451, 469.030 604.863, 472.715 604.481 C 478.088 603.924, 490.739 600.278, 487.917 600.100 C 487.046 600.045, 486.079 600.254, 485.769 600.564 M 1304 601 L 1292.500 601.601 1304.250 601.801 C 1311.550 601.924, 1316 601.621, 1316 601 C 1316 600.450, 1315.888 600.090, 1315.750 600.199 C 1315.612 600.309, 1310.325 600.669, 1304 601" stroke="none" fill="#f85310" fill-rule="evenodd"/><path d="M 1265.470 340.500 C 1265.470 374.600, 1265.596 388.695, 1265.749 371.822 C 1265.903 354.949, 1265.903 327.049, 1265.750 309.822 C 1265.596 292.595, 1265.470 306.400, 1265.470 340.500 M 759.470 341 C 759.470 374.825, 759.596 388.662, 759.749 371.750 C 759.903 354.837, 759.903 327.162, 759.749 310.250 C 759.596 293.337, 759.470 307.175, 759.470 341 M 1049.789 295.741 C 1053.248 295.937, 1058.648 295.936, 1061.789 295.738 C 1064.930 295.540, 1062.100 295.380, 1055.500 295.382 C 1048.900 295.384, 1046.330 295.546, 1049.789 295.741 M 1289.750 295.743 C 1293.737 295.932, 1300.263 295.932, 1304.250 295.743 C 1308.237 295.553, 1304.975 295.397, 1297 295.397 C 1289.025 295.397, 1285.763 295.553, 1289.750 295.743 M 958.500 349 L 942.500 349.577 958.750 349.789 C 969.058 349.923, 975 349.634, 975 349 C 975 348.450, 974.888 348.095, 974.750 348.211 C 974.612 348.328, 967.300 348.682, 958.500 349 M 1148.500 349 L 1132.500 349.577 1148.750 349.789 C 1159.058 349.923, 1165 349.634, 1165 349 C 1165 348.450, 1164.888 348.095, 1164.750 348.211 C 1164.612 348.328, 1157.300 348.682, 1148.500 349 M 1424.500 349 L 1408.500 349.577 1424.191 349.789 C 1433.808 349.918, 1440.121 349.613, 1440.500 349 C 1440.840 348.450, 1440.979 348.095, 1440.809 348.211 C 1440.639 348.328, 1433.300 348.682, 1424.500 349 M 947.750 365.747 C 953.938 365.922, 964.063 365.922, 970.250 365.747 C 976.438 365.571, 971.375 365.428, 959 365.428 C 946.625 365.428, 941.563 365.571, 947.750 365.747 M 1137.750 365.747 C 1143.938 365.922, 1154.063 365.922, 1160.250 365.747 C 1166.438 365.571, 1161.375 365.428, 1149 365.428 C 1136.625 365.428, 1131.563 365.571, 1137.750 365.747 M 1413.195 365.746 C 1419.077 365.922, 1428.977 365.923, 1435.195 365.747 C 1441.413 365.571, 1436.600 365.427, 1424.500 365.426 C 1412.400 365.425, 1407.313 365.569, 1413.195 365.746 M 897.239 478.723 L 905.978 479.078 906.256 520.039 L 906.534 561 906.517 519.750 L 906.500 478.500 897.500 478.434 L 888.500 478.369 897.239 478.723 M 953.457 479.251 C 953.193 479.938, 953.100 499.176, 953.250 522.001 L 953.523 563.500 953.761 521.289 L 954 479.078 962.750 478.745 L 971.500 478.411 962.719 478.206 C 956.455 478.059, 953.800 478.359, 953.457 479.251 M 1005.241 478.723 L 1013.982 479.078 1014.255 531.539 L 1014.527 584 1014.513 531.250 L 1014.500 478.500 1005.500 478.434 L 996.500 478.369 1005.241 478.723 M 1067.314 478.749 C 1076.561 478.914, 1091.411 478.913, 1100.314 478.748 C 1109.216 478.582, 1101.650 478.447, 1083.500 478.448 C 1065.350 478.448, 1058.066 478.583, 1067.314 478.749 M 1129.458 479.250 C 1129.194 479.938, 1129.100 499.625, 1129.250 523 L 1129.522 565.500 1129.761 522.289 L 1130 479.078 1138.750 478.745 L 1147.500 478.411 1138.719 478.206 C 1132.457 478.059, 1129.800 478.359, 1129.458 479.250 M 1202.240 478.723 L 1210.979 479.078 1211.255 523.039 L 1211.532 567 1211.516 522.750 L 1211.500 478.500 1202.500 478.434 L 1193.500 478.369 1202.240 478.723 M 1245.250 478.746 C 1251.162 478.923, 1260.838 478.923, 1266.750 478.746 C 1272.662 478.569, 1267.825 478.425, 1256 478.425 C 1244.175 478.425, 1239.338 478.569, 1245.250 478.746 M 1375.776 478.733 C 1378.128 478.945, 1381.728 478.942, 1383.776 478.727 C 1385.824 478.512, 1383.900 478.339, 1379.500 478.343 C 1375.100 478.346, 1373.424 478.522, 1375.776 478.733 M 1056.789 494.741 C 1060.248 494.937, 1065.648 494.936, 1068.789 494.738 C 1071.930 494.540, 1069.100 494.380, 1062.500 494.382 C 1055.900 494.384, 1053.330 494.546, 1056.789 494.741 M 1098.789 494.741 C 1102.248 494.937, 1107.648 494.936, 1110.789 494.738 C 1113.930 494.540, 1111.100 494.380, 1104.500 494.382 C 1097.900 494.384, 1095.330 494.546, 1098.789 494.741 M 1252.449 495.272 C 1252.181 495.971, 1252.091 506.884, 1252.250 519.522 L 1252.539 542.500 1252.770 518.786 L 1253 495.072 1262.750 494.746 L 1272.500 494.419 1262.719 494.209 C 1255.569 494.056, 1252.806 494.342, 1252.449 495.272 M 847.453 505.750 L 851.406 510 862.453 509.788 L 873.500 509.575 862.505 509.251 L 851.510 508.927 847.505 505.214 L 843.500 501.500 847.453 505.750 M 1252.211 572.750 C 1252.421 601.453, 1252.760 598.176, 1253.244 562.749 C 1253.385 552.436, 1253.162 543.998, 1252.750 543.999 C 1252.338 543.999, 1252.095 556.938, 1252.211 572.750" stroke="none" fill="#152baf" fill-rule="evenodd"/></svg>