<?xml version="1.0" standalone="no"?>
<!DOCTYPE svg PUBLIC "-//W3C//DTD SVG 1.1//EN" "http://www.w3.org/Graphics/SVG/1.1/DTD/svg11.dtd" >
<svg xmlns="http://www.w3.org/2000/svg">
<metadata></metadata>
<defs>
<font id="aleoregular" horiz-adv-x="1545" >
<font-face units-per-em="2000" ascent="1610" descent="-390" />
<missing-glyph horiz-adv-x="430" />
<glyph unicode="&#xfb01;" horiz-adv-x="1194" d="M55 919v73h160v56q0 202 123 310t339 112q187 0 307 -93q56 -41 56 -105q0 -44 -36.5 -84.5t-78.5 -40.5q-61 0 -99.5 35.5t-38.5 90.5q0 21 6 40q-91 30 -180 15t-142 -63q-81 -73 -81 -221v-51h612v-847l114 -23q30 -6 30 -37v-86h-322h-145v86q0 31 31 37l114 23v718 h-428v-718q110 -18 132 -23q30 -6 30 -37v-86h-497v86q0 31 31 37q3 0 16 2.5t45.5 9t61.5 11.5v715l-112 13q-48 10 -48 45z" />
<glyph unicode="&#xfb02;" horiz-adv-x="1309" d="M57 913v80h160v54q0 188 114 300.5t302 112.5l311 -14h100v-1176q2 -80 34.5 -115.5t110.5 -35.5h40q10 0 16 -1.5t9.5 -5.5t4.5 -12l8 -96q-55 -20 -122 -20q-133 0 -206.5 76.5t-73.5 212.5v1053h-203q-130 0 -200.5 -74t-70.5 -207v-53h264v-129h-258v-717 q110 -18 132 -23q30 -6 30 -37v-86h-497v86q0 31 31 37q5 2 124 24v701l-112 15q-48 11 -48 50z" />
<glyph horiz-adv-x="0" />
<glyph unicode="&#xd;" horiz-adv-x="263" />
<glyph horiz-adv-x="263" />
<glyph horiz-adv-x="263" />
<glyph unicode=" "  horiz-adv-x="430" />
<glyph unicode="&#x09;" horiz-adv-x="430" />
<glyph unicode="&#xa0;" horiz-adv-x="430" />
<glyph unicode="!" horiz-adv-x="388" d="M65 108q0 53 34.5 88.5t87.5 35.5t87.5 -35.5t34.5 -88.5q0 -54 -34 -88.5t-88 -34.5t-88 34t-34 89zM112 861v572h169l-4 -573q0 -168 -22 -361h-121q-22 193 -22 362z" />
<glyph unicode="&#x22;" horiz-adv-x="661" d="M87 1143v290h155v-291l-16 -155q-6 -67 -62 -67q-48 0 -61 68zM420 1142v290h155v-291l-16 -155q-6 -67 -62 -67q-48 0 -61 68z" />
<glyph unicode="#" horiz-adv-x="1138" d="M45 473v11q0 4 2 12l8 57h204l65 326h-232l13 74q5 30 24 43t56 13h158l72 358q6 29 26.5 46.5t51.5 17.5h80l-84 -422h247l84 422h79q25 0 42 -15t17 -39q0 -9 -1 -12l-73 -355h212l-13 -75q-5 -30 -23.5 -42.5t-55.5 -12.5h-138l-65 -326h179q50 0 50 -52v-10 q0 -8 -1 -12l-9 -57h-237l-87 -426h-81q-24 0 -39.5 17.5t-15.5 43.5v8q0 2 2 8l71 346h-247l-71 -355q-13 -67 -81 -67h-79l85 423h-146q-49 0 -49 52zM405 551h247l65 326h-247z" />
<glyph unicode="$" horiz-adv-x="1031" d="M30 165l53 82q18 25 48 25q20 0 43 -19q61 -49 121 -80t137 -40l37 531q-48 14 -83 26.5t-77 31t-71.5 38.5t-59 49.5t-47.5 63t-29.5 79t-11.5 98.5q0 154 112 266q119 119 317 128l10 144q2 20 16 34.5t35 14.5h66l-14 -198q184 -24 317 -153l-43 -66q-20 -30 -45 -30 q-13 0 -26.5 6t-32.5 19t-24 16q-79 46 -153 57l-33 -484q2 -1 6 -2q54 -17 82 -26t76 -29t74.5 -37t60.5 -45.5t51.5 -59.5t30 -75t12.5 -95q0 -148 -70 -250t-188 -155q-83 -37 -190 -43l-12 -176q-2 -20 -15.5 -34.5t-33.5 -14.5h-66l15 226l-4 -5q-121 10 -220 58.5 t-171 123.5zM257 1066q0 -41 13.5 -75t33 -56.5t51.5 -42.5t58 -31t65 -25l30 451q-185 -17 -235 -143q-15 -38 -15 -78h-1zM543 133q122 11 196.5 79.5t74.5 189.5h-1q0 31 -7.5 57.5t-19 46t-31.5 37t-37.5 29t-45.5 24t-46 19t-49 16.5z" />
<glyph unicode="%" horiz-adv-x="1531" d="M55 1087q0 126 50.5 212.5t141.5 124.5q57 24 125 24q112 0 185.5 -56.5t107.5 -151.5q24 -68 24 -153q0 -122 -53 -207.5t-144 -122.5q-59 -24 -121 -24q-110 0 -184 56t-108 148q-24 66 -24 150zM146 0l1042 1397l-1 1q15 18 29 26.5t38 8.5h128l-1047 -1404 q-23 -29 -57 -29h-132zM192 1087q0 -110 42.5 -173.5t136.5 -63.5q48 0 83.5 17.5t56 50.5t30 74.5t9.5 94.5h-2q0 53 -9.5 96t-30 77t-56 52.5t-83.5 18.5t-83.5 -18.5t-55.5 -52.5t-29 -76.5t-9 -96.5zM842 339q0 84 23 151.5t66 114t103 71.5q57 24 125 24 q112 0 186.5 -56.5t108.5 -151.5q24 -67 24 -153h-4q0 -82 -25 -148.5t-68 -111.5t-103 -70q-57 -24 -120 -24q-110 0 -184 56t-108 148q-24 66 -24 150zM978 338q0 -109 42.5 -172.5t136.5 -63.5t136.5 64t42.5 173l-2 -2q0 53 -9.5 96t-30 76.5t-56 52t-83.5 18.5 q-177 0 -177 -242z" />
<glyph unicode="&#x26;" horiz-adv-x="1401" d="M47 380q0 205 189 344q56 41 125 72q-38 47 -61.5 87t-40.5 96t-17 118q0 121 62.5 204t163.5 121q72 27 161 27l-8 -4q116 0 203.5 -52.5t128.5 -137.5q28 -57 32 -115l-111 -22q-3 -1 -9 -1q-33 0 -41 32q-21 71 -71 114.5t-130 43.5q-98 0 -158 -57.5t-60 -154.5 q0 -58 21 -103.5t58 -93.5q25 -32 65 -72l412 -419q74 134 90 288q1 19 11.5 30t28.5 11h110q-3 -236 -137 -434l300 -304h-172q-33 0 -49 7.5t-38 29.5l-144 145q-203 -197 -487 -197q-136 0 -236.5 63.5t-153.5 166.5q-37 73 -37 167zM224 392l2 2q0 -94 49 -157.5 t127 -92.5q49 -18 102 -18q208 0 357 149l-423 427q-214 -115 -214 -310z" />
<glyph unicode="'" horiz-adv-x="328" d="M87 1143v290h155v-291l-16 -155q-6 -67 -62 -67q-48 0 -61 68z" />
<glyph unicode="(" horiz-adv-x="480" d="M61 630q0 97 9 188.5t27 173t42 155.5t56 145t66 133.5t76 126.5l79 -49q25 -18 25 -39q0 -15 -10 -34q-213 -368 -213 -801l-2 -2q0 -421 214 -799q10 -18 10 -33q0 -21 -25 -39l-79 -48q-132 204 -203.5 424t-71.5 498z" />
<glyph unicode=")" horiz-adv-x="481" d="M40 1462q0 21 25 39l79 49q133 -205 204.5 -423.5t71.5 -496.5t-71.5 -498t-203.5 -423l-79 48q-25 18 -25 39q0 16 10 33q214 378 214 800l-2 -2q0 433 -213 801q-10 19 -10 34z" />
<glyph unicode="*" horiz-adv-x="736" d="M63 1311l44 75l173 -100q34 -20 57 -51q-15 30 -15 74v198h88v-197q0 -39 -14 -72q16 23 54 47l172 99l44 -75l-172 -100q-35 -22 -67 -25q37 -3 68 -23l173 -101l-44 -75l-173 100q-40 24 -56 48q16 -32 16 -72v-198h-88l-3 197q0 40 13 69q-19 -25 -53 -45l-172 -99 l-44 75l172 100q36 21 73 24q-38 3 -73 26z" />
<glyph unicode="+" horiz-adv-x="1069" d="M55 604v135h405v427h146v-427h407v-135h-407v-430h-146v430h-405z" />
<glyph unicode="," horiz-adv-x="417" d="M90 122q0 50 33.5 81.5t85.5 31.5q60 0 92 -38.5t32 -102.5q0 -145 -110 -282q-37 -47 -81 -83l-30 29q-13 12 -13 28q0 13 14 27q91 91 108 186h-13q-53 0 -84.5 35t-31.5 89z" />
<glyph unicode="-" horiz-adv-x="683" d="M95 524v151h494v-151h-494z" />
<glyph unicode="." horiz-adv-x="422" d="M89 109q0 53 34.5 88.5t87.5 35.5t87.5 -35.5t34.5 -88.5q0 -54 -34 -88.5t-88 -34.5t-88 34t-34 89z" />
<glyph unicode="/" horiz-adv-x="841" d="M33 -89l601 1497q28 65 94 65h75l-597 -1494h-1q-12 -30 -37.5 -49t-59.5 -19h-75z" />
<glyph unicode="0" horiz-adv-x="1179" d="M67 716q0 361 151 554q139 178 369 178q232 0 371 -178q152 -194 152 -554h-1q0 -361 -151 -554q-139 -178 -371 -178q-230 0 -369 178q-151 193 -151 554zM252 715q0 -307 101 -454q87 -127 235 -127q147 0 235 128q101 147 101 454l-1 -2q0 307 -101 454 q-88 128 -235 128q-148 0 -235 -127q-100 -145 -100 -454z" />
<glyph unicode="1" horiz-adv-x="931" d="M38 1067l426 369h145v-1300q238 -18 254 -21q28 -6 28 -35v-80h-768v80q0 29 28 35l280 21v977q0 44 3 89l-256 -219q-20 -15 -36 -15q-33 0 -48 22z" />
<glyph unicode="2" horiz-adv-x="1063" d="M48 0v61q0 43 32 75l459 461q43 44 58 60t51 56.5t53 67t38.5 66.5t34.5 80q18 56 18 119q0 60 -17.5 107t-50.5 79t-80.5 48.5t-107.5 16.5q-110 0 -182.5 -59t-94.5 -155q-14 -55 -66 -55h-10q-3 0 -13 2l-93 16q20 143 96.5 239t200.5 138q79 27 171 27 q98 0 177.5 -28.5t134 -79.5t86.5 -122q33 -74 33 -168q0 -56 -13 -108t-31 -89.5t-45 -80.5q-10 -16 -22.5 -33.5t-23 -30.5t-26.5 -31.5t-25 -29t-28.5 -30.5t-26.5 -27.5t-29 -30t-28 -28.5l-377 -386q89 23 159 23h393q9 101 11 115q3 15 15 24.5t27 9.5h97v-195 l-1 -124h-954z" />
<glyph unicode="3" horiz-adv-x="1060" d="M45 359l76 32q21 9 42 9q27 0 41 -13.5t23 -40.5q45 -94 87 -133q83 -76 211 -76q105 0 178 47t105 127q19 47 19 95q0 52 -12 92.5t-35 69.5t-54.5 48.5t-74 31t-88.5 16.5t-103 5v129q338 6 338 254q0 78 -31 133t-88 83t-135 28q-110 0 -181.5 -59t-96.5 -155 q-14 -55 -66 -55h-10q-3 0 -13 2l-93 16q20 143 96.5 239t200.5 138q79 27 171 27h6q141 0 240.5 -57.5t146.5 -158.5q31 -66 31 -150q0 -133 -67 -214t-184 -115q281 -76 281 -342q0 -78 -22.5 -144t-62.5 -114.5t-91.5 -83.5t-113.5 -56q-87 -30 -186 -30q-306 0 -424 226 q-34 66 -61 149z" />
<glyph unicode="4" horiz-adv-x="1169" d="M47 508l697 925h166v-916l216 -1v-102q0 -38 -38 -38h-178v-377h-157v377h-635q-19 0 -33.5 12t-19.5 29zM239 516h513v591q0 62 8 118z" />
<glyph unicode="5" horiz-adv-x="1015" d="M40 133l54 76q18 26 48 26q19 0 45 -15q45 -26 75 -41t81.5 -28.5t105.5 -13.5q116 0 192 53.5t110 146.5q23 63 23 138q0 96 -38 162t-107.5 98.5t-168.5 32.5q-112 0 -232 -38l-112 33l116 670h679v-78l-3 -2q0 -86 -105 -86h-450l-66 -376q112 24 207 24 q164 0 273.5 -69t156.5 -193q30 -80 30 -172q0 -220 -149 -363q-43 -41 -97.5 -70.5t-123.5 -47t-146 -17.5q-233 0 -398 150z" />
<glyph unicode="6" horiz-adv-x="1075" d="M56 473q0 95 42 201q43 108 133 228l363 489q14 18 40 30t56 12h158l-497 -629q109 74 247 74l-1 -1q142 0 242 -66.5t148 -178.5q34 -78 34 -181q0 -159 -80.5 -269.5t-211.5 -161.5q-91 -36 -201 -36q-166 0 -278.5 77t-160.5 209q-33 90 -33 203zM227 441 q0 -108 45.5 -181t127.5 -106q54 -22 126 -22q109 0 184.5 49t109.5 133q23 57 23 122q0 72 -23 129.5t-63 95t-95 58.5q-56 21 -123 21q-108 0 -183 -51t-108 -135q-21 -54 -21 -113z" />
<glyph unicode="7" horiz-adv-x="1086" d="M62 1084v349h975v-80q0 -49 -23 -93l-593 -1197q-31 -63 -98 -63h-127l602 1182q29 54 57 86h-640q-10 -133 -14 -150q-7 -34 -42 -34h-97z" />
<glyph unicode="8" horiz-adv-x="1075" d="M55 388q0 143 74.5 231.5t203.5 124.5q-69 26 -118.5 68t-79 108t-29.5 150q0 130 71.5 218.5t184.5 129.5q81 29 177 29q146 0 250 -61.5t152 -167.5q31 -68 31 -148q0 -123 -61.5 -204t-167.5 -121q130 -36 204 -124t74 -231q0 -147 -79 -241.5t-208 -136.5 q-87 -28 -195 -28l-2 -3q-163 0 -279 62t-168 175q-35 76 -35 170zM236 391q0 -95 47.5 -158t127.5 -91q54 -19 126 -19l-4 -3q70 0 126 19.5t94.5 55t59.5 85.5q21 49 21 110q0 134 -80 204.5t-219 70.5t-219 -70t-80 -204zM273 1064q0 -121 67 -188t189 -68q124 0 192 67 t68 189q0 84 -39 139.5t-107 82.5q-47 19 -112 19q-118 0 -188 -64t-70 -177z" />
<glyph unicode="9" horiz-adv-x="1045" d="M54 1000q0 152 79 259.5t204 157.5q88 35 191 35q159 0 267 -75t157 -202q33 -85 33 -189q0 -66 -14.5 -128t-34 -105.5t-49.5 -96.5t-69 -108l-349 -504q-30 -43 -92 -43h-164l436 571q56 71 78 105q-114 -89 -270 -89h-2q-135 0 -228.5 64.5t-139.5 171.5 q-33 77 -33 176zM233 1012q0 -135 74 -211.5t208 -76.5q104 0 175.5 48t102.5 129q20 52 20 106l-1 -3q0 102 -45.5 171.5t-124.5 101.5q-53 21 -115 21q-101 0 -171.5 -46t-101.5 -124q-21 -52 -21 -116z" />
<glyph unicode=":" horiz-adv-x="414" d="M85 109q0 53 34.5 88.5t87.5 35.5t87.5 -35.5t34.5 -88.5q0 -54 -34 -88.5t-88 -34.5t-88 34t-34 89zM85 858q0 53 34.5 88.5t87.5 35.5t87.5 -35.5t34.5 -88.5q0 -54 -34 -88.5t-88 -34.5t-88 34t-34 89z" />
<glyph unicode=";" horiz-adv-x="413" d="M83 858q0 53 34.5 88.5t87.5 35.5t87.5 -35.5t34.5 -88.5q0 -54 -34 -88.5t-88 -34.5t-88 34t-34 89zM89 122q0 50 33.5 81.5t85.5 31.5q60 0 92 -38.5t32 -102.5q0 -145 -110 -282q-37 -47 -81 -83l-30 29q-13 12 -13 28q0 13 14 27q91 91 108 186h-13q-53 0 -84.5 35 t-31.5 89z" />
<glyph unicode="&#x3c;" horiz-adv-x="909" d="M61 636v74l774 400v-127q0 -19 -8.5 -30t-26.5 -21l-449 -228q-32 -17 -90 -31q51 -9 90 -30l449 -227q35 -19 35 -54v-128z" />
<glyph unicode="=" horiz-adv-x="1052" d="M97 439v135h859v-135h-859zM97 774v135h859v-135h-859z" />
<glyph unicode="&#x3e;" horiz-adv-x="911" d="M76 361q0 35 35 54l449 227q40 22 88 30q-49 12 -87 32l-449 228q-35 19 -35 52v127l773 -401v-74l-773 -402z" />
<glyph unicode="?" horiz-adv-x="822" d="M36 1307q158 143 358 143q123 0 211.5 -50.5t130.5 -139.5q28 -59 28 -135q0 -187 -154 -301q-107 -79 -137 -111q-25 -27 -30 -60l-18 -153h-122l-12 166v11q0 70 80 136q17 14 55 43t59.5 46.5t48 47.5t42.5 61q23 44 23 104q0 88 -60.5 138t-153.5 50q-129 0 -226 -81 q-18 -15 -30 -15q-25 0 -39 23l-47 75zM232 111q0 53 34.5 88.5t87.5 35.5t87.5 -35.5t34.5 -88.5q0 -54 -34 -88.5t-88 -34.5t-88 34t-34 89z" />
<glyph unicode="@" horiz-adv-x="1599" d="M59 569q0 328 224 557q143 146 341 203q101 29 207 29q288 0 491 -175q100 -86 158 -210t58 -286q0 -163 -64.5 -284t-175.5 -179q-73 -38 -156 -38l-6 -3q-54 0 -94 18.5t-63.5 52.5t-32.5 83q-53 -73 -116.5 -112t-155.5 -39q-115 0 -176 74.5t-61 197.5q0 96 36 181 t94 147q44 47 98 81t127.5 55t155.5 21q122 0 214 -40l-93 -361q-19 -73 -19 -124q0 -61 27 -90.5t86 -29.5q101 0 170 107q73 113 73 282q0 202 -94 333.5t-257 185.5q-107 35 -227 35q-140 0 -255.5 -52.5t-199.5 -139.5q-86 -88 -136.5 -210.5t-50.5 -270.5 q0 -167 53 -296.5t148 -217.5q88 -83 210.5 -129t273.5 -46q275 0 471 117q15 9 27 9q21 0 31 -24l25 -66q-228 -154 -552 -154q-180 0 -327 57t-252 157q-71 68 -122.5 153.5t-82 199t-30.5 241.5zM579 461q0 -47 13.5 -82t43.5 -55.5t74 -20.5v-4q48 0 86 18.5t63.5 51.5 t41.5 69.5t28 83.5l76 295q-39 9 -85 9q-116 0 -196.5 -65t-119.5 -165q-25 -65 -25 -135z" />
<glyph unicode="A" d="M50 0v79q0 27 26 33l80 24l519 1297h197l518 -1297l80 -24q26 -6 26 -33v-79h-411v79q0 27 27 34l82 23l-112 289h-618l-112 -289l82 -23q27 -8 27 -34v-79h-411zM518 565h510l-212 550q-21 51 -43 135q-24 -87 -42 -136z" />
<glyph unicode="B" horiz-adv-x="1260" d="M66 1v86q0 31 30 37l114 23v1141q-96 19 -114 24q-30 6 -30 37v86h601q383 0 476 -217q29 -72 29 -141q0 -71 -15.5 -119.5t-49.5 -91.5q-70 -88 -203 -129h-1q317 -63 317 -329q0 -132 -67.5 -225t-179 -137.5t-256.5 -44.5h-651zM404 1280l1 -489h256q239 0 300 145 q19 45 19 100q0 132 -79.5 188t-233.5 56h-263zM405 154h310l-1 -1q238 0 297 155q18 46 18 104q0 122 -84.5 181.5t-230.5 59.5h-309v-499z" />
<glyph unicode="C" horiz-adv-x="1271" d="M45 716q0 324 200 529q199 204 530 204l-2 1q171 0 443 -103v-334h-97q-11 0 -19.5 2.5t-13.5 9t-8 13t-4.5 19.5t-2 22.5t-1.5 28t-2 30.5q-7 87 -7 90q-448 142 -675 -98q-146 -155 -146 -414q0 -160 58.5 -287.5t173 -202.5t266.5 -75q124 0 189 24q98 36 177 106 q16 15 33 15t30 -13l76 -83q-186 -216 -516 -216q-307 0 -495 204q-187 202 -187 528z" />
<glyph unicode="D" horiz-adv-x="1486" d="M69 -1v86q0 31 30 37l114 23v1141q-96 20 -114 24q-30 6 -30 37v86h661q316 0 510 -197q195 -199 195 -520l1 -1q0 -164 -52 -295t-143 -224q-195 -197 -511 -197h-661zM408 156h322q159 0 274.5 70.5t174 196t58.5 292.5q0 169 -58.5 295t-174 195.5t-274.5 69.5h-322 v-1119z" />
<glyph unicode="E" horiz-adv-x="1174" d="M68 -1v86q0 31 30 37l114 23v1141q-96 20 -114 24q-30 6 -30 37v86l1028 -1v-346h-96q-34 0 -42 35q-2 15 -14 153h-536v-476h528v-152h-528v-489h537q10 133 12 142q7 34 42 34h96v-334h-1027z" />
<glyph unicode="F" horiz-adv-x="1169" d="M68 -1v86q0 31 30 37l114 23v1141q-96 20 -114 24q-30 6 -30 37v86h144l918 -1v-346h-97q-34 0 -42 35q-3 15 -14 153h-570v-501h544v-158h-544v-470q7 -1 114 -23q30 -6 30 -37v-86h-483z" />
<glyph unicode="G" horiz-adv-x="1368" d="M43 715q0 331 198 530q201 203 535 203q234 0 506 -103v-334h-96q-35 0 -42 34q-2 17 -15 181q-167 54 -333 54q-141 0 -239.5 -37.5t-170.5 -113.5q-143 -154 -143 -413q0 -257 141 -416t384 -159l-1 -1q196 0 355 84v316h-222q-18 0 -30.5 10.5t-12.5 27.5v110h440 v-550q-215 -155 -545 -155q-312 0 -510 203q-199 205 -199 529z" />
<glyph unicode="H" horiz-adv-x="1579" d="M66 0v86q0 31 30 37l114 23v1141q-96 19 -120 24t-24 36v86h483v-86q0 -31 -21 -36q-16 -3 -122 -24v-493h772v493q-96 19 -120 24t-24 36v86h484v-86q0 -31 -31 -37l-115 -23v-1141q105 -21 121 -24q24 -4 24 -36v-86h-484v86q0 31 30 37l114 23v506h-772v-506 q144 -28 144 -60v-86h-483z" />
<glyph unicode="I" horiz-adv-x="611" d="M67 0v86q0 31 30 37l114 23v1141q-96 19 -120 24t-24 36v86h483v-86q0 -31 -31 -37l-114 -23v-1141q105 -21 121 -24q24 -4 24 -36v-86h-483z" />
<glyph unicode="J" horiz-adv-x="884" d="M54 12q9 128 21 140t32 12t50 -9t80 -9v-1q277 0 277 345v796q-114 19 -133 24q-30 6 -30 37v86h500v-86q0 -31 -30 -37l-114 -23v-792q0 -369 -258 -476q-85 -35 -187 -35q-105 0 -208 28z" />
<glyph unicode="K" horiz-adv-x="1421" d="M66 2v86q0 31 30 37l114 23v1141q-96 19 -114 24q-30 6 -30 37v86h482v-86q0 -31 -31 -37q-91 -19 -114 -24v-482h73q67 0 103 42l401 454l-40 8t-31.5 6t-15.5 3q-28 6 -28 35v80h451l3 -76q0 -31 -30 -37q-17 -4 -93 -24l-426 -481q-44 -49 -78 -66q44 -13 93 -72 l453 -540q86 -17 101 -21l-1 3q30 -6 30 -37v-81h-470v80q0 29 28 35q12 2 92 18l-415 477q-27 29 -47.5 37.5t-64.5 8.5h-88v-510q33 -7 114 -24q31 -6 31 -37v-86h-482z" />
<glyph unicode="L" horiz-adv-x="1140" d="M67 0v86q0 14 9 24.5t22 12.5l114 23v1141q-96 19 -114 23q-13 2 -22 12.5t-9 24.5v86h482v-86q0 -14 -9 -24.5t-22 -12.5q-96 -17 -114 -23v-1124h517q10 109 11 115q3 15 15 24.5t27 9.5h97v-312h-1004z" />
<glyph unicode="M" horiz-adv-x="1908" d="M69 1v86q0 31 30 37l114 23v1141q-96 20 -114 24q-30 6 -30 37v86h287q30 0 42 -6t24 -26l495 -882q18 -29 45 -104q22 61 46 105l485 881q12 20 24 26t42 6h288v-86q0 -31 -31 -37q-32 -6 -61.5 -12t-40.5 -8l-12 -3v-1141q98 -20 114 -24q31 -6 31 -37v-86h-478v86 q0 31 29 37q36 8 134 23v907q0 49 4 93l-491 -896q-25 -45 -70 -45h-28q-45 0 -70 45l-498 892q5 -47 5 -88v-907q108 -18 135 -24t27 -37v-86h-477z" />
<glyph unicode="N" horiz-adv-x="1552" d="M68 -2v86q0 31 30 37l114 23v1141q-96 19 -114 24q-30 6 -30 37v86h244q28 0 39 -6t28 -26l830 -1080q-5 50 -5 96v869q-78 13 -133 23q-30 6 -30 37v86h478v-86q0 -31 -31 -37l-114 -23v-1287h-98q-40 0 -69 35l-829 1079q4 -45 4 -93v-875q102 -17 133 -23 q30 -6 30 -37v-86h-477z" />
<glyph unicode="O" horiz-adv-x="1509" d="M45 714q0 165 52 299t143 229q59 62 132.5 107t171.5 72t207 27t207 -27t172 -71.5t133 -106.5q91 -95 143 -229t52 -298l-1 -3q0 -111 -25 -211t-68 -177t-102 -139q-91 -95 -220.5 -150t-290.5 -55t-291 55t-220 150q-91 95 -143 229t-52 299zM241 713 q0 -198 77.5 -332t221.5 -193q94 -39 210 -39q182 0 301 88t171 239q36 105 36 237h-1q0 197 -77.5 331.5t-220.5 193.5q-95 39 -210 39q-182 0 -301 -88t-171 -239q-36 -105 -36 -237z" />
<glyph unicode="P" horiz-adv-x="1183" d="M68 -1v86q0 31 30 37l114 23v1141q-96 20 -114 24q-30 6 -30 37v86h540q138 0 237 -31l-1 1q297 -95 297 -414q0 -145 -69.5 -248.5t-188.5 -154t-275 -50.5h-203v-390l114 -24q30 -6 30 -37v-86h-481zM404 691h203q155 0 247.5 78t92.5 221l-1 1q0 145 -89 217.5 t-250 72.5h-203v-590z" />
<glyph unicode="Q" horiz-adv-x="1539" d="M45 714q0 165 52 299t143 229q59 62 132.5 107t171.5 72t207 27t207 -27t172 -71.5t133 -106.5q91 -95 143 -229t52 -298l1 -6q0 -298 -176 -503q-56 -65 -126 -111l368 -397h-160q-74 0 -115 46l-252 274q-120 -38 -247 -38q-161 0 -291 55t-220 150q-91 95 -143 229 t-52 299zM243 710q0 -198 77.5 -332t221.5 -193q94 -39 210 -39q182 0 301 88t171 239q36 105 36 237h-1q0 197 -77.5 331.5t-220.5 193.5q-95 39 -210 39q-182 0 -301 -88t-171 -239q-36 -105 -36 -237z" />
<glyph unicode="R" horiz-adv-x="1338" d="M66 2v86q0 14 9 24.5t22 12.5l114 23v1141q-96 19 -114 23q-9 1 -16 6.5t-11 13.5t-4 17v86h530q395 0 495 -233q31 -72 31 -165q0 -69 -18 -128.5t-50 -104t-77 -80t-96 -58.5t-111 -37q36 -21 64 -61l311 -423q7 -1 56 -11t55 -11l-2 1q13 -2 22 -12.5t9 -24.5v-86 h-208q-52 0 -78 41l-372 512q-17 25 -37 35t-59 10h-128v-452l25 -5q24 -5 52.5 -10.5t35.5 -6.5q13 -2 22 -12.5t9 -24.5v-86h-481zM402 740h182q122 0 205 43t119 126q22 51 22 115q0 257 -335 257h-193v-541z" />
<glyph unicode="S" horiz-adv-x="1013" d="M70 61v359h97q35 0 42 -34q2 -8 5.5 -54.5t6.5 -88.5t3 -43q147 -55 243 -55q87 0 142 17t98 56q77 71 77 189q0 114 -107 176q-49 29 -109 48q-187 57 -252 86q-101 44 -159 129.5t-58 208.5q0 161 115 273q122 121 320 121t402 -82v-329h-97q-35 0 -41 34q-2 6 -15 178 q-135 38 -236 38q-116 0 -191 -59t-75 -164t108 -167q46 -27 111 -49q186 -62 251 -91h-3q217 -97 217 -323q0 -205 -134 -328.5t-346 -123.5q-79 0 -186.5 18.5t-171.5 39.5z" />
<glyph unicode="T" horiz-adv-x="1258" d="M44 1116v317h1148l31 -1v-317h-97q-34 0 -39 21q-5 22 -18 133h-337v-1124l3 -1q3 0 9 -1.5t13 -2.5q21 -4 43.5 -8.5t35.5 -7t19 -3.5q21 -5 21 -36v-86h-483v86q0 31 33 39q14 3 110 22v1124h-338q-13 -111 -18 -133q-4 -21 -39 -21h-97z" />
<glyph unicode="U" horiz-adv-x="1499" d="M34 1347v86h501v-86q0 -31 -31 -37t-133 -23v-724q0 -183 102.5 -296t276.5 -113q175 0 276.5 112.5t101.5 295.5v725q-102 17 -132 23q-31 6 -31 37v86h356l142 -1v-86q0 -31 -31 -37l-114 -23v-725q0 -253 -152 -414q-158 -165 -418 -165t-417 165q-153 161 -153 414 v725q-96 20 -114 24q-30 6 -30 37z" />
<glyph unicode="V" horiz-adv-x="1559" d="M36 1345v86h476v-86q0 -31 -39 -39q-45 -9 -104 -21l365 -911q21 -50 48 -156q22 101 45 157l363 911q-96 20 -114 24q-30 6 -30 37v86l475 -3v-86q0 -31 -30 -37l-100 -23l-525 -1287h-175l-524 1287q-92 22 -101 24q-30 6 -30 37z" />
<glyph unicode="W" horiz-adv-x="2251" d="M37 1348v86h486v-86q0 -31 -30 -37q-108 -22 -114 -23l266 -896q14 -45 27 -123q18 89 30 123l337 996q7 19 25.5 33t41.5 14h56q50 0 66 -46l335 -996q19 -56 32 -120q2 13 6.5 38t8 44.5t8.5 35.5l267 896q-7 1 -113 23q-31 6 -31 37v86h390l84 -1v-86q0 -31 -30 -37 l-100 -23l-402 -1287h-174l-363 1093q-12 36 -20 72q-17 -66 -18 -71l-365 -1093h-174l-401 1287q-92 22 -101 24q-30 6 -30 37z" />
<glyph unicode="X" horiz-adv-x="1509" d="M61 -1v86q0 31 30 37q25 5 133 23l396 590l-374 551q-116 20 -132 24q-31 6 -31 37v86h511v-86q0 -31 -32 -37q-58 -11 -96 -19l299 -458q6 20 21 46l275 409q-3 1 -43.5 9t-70.5 14t-30 37v86h514v-86q0 -32 -25 -36q-26 -4 -138 -24l-374 -542l394 -599 q116 -19 132 -24l-1 -1q30 -6 30 -37v-86h-527v86q0 13 4 21t14 12.5t18.5 6.5t26.5 4.5t29 4.5q14 3 27.5 6t18.5 4l6 1l-314 492q-7 -20 -18 -40l-302 -452q1 0 7 -1.5t15.5 -3.5t22 -4.5t31 -6t38.5 -7.5q30 -6 30 -37v-86h-515z" />
<glyph unicode="Y" horiz-adv-x="1402" d="M39 1346v86h482v-86q0 -31 -31 -37q-109 -22 -113 -23l268 -456q31 -56 57 -126q27 75 57 127l268 456q-6 1 -114 23q-30 6 -30 37v86l482 -2v-86q0 -32 -25 -36q-26 -5 -105 -24l-437 -717v-424q31 -7 114 -23q30 -6 30 -37v-86h-481v86q0 31 30 37l114 23v424l-436 717 q-73 18 -102 24q-28 6 -28 37z" />
<glyph unicode="Z" horiz-adv-x="1215" d="M63 0v76q0 31 19 57l812 1142h-641q-10 -140 -14 -157q-7 -34 -42 -34h-97v349h1048v-72q0 -34 -21 -64l-811 -1139h666q10 142 14 157q7 34 42 34h97v-349h-1072z" />
<glyph unicode="[" horiz-adv-x="520" d="M110 1531h368v-70q0 -46 -49 -46h-169v-1587h169q23 0 36.5 -12.5t13.5 -34.5v-70h-368z" />
<glyph unicode="\" horiz-adv-x="844" d="M42 1473h77q66 0 94 -65l601 -1497h-75q-34 0 -61 19.5t-38 48.5z" />
<glyph unicode="]" horiz-adv-x="519" d="M41 -218q0 20 14.5 33.5t35.5 13.5h169v1587h-169q-21 0 -35 13t-14 34v70h368v-1822h-368v70z" />
<glyph unicode="^" horiz-adv-x="943" d="M56 787l358 646l112 1l358 -646h-129q-30 0 -49 34l-196 352q-18 30 -38 86q-14 -44 -36 -87l-194 -352q-19 -34 -50 -34h-136z" />
<glyph unicode="_" horiz-adv-x="1027" d="M118 -165h788v-120h-788v120z" />
<glyph unicode="`" horiz-adv-x="542" d="M73 1449h169q33 0 49 -9.5t30 -33.5l149 -242h-102q-37 0 -61 27z" />
<glyph unicode="a" horiz-adv-x="1027" d="M48 257q0 132 140 215q166 98 483 98v79q0 75 -20.5 128t-66 83t-114.5 30q-40 0 -74.5 -7t-67 -23t-51.5 -27.5t-51 -33.5q-23 -16 -46 -16q-35 0 -53 32l-32 57q81 78 175.5 119.5t221.5 41.5q170 0 261.5 -102.5t91.5 -279.5v-505q11 -2 34 -7t41 -9t24 -5l-1 2 q13 -2 22 -12.5t9 -24.5v-86h-208q-56 0 -63 41l-20 94q-42 -37 -71.5 -59.5t-73.5 -46.5t-95.5 -35.5t-113.5 -11.5q-130 0 -205.5 71t-75.5 200zM217 265q0 -74 44.5 -113t121.5 -39q50 0 92.5 10.5t77.5 31t60.5 42t55.5 52.5l-1 208q-230 0 -349 -56q-48 -23 -75 -54.5 t-27 -81.5z" />
<glyph unicode="b" horiz-adv-x="1130" d="M34 1386v86h337v-606q140 163 330 163q75 0 135.5 -22t103 -63t71 -92.5t46.5 -116.5q27 -96 27 -222l3 -1v-6q0 -180 -71.5 -306t-199.5 -181q-82 -35 -176 -35q-80 0 -192 14t-184 28l-71 14v1287q-108 18 -128 22q-13 2 -22 12.5t-9 24.5zM372 157q35 -9 107.5 -21 t130.5 -12h13q129 6 201 99l2 4q76 97 79 273v15q0 65 -7.5 119t-25.5 102t-47 81t-74.5 52t-104.5 19q-48 0 -89.5 -11.5t-74.5 -34.5t-58.5 -48t-51.5 -60v-577z" />
<glyph unicode="c" horiz-adv-x="906" d="M42 507q0 235 127 378.5t350 143.5q114 0 301 -74v-263h-81q-9 0 -15.5 2t-10.5 8t-6.5 11t-4 16t-2 18.5t-1 22.5t-1.5 25q-1 18 -2.5 35t-2 24t-0.5 8q-176 55 -295 0q-171 -79 -171 -354q0 -171 74.5 -277.5t220.5 -106.5q124 0 222 84q17 16 39 16q21 0 32 -17 l50 -65h-1q-128 -156 -375 -156q-138 0 -240.5 69.5t-154.5 187t-52 264.5z" />
<glyph unicode="d" horiz-adv-x="1129" d="M45 504q0 146 50.5 264.5t151.5 190.5t236 72l-1 1q168 0 277 -120v416q-81 13 -133 23q-31 6 -31 38v86h342v-1327q96 -20 114 -24q30 -6 30 -37v-86h-250q-38 0 -48 37l-16 123q-143 -174 -339 -174q-98 0 -173 39.5t-120 111t-67.5 163.5t-22.5 203zM228 503 q0 -287 148 -351q48 -21 110 -21l1 -1q157 0 273 153v490q-89 119 -234 119q-153 0 -225.5 -105t-72.5 -284z" />
<glyph unicode="e" horiz-adv-x="985" d="M41 527q0 170 74.5 288.5t202.5 174.5q88 39 198 39l-3 -1q147 0 244.5 -69.5t142.5 -188.5q32 -85 32 -192q0 -39 -7.5 -54.5t-35.5 -15.5h-674q1 -85 21 -153.5t58.5 -120t100 -79.5t142.5 -28q78 0 137.5 21.5t120.5 59.5q24 15 41 15q22 0 34 -17l50 -65 q-60 -74 -163.5 -115t-233.5 -41q-171 0 -283 84t-163 227q-36 100 -36 231zM223 616h551q0 97 -38.5 163t-109.5 97q-48 21 -109 21l1 1q-131 0 -204 -76t-91 -206z" />
<glyph unicode="f" horiz-adv-x="744" d="M58 919v73h160v98q0 169 91.5 266.5t256.5 97.5q66 0 126 -20l-4 -89q-1 -10 -5.5 -16.5t-15 -8.5t-18 -2.5t-24.5 -0.5h-30q-204 0 -204 -231v-93h293v-129h-287v-718q102 -17 133 -23q30 -6 30 -37v-86h-497v86q0 31 31 37l124 23v715l-112 13q-48 10 -48 45z" />
<glyph unicode="g" horiz-adv-x="1014" d="M21 -95q0 144 179 212q-45 20 -69.5 53.5t-24.5 88.5q0 106 129 174q-73 41 -116 109t-43 164q0 116 64 192t167 109q72 23 155 23l-4 -4q132 0 227 -58h275v-66q0 -33 -42 -42l-115 -16q34 -64 34 -144q0 -116 -63 -193t-164 -110q-71 -23 -152 -23q-69 0 -134 17 q-64 -40 -64 -87q0 -17 8 -31t19 -23t31 -15.5t35 -10t41.5 -5.5t40.5 -2.5t40 -1.5q61 -1 96 -3t91 -7.5t89.5 -15t73.5 -27t62 -42t37.5 -61.5t15.5 -84q0 -136 -127 -235q-133 -104 -349 -104q-149 0 -258.5 41.5t-157.5 126.5q-27 48 -27 101zM178 -79q0 -46 25.5 -79 t69.5 -50t91.5 -24t103.5 -7q217 0 285 107q21 33 21 73h2q0 22 -8.5 40t-21 30t-35 21t-39.5 14t-47.5 8.5t-47 5t-47.5 2.5q-10 1 -14 1q-155 9 -209 17q-129 -61 -129 -159zM240 694q0 -96 60 -149.5t160 -53.5v-2q104 0 163 53t59 152q0 97 -59.5 150t-162.5 53 q-67 0 -116.5 -23.5t-76.5 -69.5t-27 -110z" />
<glyph unicode="h" horiz-adv-x="1251" d="M49 1387v86h342v-596q143 152 326 152q163 0 251 -104.5t88 -279.5v-499q96 -20 114 -24q30 -6 30 -37v-86h-322v645q0 242 -213 242q-148 0 -274 -141v-600l25 -5q80 -15 89 -18q30 -6 30 -37v-86h-466v86q0 31 30 37l114 23v1181q-117 20 -134 24q-30 6 -30 37z" />
<glyph unicode="i" horiz-adv-x="579" d="M62 0v86q0 14 9 24.5t22 12.5l114 23v721q-96 19 -114 23q-13 2 -22 12.5t-9 24.5v86h322v-867q96 -19 114 -23q13 -2 22 -12.5t9 -24.5v-86h-467zM170 1330q0 55 36 92.5t90 37.5t90.5 -38t36.5 -92q0 -41 -22.5 -70.5t-55.5 -45.5q-21 -10 -48 -10q-50 0 -88 38h-1 q-38 38 -38 88z" />
<glyph unicode="j" horiz-adv-x="517" d="M9 -344l8 96q3 20 31 20h39q78 0 111 36t33 117v941q-9 2 -25 5t-41.5 8.5t-47.5 9.5q-30 6 -30 37v86h322v-1088q0 -202 -155 -267v1q-54 -22 -123 -22q-67 0 -122 20zM198 1330q0 55 36 92.5t90 37.5q42 0 72 -22.5t45 -57.5h-2q11 -25 11 -50q0 -41 -22.5 -70.5 t-55.5 -45.5q-21 -10 -48 -10q-41 0 -70.5 22.5t-45.5 55.5q-10 21 -10 48z" />
<glyph unicode="k" horiz-adv-x="1157" d="M64 0v86q0 31 30 37l114 23v1181q-96 19 -114 24q-30 6 -30 37v86h323v-867h46q37 0 62 28l228 245q-4 1 -16.5 2.5t-18 2.5t-15.5 3t-15 5t-10.5 7.5t-8 11t-2.5 15.5v86h422v-86q0 -32 -25 -36q-21 -4 -124 -24l-236 -251q-30 -38 -58 -54q34 -22 60 -63l281 -354 l52 -10q50 -10 62 -12l-1 1q31 -6 31 -37v-86h-189q-38 0 -67 35l-333 415q-15 20 -29 26.5t-46 6.5h-50v-338q2 0 114 -23q30 -6 30 -37v-86h-467z" />
<glyph unicode="l" horiz-adv-x="580" d="M65 0v86q0 31 30 37l114 23v1181q-96 19 -114 24q-30 6 -30 37v86h322v-1327q97 -19 114 -24q31 -6 31 -37v-86h-467z" />
<glyph unicode="m" horiz-adv-x="1781" d="M67 -1v86q0 31 30 37l114 23v721q-96 20 -114 24q-30 6 -30 37v86h250q38 0 48 -37l13 -104v-2q127 157 287 157q197 0 259 -211q35 91 117.5 151t191.5 60q177 0 264.5 -100t87.5 -284v-499q97 -20 114 -24q31 -6 31 -37v-86h-323v645q0 114 -50.5 178t-152.5 64 q-99 0 -158.5 -67.5t-59.5 -173.5v-499q5 -1 18.5 -3.5t41 -8.5t54.5 -11q30 -6 30 -37v-86h-322v645q0 242 -192 242q-124 0 -226 -132v-609q49 -9 113 -22q31 -6 31 -37v-86h-467z" />
<glyph unicode="n" horiz-adv-x="1251" d="M67 -1v86q0 31 30 37l114 23v721q-96 20 -114 24q-30 6 -30 37v86h250q38 0 48 -37l14 -110l1 1q148 163 336 163q163 0 250.5 -104.5t87.5 -279.5v-499q98 -19 114 -24q31 -6 31 -37v-86h-323v645q0 242 -213 242q-148 0 -274 -141v-600q7 -2 114 -24q31 -6 31 -37v-86 h-467z" />
<glyph unicode="o" horiz-adv-x="1056" d="M43 508q0 181 74.5 304.5t209.5 179.5q89 37 201 37q173 0 287 -82.5t163 -223.5q33 -96 33 -215q0 -183 -73.5 -306.5t-208.5 -177.5q-90 -36 -201 -36q-174 0 -287 81t-164 223q-34 95 -34 216zM229 505q0 -177 71.5 -278.5t227.5 -101.5v-1q153 0 225.5 102.5 t72.5 279.5t-72.5 280t-225.5 103q-80 0 -139 -28.5t-93.5 -81t-50.5 -120.5t-16 -154z" />
<glyph unicode="p" horiz-adv-x="1113" d="M29 -258q0 31 30 37l114 23v1064q-96 20 -114 24q-30 6 -30 37v86h250q38 0 48 -37l15 -120h1q144 175 341 175q79 0 143.5 -26.5t108.5 -73t74 -112t43.5 -142t13.5 -164.5q0 -229 -116 -375q-120 -152 -306 -152t-293 119v-302q5 -2 113 -24q30 -6 30 -37v-86h-466v86z M351 244q89 -120 234 -120q78 0 136 28.5t93 81.5t52 122.5t17 156.5q0 374 -258 374q-157 0 -273 -153v-490h-1z" />
<glyph unicode="q" horiz-adv-x="1110" d="M46 504v3q0 228 119.5 375.5t327.5 147.5q161 0 375 -42l72 -14v-1171q117 -19 129 -22q30 -6 30 -36v-87h-501v87q0 30 26 36t138 24v345h-2q-140 -162 -330 -162q-99 0 -174 39.5t-120 111t-67.5 163t-22.5 202.5zM229 504q0 -374 258 -374q157 0 273 153v577 q-132 33 -238 33h-12q-200 -7 -261 -219q-20 -69 -20 -117v-53z" />
<glyph unicode="r" horiz-adv-x="864" d="M68 -1v86q0 31 30 37l114 23v721q-96 20 -114 24q-30 6 -30 37v86h246q28 0 38.5 -10.5t15.5 -38.5l12 -158h2q111 225 308 225q78 0 139 -36l-23 -133q-7 -25 -27 -25q-19 0 -48 9t-81 9q-175 0 -260 -211v-499q7 -1 114 -23q30 -6 30 -37v-86h-466z" />
<glyph unicode="s" horiz-adv-x="821" d="M85 40v265h71q26 0 30 -25q1 -8 12 -128q84 -40 206 -40q83 0 145 41.5t62 110.5q0 54 -20 81.5t-62 49.5q-38 20 -85 33q-128 39 -186 65q-173 77 -173 242q0 139 108 216.5t271 77.5l-2 -2q103 0 264 -53v-260h-79q-29 0 -33 28q-2 4 -12 132q-92 21 -156 21h-2 q-74 -1 -132.5 -38.5t-58.5 -96.5q0 -51 23 -77q41 -47 115 -69q148 -44 221 -75q74 -31 120 -89t46 -139q0 -149 -104 -236.5t-262 -88.5q-164 -2 -327 54z" />
<glyph unicode="t" horiz-adv-x="726" d="M26 902v71l166 21l41 313q1 10 6 17.5t13.5 11.5t19.5 4h90v-349h290v-129h-290v-608q0 -60 29 -93.5t83 -33.5q52 0 111 42q11 8 18 8q13 0 24 -17l52 -85q-44 -41 -108 -66t-137 -25q-121 0 -184.5 67.5t-63.5 192.5v620h-122q-38 0 -38 38z" />
<glyph unicode="u" horiz-adv-x="1213" d="M29 927v86h322v-646q0 -115 52.5 -178t159.5 -63l1 -2q151 0 274 140v601q-15 4 -113 24q-31 6 -31 37v86h322v-867q98 -19 114 -24q31 -6 31 -37v-86h-251q-38 0 -48 37l-14 109q-146 -162 -336 -162q-163 0 -251 103.5t-88 280.5v500q-96 20 -114 24q-30 6 -30 37z" />
<glyph unicode="v" horiz-adv-x="1193" d="M30 926v86h454v-86q0 -31 -30 -37q-9 -2 -111 -22l215 -544q16 -44 36 -143q23 101 40 144l216 543q-4 1 -21 4.5t-41.5 8.5t-51.5 10q-30 6 -30 37v86h380l70 -2v-86q0 -31 -30 -37q-4 -1 -98 -20l-354 -870h-161l-355 870q-3 1 -18 4t-31 6.5t-31 6.5t-18 4 q-30 6 -30 37z" />
<glyph unicode="w" horiz-adv-x="1738" d="M29 927v86h452v-86q0 -31 -31 -37q-5 -1 -111 -22l162 -544q19 -92 27 -138q9 40 39 138l214 656q11 35 48 35h77q39 0 51 -35l209 -656q14 -45 36 -136q10 68 30 136l164 543q-8 1 -117 23q-31 6 -31 37v86l452 -3v-86q0 -12 -3.5 -20t-13 -12t-16 -6t-23.5 -4t-25 -4 q-45 -8 -49 -9l-281 -870h-141q-27 0 -36 34l-224 687q-5 12 -9 27t-8 37t-6 29q-3 -12 -6.5 -31t-7 -33.5t-8.5 -28.5l-227 -686q-10 -34 -41 -34h-134l-282 870l-100 20q-30 6 -30 37z" />
<glyph unicode="x" horiz-adv-x="1142" d="M68 -2v86q0 12 3.5 20t13 12t16 6t22.5 4.5t23 4.5q34 7 48 9l257 377l-241 350q-86 17 -105 21q-30 6 -30 37v86h397v-86q0 -10 -3 -16.5t-6 -10.5t-12 -7.5t-13 -4.5t-18.5 -3.5t-20.5 -3.5l179 -275q8 27 26 57l148 217q-7 2 -22.5 4t-24 4t-18.5 6.5t-14.5 13 t-4.5 20.5v86h397v-86q0 -31 -31 -37l-105 -20l-240 -340l260 -387l2 -1q65 -13 89 -18q36 -7 36 -39v-86h-398v86q0 12 3 19.5t13 12t16 6.5t23.5 4.5t25.5 3.5l-194 301q-7 -29 -21 -51l-169 -247q4 -1 14 -2t15 -2t13.5 -2.5t13 -3t11.5 -4t10.5 -6t7 -7.5t5 -9.5 t1.5 -12.5v-86h-398z" />
<glyph unicode="y" horiz-adv-x="1192" d="M28 928v86h454v-86q0 -31 -30 -37q-10 -3 -111 -22l225 -530q16 -40 27 -90q18 59 30 90l219 529q-27 6 -63.5 13t-45.5 9q-28 6 -28 37v86h376l71 1v-86q0 -12 -3.5 -20t-13 -12.5t-16.5 -6.5t-24 -4.5t-26 -4.5q-13 -3 -24.5 -5t-18.5 -3.5t-8 -1.5l-503 -1168 q-20 -44 -63 -44h-132l185 402l-356 813q-72 13 -91 18q-30 6 -30 37z" />
<glyph unicode="z" horiz-adv-x="923" d="M67 0v74q0 32 25 64l551 735h-433q-8 -104 -11 -122q-4 -25 -30 -25h-71v287h101l652 1v-76q0 -37 -25 -68l-548 -730h451q8 114 11 132q4 25 30 25h71v-297h-774z" />
<glyph unicode="{" horiz-adv-x="554" d="M43 564v107q65 0 101 39t36 106q0 72 -25 199t-25 200q0 151 88 233t243 82h53v-79q0 -16 -12 -27t-28 -11h-20q-77 0 -121.5 -52t-44.5 -135q0 -75 23 -205t23 -203q0 -52 -20 -94t-53 -67.5t-77 -37.5q67 -18 109 -69.5t42 -127.5q0 -73 -23 -203t-23 -205 q0 -85 44 -136t123 -51h20q16 0 28 -11t12 -27v-80h-53q-155 0 -243 83t-88 234q0 73 25 200t25 199l-2 -6q0 66 -36.5 105.5t-100.5 39.5z" />
<glyph unicode="|" horiz-adv-x="359" d="M111 -343v1876h138v-1876h-138z" />
<glyph unicode="}" horiz-adv-x="555" d="M40 -209q0 16 12 27t28 11h20q79 0 123 51.5t44 135.5q0 75 -23 205t-23 203q0 76 42 127.5t109 69.5q-44 12 -77 38t-53 68t-20 94q0 73 23 203t23 205q0 84 -44 136t-122 52h-20q-16 0 -28 11t-12 27v79h53q155 0 242 -82t87 -233q0 -73 -25 -200t-25 -199 q0 -67 36 -106t101 -39v-107q-65 0 -101 -39t-36 -104l-2 2q0 -72 25 -199t25 -200q0 -150 -87.5 -233.5t-241.5 -83.5h-53v80z" />
<glyph unicode="~" horiz-adv-x="1098" d="M85 412q0 104 41 176.5t115 105.5q52 23 116 23q35 0 76 -9.5t62.5 -17.5t63.5 -25q6 -2 37.5 -15.5t45.5 -19t40 -11.5t47 -6l-2 -2q65 0 101.5 42.5t37.5 112.5h144q0 -104 -41 -176.5t-115 -105.5q-50 -22 -115 -22q-35 0 -76 9.5t-62.5 17.5t-63.5 25q-8 3 -38 16 t-45 19t-40.5 12t-46.5 6q-66 0 -101.5 -42.5t-36.5 -112.5h-144z" />
<glyph unicode="&#xa1;" horiz-adv-x="400" d="M70 903q0 56 34 90t90 34q54 0 89 -35t35 -88q0 -52 -36 -88t-88 -36q-54 0 -88.5 35t-34.5 89zM115 198q0 135 26 362h121q26 -228 26 -362v-541h-169z" />
<glyph unicode="&#xa2;" horiz-adv-x="920" d="M56 508q0 234 124 374q110 128 294 144l12 179q2 21 15.5 36t34.5 15h66l-16 -231q106 -13 247 -71v-262h-80q-29 0 -33 28q-2 8 -13 141q-75 22 -130 26v-1l-52 -760v-3h42q89 0 191 85q18 15 39 15t32 -17l47 -62q-123 -152 -363 -156l-11 -172q-2 -19 -16 -33.5 t-33 -14.5h-66l15 230q-162 36 -254 173.5t-92 336.5zM238 511q0 -132 43 -225t129 -134q4 22 54 732q-110 -26 -168 -123.5t-58 -249.5z" />
<glyph unicode="&#xa3;" horiz-adv-x="1162" d="M50 669q0 27 17 44.5t44 17.5h134v261q0 156 65 261.5t182 156.5q82 36 192 36q271 0 385 -249l-72 -46q-21 -12 -42 -12q-29 0 -49 26q-24 32 -40.5 50t-44 39t-61.5 31t-76 10q-128 0 -191.5 -80t-63.5 -218v-263h441v-72q0 -19 -16 -33.5t-36 -14.5h-389v-243 q0 -76 -27.5 -128.5t-78.5 -99.5q70 11 116 11h676v-76q0 -32 -23 -55t-55 -23h-964v115q175 53 175 210v289h-195v58z" />
<glyph unicode="&#xa4;" horiz-adv-x="1017" d="M59 1025l91 90l151 -152q90 65 207 65q112 0 202 -62l153 153l89 -91l-151 -152q65 -90 65 -204q0 -109 -61 -202l152 -151l-91 -92l-152 152q-93 -64 -205 -64q-107 0 -202 62l-153 -153l-89 91l151 152q-64 93 -64 205l-2 -3q0 108 62 203zM281 669q0 -74 39 -126.5 t100 -79.5q40 -18 87 -18q75 0 128.5 38.5t80.5 98.5q18 40 18 87q0 74 -39 128t-99 80q-42 18 -88 18q-74 0 -127.5 -39.5t-80.5 -99.5q-18 -40 -18 -87h-1z" />
<glyph unicode="&#xa5;" horiz-adv-x="1145" d="M43 1430h149q43 0 67 -44l276 -566q32 -81 42 -120q19 71 39 123l275 566q20 44 66 44h150l-409 -808h307v-102h-340v-105h340v-103h-340v-315h-179v315h-340v103h340v105h-340v102l305 -3z" />
<glyph unicode="&#xa6;" horiz-adv-x="350" d="M107 -343v795h138v-795h-138zM107 739v794h138v-794h-138z" />
<glyph unicode="&#xa7;" horiz-adv-x="902" d="M54 697q0 90 48 149t131 90q-112 85 -112 218q0 102 58 169.5t150 100.5q68 24 153 24q194 0 318 -118l-40 -65l2 -4q-12 -22 -37 -22q-12 0 -25.5 5.5t-31 16t-23.5 13.5q-74 37 -155 37q-88 0 -147.5 -39.5t-59.5 -114.5q0 -40 23.5 -66.5t63.5 -51.5q19 -12 45.5 -25 t46.5 -21.5t53.5 -22.5t48.5 -20q45 -19 78 -36t69.5 -41t64 -53.5t45.5 -64.5q24 -47 24 -108q0 -173 -162 -245q52 -39 82 -87.5t30 -117.5q0 -116 -59 -191.5t-159 -110.5q-71 -25 -163 -25q-200 0 -338 124l41 68q16 28 49 28q18 0 38 -14q53 -36 103.5 -56t120.5 -20 q94 0 152 43t58 127q0 80 -91 137q-20 13 -48 26.5t-46 21t-56.5 22.5t-50.5 20q-50 20 -82 35t-70.5 38.5t-67 52t-47.5 63.5q-25 46 -25 111zM216 721q0 -28 10.5 -52t30.5 -42.5t38.5 -30.5t44.5 -26q38 -20 124.5 -57t123.5 -56q102 48 102 147q0 31 -12 57.5t-26.5 44 t-43 36t-45.5 27t-49 23.5q-3 1 -5 2t-4.5 2t-4.5 2q-18 8 -75.5 34t-87.5 40q-59 -27 -89.5 -60t-30.5 -90z" />
<glyph unicode="&#xa8;" horiz-adv-x="749" d="M84 1289q0 48 31.5 80.5t78.5 32.5q49 0 82 -32.5t33 -80.5h-1q0 -46 -33.5 -78t-80.5 -32q-46 0 -78 32t-32 78zM441 1289q0 48 32.5 80.5t80.5 32.5q49 0 81 -32.5t32 -80.5h-2q0 -46 -32.5 -78t-79.5 -32t-79.5 32t-32.5 78z" />
<glyph unicode="&#xa9;" horiz-adv-x="1586" d="M56 715q0 305 215 515q219 214 516 214t516 -214q215 -210 215 -515t-214 -514q-219 -214 -516 -214t-516 214q-214 209 -214 515zM154 712q0 -267 183 -455q181 -186 447 -186q138 0 252 51.5t197 135.5q83 85 134 201t51 254q0 269 -183 457q-184 189 -447 189 q-137 0 -251 -52t-197 -137t-133.5 -200.5t-50.5 -254.5zM358 719q0 156 75.5 264.5t200.5 157.5q84 33 182 33q190 0 317 -124l-46 -65q-13 -18 -32 -18q-13 0 -29 11q-87 61 -199 61q-146 0 -225 -86t-79 -237q0 -96 31.5 -167.5t96.5 -112.5t156 -41q114 0 180 44 q12 8 38 24h-5q18 11 26 11q13 0 23 -9q1 -2 2 -3l61 -64q-119 -138 -338 -138q-152 0 -255 75.5t-150 199.5q-31 83 -31 184z" />
<glyph unicode="&#xaa;" horiz-adv-x="666" d="M72 990q0 77 82 128q100 62 295 65v37q0 123 -115 123q-30 0 -58 -8.5t-40.5 -15t-40.5 -23.5q-15 -9 -31 -9q-13 0 -24 8t-15 18l-22 42q50 47 108.5 71t138.5 24q106 0 166 -61t60 -168v-381l-59 -3q-20 0 -28.5 6.5t-15.5 23.5l-12 49q-50 -43 -97 -66t-115 -23 q-82 0 -129.5 42t-47.5 121zM198 996q0 -75 91 -76q36 0 67 10.5t50 24.5t44 38v105q-131 -3 -196 -32q-56 -25 -56 -70z" />
<glyph unicode="&#xab;" horiz-adv-x="768" d="M63 542l249 389l58 -28q28 -16 28 -42q0 -17 -10 -33l-159 -261q-13 -23 -27 -37q14 -13 28 -36l159 -261q11 -18 11 -34q0 -29 -28 -42l-58 -28l-249 389zM357 543l249 389l58 -28q28 -16 28 -42q0 -17 -10 -33l-159 -261q-13 -23 -27 -37q14 -13 28 -36l159 -261 q11 -18 11 -34q0 -29 -28 -42l-58 -28l-249 389z" />
<glyph unicode="&#xac;" horiz-adv-x="1045" d="M87 604v135h860v-424h-151v289h-709z" />
<glyph unicode="&#xad;" horiz-adv-x="683" d="M95 524v151h494v-151h-494z" />
<glyph unicode="&#xae;" horiz-adv-x="1586" d="M61 715q0 305 215 515q219 214 516 214t516 -214q215 -210 215 -515t-214 -514q-219 -214 -516 -214t-516 214q-214 209 -214 515zM159 712q0 -267 183 -455q181 -186 447 -186q138 0 252 51.5t197 135.5q83 85 134 201t51 254q0 269 -183 457q-184 189 -447 189 q-137 0 -251 -52t-197 -137t-133.5 -200.5t-50.5 -254.5zM490 267v892h288q338 0 338 -247q0 -102 -57.5 -164.5t-156.5 -86.5q30 -19 52 -60l228 -334h-148q-33 0 -49 25l-201 302q-7 10 -14 16t-17.5 9t-27.5 3h-80l1 -355h-156zM646 735l112 1q47 0 82.5 8t63 25t42 48 t14.5 74q0 83 -44.5 115.5t-137.5 32.5h-132v-304z" />
<glyph unicode="&#xaf;" horiz-adv-x="755" d="M92 1231v117h574v-117h-574z" />
<glyph unicode="&#xb0;" horiz-adv-x="790" d="M66 1126q0 107 55 183.5t143 113.5q59 25 129 25q109 0 186.5 -54.5t115.5 -141.5q25 -57 25 -126q0 -106 -55.5 -182t-141.5 -113q-59 -25 -129 -25q-108 0 -185.5 55t-115.5 142q-25 57 -25 125zM193 1124q0 -66 33.5 -113.5t86.5 -69.5q36 -15 78 -15q45 0 82.5 16.5 t62 42.5t38.5 61q15 36 15 78q0 45 -16 83t-42.5 63.5t-61.5 39.5q-36 15 -78 15q-88 0 -143 -56t-55 -144v-1z" />
<glyph unicode="&#xb1;" horiz-adv-x="1091" d="M69 80v135h958v-135h-958zM69 690v136h405v376h146v-376h407v-136h-407v-368h-146v368h-405z" />
<glyph unicode="&#xb2;" horiz-adv-x="653" d="M68 900v43q0 32 22 54l221 219q120 120 120 210q0 48 -29 76.5t-76 28.5q-87 0 -117 -90q-16 -30 -44 -30q-4 0 -18 2l-71 12q14 101 80.5 156.5t175.5 55.5q101 0 165.5 -56t64.5 -152q0 -100 -94 -200q-36 -38 -57 -59l-160 -163q54 13 88 13h155q1 7 1.5 16.5t0.5 15 t1 12.5t2 11t3 8t5 6t7 3.5t10 1.5h55v-194h-511z" />
<glyph unicode="&#xb3;" horiz-adv-x="630" d="M51 1088l55 24q15 6 29 6q13 0 22 -6t12.5 -10.5t10.5 -19t9 -17.5q34 -62 113 -62q36 0 64.5 13.5t45.5 39t17 59.5t-12 57.5t-36 35.5t-52.5 16.5t-67.5 4.5v87q77 1 118 26.5t41 86.5q0 48 -28.5 74.5t-77.5 26.5q-90 0 -116 -88q-7 -16 -15 -23.5t-25 -7.5h-9 q-3 0 -9 2l-67 12q14 98 79.5 155t171.5 57l-8 7q75 0 129.5 -31t79.5 -84q16 -33 16 -75q0 -128 -119 -173q42 -12 70.5 -30.5t47 -51t18.5 -77.5q0 -81 -43 -134t-113 -76q-45 -15 -93 -15q-111 0 -169 47.5t-89 143.5z" />
<glyph unicode="&#xb4;" horiz-adv-x="540" d="M72 1163l148 242q14 23 30.5 33.5t47.5 10.5h174l-233 -259q-24 -27 -61 -27h-106z" />
<glyph unicode="&#xb5;" horiz-adv-x="1049" d="M107 -267v1280h178l-1 -660q0 -109 54 -169t159 -60q150 0 274 140v747h178v-1013h-106q-38 0 -48 37l-14 109q-64 -69 -131.5 -104.5t-163.5 -35.5q-142 0 -224 98q13 -73 13 -166v-279h-89q-37 0 -58 20t-21 56z" />
<glyph unicode="&#xb6;" horiz-adv-x="1359" d="M53 1049q0 137 72 226t191 130q81 28 186 28h810l-1 -152h-219v-1481h-157v1481h-277v-1481h-157v861q-152 0 -260 63t-157 173q-31 69 -31 152z" />
<glyph unicode="&#xb7;" horiz-adv-x="478" d="M90 593q0 51 26 86.5t67 53.5q27 12 57 12q66 0 109 -43t43 -109q0 -64 -43.5 -107t-108.5 -43q-48 0 -84 26.5t-54 66.5q-12 27 -12 57z" />
<glyph unicode="&#xb8;" horiz-adv-x="528" d="M81 -320l17 55q6 18 23 18l3 -6q12 0 30.5 -8.5t28.5 -10.5q16 -3 37 -3q37 0 60.5 15t23.5 44q0 15 -6 27t-19.5 20t-25.5 13.5t-33 9.5t-32.5 5.5t-33.5 4.5q-7 1 -11 1l43 141h112l-24 -80q39 -8 66 -18t53 -26t39.5 -40.5t13.5 -57.5q0 -37 -19 -64.5t-51 -42.5 t-69 -22t-79 -7q-72 0 -147 32z" />
<glyph unicode="&#xb9;" horiz-adv-x="566" d="M54 1441l222 190h108v-646h130v-85h-407v85h147v440l4 43l-107 -88q-12 -9 -26 -9q-23 0 -32 14z" />
<glyph unicode="&#xba;" horiz-adv-x="759" d="M69 1140q0 144 83 226.5t228 82.5l-1 -2q109 0 181.5 -47.5t105.5 -131.5q22 -56 22 -128q0 -146 -82 -229t-227 -83q-110 0 -182.5 48t-105.5 134q-22 57 -22 130zM208 1137q0 -205 171 -205q168 0 168 205t-168 205q-171 0 -171 -205z" />
<glyph unicode="&#xbb;" horiz-adv-x="772" d="M77 200q0 17 10 33l159 261q14 24 27 36q-12 10 -27 36l-159 261q-10 16 -10 33q0 29 28 42l58 28l249 -389v-23l-249 -389l-58 29q-28 13 -28 42zM373 201q0 17 10 33l159 261q14 24 27 36q-12 11 -27 36l-159 261q-10 16 -10 33q0 29 28 42l58 28l249 -389v-22 l-249 -389l-58 28q-28 13 -28 42z" />
<glyph unicode="&#xbc;" horiz-adv-x="1381" d="M40 1243l222 190h108v-646h130v-85h-407v85h147v440l4 43l-107 -88q-12 -9 -26 -9q-23 0 -32 14zM205 -2l818 1372q39 61 95 61h77l-823 -1380h2q-17 -28 -38 -40.5t-55 -12.5h-76zM767 261l342 468h124v-462l109 -1v-65q0 -12 -7.5 -18.5t-20.5 -6.5h-82v-176h-109v176 h-306q-16 0 -27 7.5t-13 20.5zM888 266h236v240q0 49 5 87z" />
<glyph unicode="&#xbd;" horiz-adv-x="1371" d="M39 1245l222 190h108v-646h130v-85h-407v85h146v440l4 43l-107 -88q-12 -9 -30 -9t-27 14zM158 1l818 1372q37 61 96 61h77l-823 -1380q-32 -53 -92 -53h-76zM800 0v43q0 32 22 54l221 219q120 120 120 210q0 49 -29 77t-77 28q-86 0 -116 -90q-16 -30 -44 -30 q-4 0 -18 2l-71 12q14 101 80.5 156.5t175.5 55.5q101 0 165.5 -56t64.5 -152q0 -100 -94 -200q-36 -38 -57 -59l-160 -163q54 13 88 13h155q1 8 1.5 19t1 16.5t1.5 13t2.5 11.5t4.5 7.5t7.5 5t11.5 1.5h55v-194h-511z" />
<glyph unicode="&#xbe;" horiz-adv-x="1424" d="M45 890l55 24q15 6 29 6q13 0 22 -6t12.5 -10.5t10.5 -19t9 -17.5q34 -62 113 -62q36 0 64.5 13.5t45.5 39t17 59.5q0 28 -8.5 48.5t-22.5 33t-36 20t-46 10t-55 2.5v87q77 1 118 26.5t41 86.5q0 48 -28.5 74.5t-77.5 26.5q-90 0 -116 -88q-7 -16 -15 -23.5t-25 -7.5h-9 q-3 0 -9 2l-67 12q14 98 79.5 155t171.5 57l-8 7q75 0 129.5 -31t79.5 -84q16 -33 16 -75q0 -128 -119 -173q31 -9 54.5 -21.5t42.5 -31.5t29 -45.5t10 -60.5q0 -81 -43 -134t-113 -76q-45 -15 -93 -15q-111 0 -169 47.5t-89 143.5zM244 5l818 1372q39 61 95 61h77 l-823 -1380h2q-17 -28 -38 -40.5t-55 -12.5h-76zM810 261l342 468h124v-462l109 -1v-65q0 -8 -3.5 -13.5t-10 -8.5t-14.5 -3h-82v-176h-109v176h-306q-16 0 -27 7.5t-13 20.5zM923 273h236v240q0 49 5 87z" />
<glyph unicode="&#xbf;" horiz-adv-x="828" d="M55 -34q0 100 41.5 168t113.5 116q9 6 24 15.5t25 16.5t23.5 16t23.5 16.5t21.5 16.5t20.5 18q25 24 30 57l18 154h122l12 -167v-12q0 -44 -21 -74.5t-58 -57.5q-15 -11 -69 -46t-85 -62.5t-51 -64.5q-22 -40 -22 -99t28.5 -101.5t76.5 -64t109 -21.5q123 0 228 81 q19 15 31 15q23 0 39 -23l46 -74q-156 -141 -357 -141q-123 0 -211.5 49t-130.5 135q-28 57 -28 134zM337 904q0 53 34.5 88.5t87.5 35.5t87.5 -35.5t34.5 -88.5q0 -54 -34 -88.5t-88 -34.5t-88 34t-34 89zM782 -211l1 1v-2z" />
<glyph unicode="&#xc0;" d="M50 0v79q0 27 26 33l80 24l519 1297h197l518 -1297l80 -24q26 -6 26 -33v-79h-411v79q0 27 27 34l82 23l-112 289h-618l-112 -289l82 -23q27 -8 27 -34v-79h-411zM411 1782h201q34 0 49 -6t35 -26l211 -203h-139q-24 0 -35 3.5t-27 14.5zM518 565h510l-212 550 q-21 51 -43 135q-24 -87 -42 -136z" />
<glyph unicode="&#xc1;" d="M50 0v79q0 27 26 33l80 24l519 1297h197l518 -1297l80 -24q26 -6 26 -33v-79h-411v79q0 27 27 34l82 23l-112 289h-618l-112 -289l82 -23q27 -8 27 -34v-79h-411zM518 565h510l-212 550q-21 51 -43 135q-24 -87 -42 -136zM617 1545l211 203q18 18 36.5 26t47.5 8h201 l-294 -217q-27 -20 -64 -20h-138z" />
<glyph unicode="&#xc2;" d="M50 0v79q0 27 26 33l80 24l519 1297h197l518 -1297l80 -24q26 -6 26 -33v-79h-411v79q0 27 27 34l82 23l-112 289h-618l-112 -289l82 -23q27 -8 27 -34v-79h-411zM446 1546l238 210h176l238 -210l-135 -1q-31 0 -49 12l-130 95q-8 4 -12 9q-9 -7 -12 -8l-130 -95 q-18 -12 -49 -12h-135zM518 565h510l-212 550q-21 51 -43 135q-24 -87 -42 -136z" />
<glyph unicode="&#xc3;" d="M50 0v79q0 27 26 33l80 24l519 1297h197l518 -1297l80 -24q26 -6 26 -33v-79h-411v79q0 27 27 34l82 23l-112 289h-618l-112 -289l82 -23q27 -8 27 -34v-79h-411zM494 1547q0 88 44 143t125 55q48 0 126 -41q5 -2 22.5 -12.5t27 -14.5t25 -9t29.5 -5v-2q70 0 73 79h98 q0 -89 -43 -144t-124 -55q-12 0 -25 2t-22 4.5t-23 8.5t-19 8t-20.5 10t-17.5 9q-8 4 -23.5 13t-26 14.5t-26 10t-29.5 4.5q-68 0 -71 -78h-100zM518 565h510l-212 550q-21 51 -43 135q-24 -87 -42 -136z" />
<glyph unicode="&#xc4;" d="M50 0v79q0 27 26 33l80 24l519 1297h197l518 -1297l80 -24q26 -6 26 -33v-79h-411v79q0 27 27 34l82 23l-112 289h-618l-112 -289l82 -23q27 -8 27 -34v-79h-411zM448 1665q0 47 31.5 80t77.5 33q48 0 80.5 -32t32.5 -80l-3 -2q0 -46 -32.5 -77.5t-79.5 -31.5 q-44 0 -75.5 32.5t-31.5 77.5zM518 565h510l-212 550q-21 51 -43 135q-24 -87 -42 -136zM873 1663q0 48 31.5 80.5t78.5 32.5q46 0 78 -32.5t32 -79.5v-2q0 -46 -32 -77.5t-78 -31.5t-78 32t-32 78z" />
<glyph unicode="&#xc5;" d="M50 0v79q0 27 26 33l80 24l519 1297h197l518 -1297l80 -24q26 -6 26 -33v-79h-411v79q0 27 27 34l82 23l-112 289h-618l-112 -289l82 -23q27 -8 27 -34v-79h-411zM518 565h510l-212 550q-21 51 -43 135q-24 -87 -42 -136zM580 1659q0 79 53.5 129t134.5 50 q63 0 109 -29.5t68 -77.5q15 -33 15 -72q0 -113 -118 -159q-33 -13 -73 -13q-60 0 -105.5 29t-67.5 74q-15 32 -15 69h-1zM669 1658q0 -45 28 -72.5t73 -27.5q44 0 71.5 28.5t27.5 72.5q0 45 -27 73t-72 28q-46 0 -73.5 -27.5t-27.5 -73.5v-1z" />
<glyph unicode="&#xc6;" horiz-adv-x="1942" d="M50 80q0 27 26 33v1l80 23l615 1165q-2 0 -5 1q-17 2 -25.5 4t-20.5 6.5t-17 13t-5 21.5v86h1165v-345h-97q-35 0 -42 34q-2 15 -14 153h-597l60 -476h529v-152h-510l61 -489h458q10 133 12 142q7 34 42 34h97v-334h-916v86q0 12 3 19.5t12 12t15 6t23 4.5t24 4 q38 7 50 9l-31 250h-556l-132 -256l81 -23q28 -7 28 -34v-79h-412v79zM558 533h465l-94 753q-18 -58 -55 -141z" />
<glyph unicode="&#xc7;" horiz-adv-x="1270" d="M45 716q0 324 200 529q199 204 530 204q171 0 443 -103v-334h-97q-11 0 -19.5 2.5t-13.5 9t-8 13t-4.5 19.5t-2 22.5t-1.5 28t-2 30.5q-7 87 -7 90q-448 142 -675 -98q-146 -155 -146 -413q0 -160 58.5 -287.5t173 -202.5t266.5 -75q124 0 189 24q98 36 177 106 q16 15 33 15t30 -13l76 -83q-175 -205 -479 -216l-15 -55q91 -20 131 -54q41 -35 41 -78q0 -42 -15 -67.5t-46 -44.5q-58 -37 -156 -37q-78 0 -146 31l17 55q6 18 23 18q9 0 32 -10q28 -12 67 -12q34 0 57.5 15t23.5 41q0 40 -43 58q-35 16 -118 26l36 118q-259 22 -423 200 q-187 202 -187 528z" />
<glyph unicode="&#xc8;" horiz-adv-x="1173" d="M67 -1v86q0 31 30 37l114 23v1141q-96 20 -114 24q-30 6 -30 37v86l1028 -1v-346h-96q-34 0 -42 35q-3 15 -14 153h-536v-476h528v-152h-528v-489h537q10 133 12 142q7 34 42 34h96v-334h-1027zM305 1781h201q34 0 49 -6t35 -26l211 -203h-139q-24 0 -35 3.5t-27 14.5z " />
<glyph unicode="&#xc9;" horiz-adv-x="1173" d="M67 -1v86q0 31 30 37l114 23v1141q-96 20 -114 24q-30 6 -30 37v86l1028 -1v-346h-96q-34 0 -42 35q-3 15 -14 153h-536v-476h528v-152h-528v-489h537q10 133 12 142q7 34 42 34h96v-334h-1027zM511 1544l211 203q18 18 36.5 26t47.5 8h201l-294 -217q-27 -20 -64 -20 h-138z" />
<glyph unicode="&#xca;" horiz-adv-x="1173" d="M67 -1v86q0 31 30 37l114 23v1141q-96 20 -114 24q-30 6 -30 37v86l1028 -1v-346h-96q-34 0 -42 35q-3 15 -14 153h-536v-476h528v-152h-528v-489h537q10 133 12 142q7 34 42 34h96v-334h-1027zM340 1545l238 210h176l238 -210l-135 -1q-31 0 -49 12l-130 95q-8 5 -12 9 q-9 -7 -12 -8l-130 -95q-18 -12 -49 -12h-135z" />
<glyph unicode="&#xcb;" horiz-adv-x="1173" d="M67 -1v86q0 31 30 37l114 23v1141q-96 20 -114 24q-30 6 -30 37v86l1028 -1v-346h-96q-34 0 -42 35q-3 15 -14 153h-536v-476h528v-152h-528v-489h537q10 133 12 142q7 34 42 34h96v-334h-1027zM342 1664q0 47 31.5 80t77.5 33q48 0 80.5 -32t32.5 -80l-3 -2 q0 -46 -32.5 -77.5t-79.5 -31.5q-44 0 -75.5 32.5t-31.5 77.5zM767 1662q0 48 31.5 80.5t78.5 32.5q46 0 78 -32.5t32 -79.5v-2q0 -46 -32 -77.5t-78 -31.5t-78 32t-32 78z" />
<glyph unicode="&#xcc;" horiz-adv-x="673" d="M11 1782h201q34 0 49 -6t35 -26l211 -203h-139q-24 0 -35 3.5t-27 14.5zM129 0v86q0 31 30 37l114 23v1141q-96 19 -120 24t-24 36v86h483v-86q0 -31 -31 -37l-114 -23v-1141q105 -21 121 -24q24 -4 24 -36v-86h-483z" />
<glyph unicode="&#xcd;" horiz-adv-x="660" d="M67 0v86q0 31 30 37l114 23v1141q-96 19 -120 24t-24 36v86h483v-86q0 -31 -31 -37l-114 -23v-1141q105 -21 121 -24q24 -4 24 -36v-86h-483zM155 1545l211 203q12 12 22.5 18.5t26 11t35.5 4.5h201l-294 -217q-27 -20 -64 -20h-138z" />
<glyph unicode="&#xce;" horiz-adv-x="670" d="M10 1546l238 210h176l238 -210l-135 -1q-31 0 -49 12l-130 95q-8 4 -12 9q-9 -7 -12 -8l-130 -95q-18 -12 -49 -12h-135zM93 0v86q0 31 30 37l114 23v1141q-96 19 -120 24t-24 36v86h483v-86q0 -31 -31 -37l-114 -23v-1141q105 -21 121 -24q24 -4 24 -36v-86h-483z" />
<glyph unicode="&#xcf;" horiz-adv-x="666" d="M9 1665q0 47 31.5 80t77.5 33q48 0 80.5 -32t32.5 -80l-3 -2q0 -46 -32.5 -77.5t-79.5 -31.5q-44 0 -75.5 32.5t-31.5 77.5zM91 0v86q0 31 30 37l114 23v1141q-96 19 -120 24t-24 36v86h483v-86q0 -31 -31 -37l-114 -23v-1141q105 -21 121 -24q24 -4 24 -36v-86h-483z M434 1663q0 48 31.5 80.5t78.5 32.5q46 0 78 -32.5t32 -79.5v-2q0 -46 -32 -77.5t-78 -31.5t-78 32t-32 78z" />
<glyph unicode="&#xd0;" horiz-adv-x="1486" d="M17 666v114h196v507q-96 19 -114 22q-13 2 -22 12.5t-9 24.5v86h661q125 0 232 -31t187.5 -87.5t139.5 -133t96 -171.5q51 -132 51 -293q0 -164 -52 -295t-143 -224q-194 -197 -511 -197h-661v86q0 14 9 24.5t22 12.5l114 23v520h-196zM406 156h322q183 0 301 86.5 t171 236.5q36 104 36 236q0 196 -77.5 330.5t-220.5 191.5q-96 38 -210 38h-322v-496h381v-114h-381v-509z" />
<glyph unicode="&#xd1;" horiz-adv-x="1550" d="M67 -2v86q0 31 30 37l114 23v1141q-96 19 -114 24q-30 6 -30 37v86h244q28 0 39 -6t28 -26l830 -1080q-5 50 -5 96v869q-78 13 -133 23q-30 6 -30 37v86h478v-86q0 -31 -31 -37l-114 -23v-1287h-98q-40 0 -69 35l-829 1079q4 -45 4 -93v-875q102 -17 133 -23 q30 -6 30 -37v-86h-477zM539 1544q0 88 44 143t125 55q48 0 126 -41q5 -2 22.5 -12.5t27 -14.5t25 -9t29.5 -5v-2q70 0 73 79h98q0 -89 -43 -144t-124 -55q-12 0 -25 2t-22 4.5t-23 8.5t-19 8t-20.5 10t-17.5 9q-8 4 -23.5 13t-26 14.5t-26 10t-29.5 4.5q-68 0 -71 -78h-100 z" />
<glyph unicode="&#xd2;" horiz-adv-x="1508" d="M45 714q0 165 52 299t143 229q59 62 132.5 107t171.5 72t207 27t207 -27t172 -71.5t133 -106.5q91 -95 143 -229t52 -298l-1 -3q0 -111 -25 -211t-68 -177t-102 -139q-91 -95 -220.5 -150t-290.5 -55t-291 55t-220 150q-91 95 -143 229t-52 299zM241 713 q0 -198 77.5 -332t221.5 -193q94 -39 210 -39q182 0 301 88t171 239q36 105 36 237h-1q0 197 -77.5 331.5t-220.5 193.5q-95 39 -210 39q-182 0 -301 -88t-171 -239q-36 -105 -36 -237zM390 1779h201q34 0 49 -6t35 -26l211 -203h-139q-24 0 -35 3.5t-27 14.5z" />
<glyph unicode="&#xd3;" horiz-adv-x="1508" d="M45 714q0 165 52 299t143 229q59 62 132.5 107t171.5 72t207 27t207 -27t172 -71.5t133 -106.5q91 -95 143 -229t52 -298l-1 -3q0 -111 -25 -211t-68 -177t-102 -139q-91 -95 -220.5 -150t-290.5 -55t-291 55t-220 150q-91 95 -143 229t-52 299zM241 713 q0 -198 77.5 -332t221.5 -193q94 -39 210 -39q182 0 301 88t171 239q36 105 36 237h-1q0 197 -77.5 331.5t-220.5 193.5q-95 39 -210 39q-182 0 -301 -88t-171 -239q-36 -105 -36 -237zM596 1542l211 203q18 18 36.5 26t47.5 8h201l-294 -217q-16 -12 -28.5 -16t-35.5 -4 h-138z" />
<glyph unicode="&#xd4;" horiz-adv-x="1508" d="M45 714q0 165 52 299t143 229q59 62 132.5 107t171.5 72t207 27t207 -27t172 -71.5t133 -106.5q91 -95 143 -229t52 -298l-1 -3q0 -111 -25 -211t-68 -177t-102 -139q-91 -95 -220.5 -150t-290.5 -55t-291 55t-220 150q-91 95 -143 229t-52 299zM241 713 q0 -198 77.5 -332t221.5 -193q94 -39 210 -39q182 0 301 88t171 239q36 105 36 237h-1q0 197 -77.5 331.5t-220.5 193.5q-95 39 -210 39q-182 0 -301 -88t-171 -239q-36 -105 -36 -237zM425 1543l238 210h176l238 -210l-135 -1q-31 0 -49 12l-130 95q-8 5 -12 9 q-9 -7 -12 -8l-130 -95q-18 -12 -49 -12h-135z" />
<glyph unicode="&#xd5;" horiz-adv-x="1508" d="M45 714q0 165 52 299t143 229q59 62 132.5 107t171.5 72t207 27t207 -27t172 -71.5t133 -106.5q91 -95 143 -229t52 -298l-1 -3q0 -111 -25 -211t-68 -177t-102 -139q-91 -95 -220.5 -150t-290.5 -55t-291 55t-220 150q-91 95 -143 229t-52 299zM241 713 q0 -198 77.5 -332t221.5 -193q94 -39 210 -39q182 0 301 88t171 239q36 105 36 237h-1q0 197 -77.5 331.5t-220.5 193.5q-95 39 -210 39q-182 0 -301 -88t-171 -239q-36 -105 -36 -237zM473 1544q0 88 44 143t125 55q23 0 48.5 -7.5t39 -14t38.5 -19.5q5 -2 22.5 -12.5 t27 -14.5t25 -9t29.5 -5v-2q35 0 53.5 21t19.5 58h98q0 -89 -43 -144t-124 -55q-12 0 -25 2t-22 4.5t-23 8.5t-19 8t-20.5 10t-17.5 9q-8 4 -23.5 13t-26 14.5t-26 10t-29.5 4.5q-23 0 -39 -10t-23.5 -27t-8.5 -41h-100z" />
<glyph unicode="&#xd6;" horiz-adv-x="1508" d="M45 714q0 165 52 299t143 229q59 62 132.5 107t171.5 72t207 27t207 -27t172 -71.5t133 -106.5q91 -95 143 -229t52 -298l-1 -3q0 -111 -25 -211t-68 -177t-102 -139q-91 -95 -220.5 -150t-290.5 -55t-291 55t-220 150q-91 95 -143 229t-52 299zM241 713 q0 -198 77.5 -332t221.5 -193q94 -39 210 -39q182 0 301 88t171 239q36 105 36 237h-1q0 197 -77.5 331.5t-220.5 193.5q-95 39 -210 39q-182 0 -301 -88t-171 -239q-36 -105 -36 -237zM427 1662q0 47 31.5 80t77.5 33q48 0 80.5 -32t32.5 -80l-3 -2q0 -46 -32.5 -77.5 t-79.5 -31.5q-44 0 -75.5 32.5t-31.5 77.5zM852 1660q0 48 31.5 80.5t78.5 32.5q46 0 78 -32.5t32 -79.5v-2q0 -46 -32 -77.5t-78 -31.5t-78 32t-32 78z" />
<glyph unicode="&#xd7;" horiz-adv-x="967" d="M33 315l356 356l-345 345l95 96l345 -346l344 344l96 -96l-344 -344l354 -353l-95 -96l-354 354l-357 -356z" />
<glyph unicode="&#xd8;" horiz-adv-x="1508" d="M44 714q0 165 52 299t143 229q91 96 220 151t291 55q228 0 399 -112l82 111q15 20 22 28t23 15.5t39 7.5h100l-172 -235q101 -95 158 -233.5t57 -313.5h-2q0 -164 -52 -298t-143 -229t-220.5 -150t-290.5 -55q-217 0 -376 96l-100 -136q-43 -55 -108 -55h-78l191 260 q-110 95 -172.5 238.5t-62.5 326.5zM240 715q0 -264 145 -418l659 899q-120 84 -295 84q-182 0 -301 -88t-171 -239q-36 -105 -36 -237zM476 221q115 -70 272 -70q182 0 301 88t171 239q36 105 36 237l1 -2q0 249 -126 400z" />
<glyph unicode="&#xd9;" horiz-adv-x="1498" d="M33 1347v86h501v-86q0 -31 -31 -37t-133 -23v-724q0 -183 102.5 -296t276.5 -113q175 0 276.5 112.5t101.5 295.5v725q-102 17 -132 23q-31 6 -31 37v86h356l142 -1v-86q0 -31 -31 -37l-114 -23v-725q0 -253 -152 -414q-157 -165 -418 -165q-259 0 -417 165 q-153 161 -153 414v725q-96 20 -114 24q-30 6 -30 37zM385 1781h201q34 0 49 -6t35 -26l211 -203h-139q-24 0 -35 3.5t-27 14.5z" />
<glyph unicode="&#xda;" horiz-adv-x="1498" d="M33 1347v86h501v-86q0 -31 -31 -37t-133 -23v-724q0 -183 102.5 -296t276.5 -113q175 0 276.5 112.5t101.5 295.5v725q-102 17 -132 23q-31 6 -31 37v86h356l142 -1v-86q0 -31 -31 -37l-114 -23v-725q0 -253 -152 -414q-157 -165 -418 -165q-259 0 -417 165 q-153 161 -153 414v725q-96 20 -114 24q-30 6 -30 37zM591 1544l211 203q18 18 36.5 26t47.5 8h201l-294 -217q-27 -20 -64 -20h-138z" />
<glyph unicode="&#xdb;" horiz-adv-x="1498" d="M33 1347v86h501v-86q0 -31 -31 -37t-133 -23v-724q0 -183 102.5 -296t276.5 -113q175 0 276.5 112.5t101.5 295.5v725q-102 17 -132 23q-31 6 -31 37v86h356l142 -1v-86q0 -31 -31 -37l-114 -23v-725q0 -253 -152 -414q-157 -165 -418 -165q-259 0 -417 165 q-153 161 -153 414v725q-96 20 -114 24q-30 6 -30 37zM420 1545l238 210h176l238 -210l-135 -1q-31 0 -49 12l-130 95q-8 5 -12 9q-9 -7 -12 -8l-130 -95q-18 -12 -49 -12h-135z" />
<glyph unicode="&#xdc;" horiz-adv-x="1498" d="M33 1347v86h501v-86q0 -31 -31 -37t-133 -23v-724q0 -183 102.5 -296t276.5 -113q175 0 276.5 112.5t101.5 295.5v725q-102 17 -132 23q-31 6 -31 37v86h356l142 -1v-86q0 -31 -31 -37l-114 -23v-725q0 -253 -152 -414q-157 -165 -418 -165q-259 0 -417 165 q-153 161 -153 414v725q-96 20 -114 24q-30 6 -30 37zM422 1664q0 47 31.5 80t77.5 33q48 0 80.5 -32t32.5 -80l-3 -2q0 -46 -32.5 -77.5t-79.5 -31.5q-44 0 -75.5 32.5t-31.5 77.5zM847 1662q0 48 31.5 80.5t78.5 32.5q46 0 78 -32.5t32 -79.5v-2q0 -46 -32 -77.5 t-78 -31.5t-78 32t-32 78z" />
<glyph unicode="&#xdd;" horiz-adv-x="1401" d="M39 1346v86h482v-86q0 -31 -31 -37q-109 -22 -113 -23l268 -456q31 -56 57 -126q27 75 57 127l268 456q-6 1 -114 23q-30 6 -30 37v86l482 -2v-86q0 -32 -25 -36q-26 -5 -105 -24l-437 -717v-424q31 -7 114 -23q30 -6 30 -37v-86h-481v86q0 31 30 37l114 23v424l-436 717 q-73 18 -102 24q-28 6 -28 37zM546 1543l211 203q18 18 36.5 26t47.5 8h201l-294 -217q-27 -20 -64 -20h-138z" />
<glyph unicode="&#xde;" horiz-adv-x="1111" d="M106 0v1433h193v-264h230q398 0 503 -262q33 -82 33 -183q0 -164 -82 -268.5t-223 -150.5q-100 -33 -229 -33h-230l-2 -272h-193zM299 426h228q120 0 202 46.5t117 132.5q22 54 22 121q0 145 -89 217.5t-250 72.5h-230v-590z" />
<glyph unicode="&#xdf;" horiz-adv-x="1085" d="M94 -1v992q0 162 78 272t210 158q90 33 200 33l-10 -9q92 0 168 -25.5t128.5 -72t80.5 -110.5q24 -56 24 -106q0 -47 -13.5 -86.5t-35 -65t-51 -50.5t-57 -42.5t-58 -42t-50.5 -48.5q-21 -26 -21 -57q0 -21 7.5 -38.5t24 -32t28.5 -22.5t34 -20q14 -8 43.5 -23.5 t47.5 -25t41.5 -25t41.5 -30.5q94 -80 94 -215q0 -119 -61 -196t-162 -111q-66 -22 -147 -22q-178 0 -316 124l41 68q16 28 49 28q18 0 38 -14q33 -23 56.5 -36t63.5 -25.5t82 -12.5q83 0 135.5 46.5t52.5 126.5q0 54 -26 88t-72 62q-24 15 -88 46t-94 51q-98 67 -98 179 q0 88 79 163q23 22 66.5 54.5t78 63t55.5 64.5q23 37 23 84q0 90 -65 136.5t-168 46.5q-148 0 -223.5 -89t-75.5 -247v-986h-179z" />
<glyph unicode="&#xe0;" horiz-adv-x="1020" d="M43 221q0 67 16.5 114.5t45 77.5t77.5 59q169 98 484 98v79q0 241 -200 241q-114 0 -190 -54t-97 -54q-37 0 -87 89q167 160 323 160q158 0 223 -28q98 -42 150 -132t52 -222v-505q68 -14 113 -22q17 -3 17 -34v-86h-208q-56 0 -63 42l-20 94q-170 -152 -291 -152 q-109 0 -162 12.5t-100 54.5q-83 72 -83 168zM91 870l1 2v-1zM209 1447h169q33 0 49 -9.5t30 -33.5l149 -242h-102q-37 0 -61 27zM213 262q0 -153 162 -153q163 0 290 136v209q-452 0 -452 -192z" />
<glyph unicode="&#xe1;" horiz-adv-x="1020" d="M43 221q0 67 16.5 114.5t45 77.5t77.5 59q169 98 484 98v79q0 241 -200 241q-114 0 -190 -54t-97 -54q-37 0 -87 89q167 160 323 160q158 0 223 -28q98 -42 150 -132t52 -222v-505q68 -14 113 -22q17 -3 17 -34v-86h-208q-56 0 -63 42l-20 94q-170 -152 -291 -152 q-109 0 -162 12.5t-100 54.5q-83 72 -83 168zM91 870l1 2v-1zM213 262q0 -153 162 -153q163 0 290 136v209q-452 0 -452 -192zM368 1161l148 242q14 23 30.5 33.5t47.5 10.5h174l-233 -259q-24 -27 -61 -27h-106z" />
<glyph unicode="&#xe2;" horiz-adv-x="1019" d="M43 221q0 67 16.5 114.5t45 77.5t77.5 59q169 98 484 98v79q0 241 -200 241q-114 0 -190 -54t-97 -54q-37 0 -87 89q167 160 323 160q158 0 223 -28q98 -42 150 -132t52 -222v-505q68 -14 113 -22q17 -3 17 -34v-86h-208q-56 0 -63 42l-20 94q-170 -152 -291 -152 q-109 0 -162 12.5t-100 54.5q-83 72 -83 168zM91 870l1 2v-1zM171 1167l223 264h166l223 -264l-119 -1q-20 0 -40 14q-10 10 -63.5 62.5t-81.5 80.5q-28 -29 -81 -80.5t-64 -62.5q-17 -13 -40 -13h-123zM213 262q0 -153 162 -153q163 0 290 136v209q-452 0 -452 -192z" />
<glyph unicode="&#xe3;" horiz-adv-x="1020" d="M43 221q0 67 16.5 114.5t45 77.5t77.5 59q169 98 484 98v79q0 241 -200 241q-114 0 -190 -54t-97 -54q-37 0 -87 89q167 160 323 160q158 0 223 -28q98 -42 150 -132t52 -222v-505q68 -14 113 -22q17 -3 17 -34v-86h-208q-56 0 -63 42l-20 94q-170 -152 -291 -152 q-109 0 -162 12.5t-100 54.5q-83 72 -83 168zM91 870l1 2v-1zM189 1201q0 94 47 154t132 60q23 0 48 -8.5t37 -15.5t37 -22q5 -3 21 -13.5t25 -16t24 -11t28 -5.5l-1 -3q74 0 77 86h108q0 -61 -19.5 -108t-60 -75t-98.5 -28q-7 0 -14.5 1t-14 2t-14 3.5t-12.5 4.5t-12.5 5.5 t-11.5 5.5t-11.5 6t-11 6t-11 7t-9.5 6q-6 4 -17 11.5t-19 12.5t-18.5 11t-21.5 9t-22 3q-73 0 -74 -88h-111zM213 262q0 -153 162 -153q163 0 290 136v209q-452 0 -452 -192z" />
<glyph unicode="&#xe4;" horiz-adv-x="1019" d="M43 221q0 67 16.5 114.5t45 77.5t77.5 59q169 98 484 98v79q0 241 -200 241q-114 0 -190 -54t-97 -54q-37 0 -87 89q167 160 323 160q158 0 223 -28q98 -42 150 -132t52 -222v-505q68 -14 113 -22q17 -3 17 -34v-86h-208q-56 0 -63 42l-20 94q-170 -152 -291 -152 q-109 0 -162 12.5t-100 54.5q-83 72 -83 168zM91 870l1 2v-1zM185 1287q0 48 31.5 80.5t78.5 32.5q49 0 82 -32.5t33 -80.5h-1q0 -46 -33.5 -78t-80.5 -32q-46 0 -78 32t-32 78zM213 262q0 -153 162 -153q163 0 290 136v209q-452 0 -452 -192zM542 1287q0 48 32.5 80.5 t80.5 32.5q49 0 81 -32.5t32 -80.5h-2q0 -46 -32.5 -78t-79.5 -32t-79.5 32t-32.5 78z" />
<glyph unicode="&#xe5;" horiz-adv-x="1019" d="M43 221q0 67 16.5 114.5t45 77.5t77.5 59q169 98 484 98v79q0 241 -200 241q-114 0 -190 -54t-97 -54q-37 0 -87 89q167 160 323 160q158 0 223 -28q98 -42 150 -132t52 -222v-505q68 -14 113 -22q17 -3 17 -34v-86h-208q-56 0 -63 42l-20 94q-170 -152 -291 -152 q-109 0 -162 12.5t-100 54.5q-83 72 -83 168zM91 870l1 2v-1zM213 262q0 -153 162 -153q163 0 290 136v209q-452 0 -452 -192zM276 1310q0 83 57 136t142 53q66 0 114.5 -31t72.5 -81q16 -33 16 -76q0 -64 -35 -106.5t-90 -63.5q-35 -13 -77 -13q-64 0 -111.5 30.5 t-70.5 79.5q-16 33 -16 75zM376 1310q0 -45 28 -72.5t73 -27.5q44 0 71.5 28t27.5 72q0 45 -27 73t-72 28q-46 0 -73.5 -27.5t-27.5 -73.5z" />
<glyph unicode="&#xe6;" horiz-adv-x="1554" d="M46 268q0 134 140 223q161 102 483 110v50q0 56 -12 100t-36 76.5t-62.5 50t-90.5 17.5q-40 0 -75 -7.5t-66.5 -23.5t-52.5 -29.5t-50 -35.5q-24 -18 -46 -18q-34 0 -52 32l-32 57q82 79 169 120t208 41q229 0 299 -193q117 191 349 191l-4 -6q71 0 130 -21t102 -59.5 t73.5 -86t50.5 -106.5q30 -87 30 -199q0 -39 -7 -54.5t-34 -15.5h-627q4 -84 23.5 -149.5t59 -114.5t97.5 -74q51 -22 117 -22q137 0 242 81q20 15 36 15q25 0 38 -16l47 -61q-60 -73 -156 -114.5t-220 -41.5q-130 0 -221.5 62t-142.5 168q-47 -108 -148.5 -168.5 t-247.5 -60.5q-145 0 -228 72t-83 211zM212 269q0 -83 48 -125t133 -42q130 0 200.5 79.5t70.5 215.5v83h-1q-235 -9 -349 -69q-48 -25 -75 -58t-27 -84zM831 590h508q0 100 -34 172.5t-99 106.5q-44 23 -99 23h-2q-66 0 -116.5 -23.5t-82.5 -65.5t-50 -95t-25 -118z" />
<glyph unicode="&#xe7;" horiz-adv-x="904" d="M45 507q0 154 56 271.5t164.5 184t256.5 66.5q116 0 300 -75v-262h-80q-9 0 -15.5 2t-10.5 8t-6.5 11t-4 16t-2 18.5t-1 22.5t-1.5 25q-1 18 -2.5 35t-2 24t-0.5 8q-183 53 -298 0q-86 -39 -128.5 -130.5t-42.5 -223.5q0 -82 17.5 -151t53 -121.5t93 -82t131.5 -29.5 q124 0 222 84q17 16 39 16q21 0 32 -17l51 -66q-112 -137 -327 -154l-17 -58q91 -20 131 -54q41 -35 41 -78q0 -42 -15 -67.5t-46 -44.5q-58 -37 -156 -37q-78 0 -146 31l17 55q6 18 23 18q11 0 34 -10q29 -12 67 -12q34 0 57.5 15t23.5 41q0 39 -41 58q-36 16 -120 26 l37 121q-119 15 -207 86t-132.5 182t-44.5 248z" />
<glyph unicode="&#xe8;" horiz-adv-x="980" d="M40 527q0 170 74.5 288.5t202.5 174.5q88 39 198 39l-3 -1q147 0 244.5 -69.5t142.5 -188.5q32 -85 32 -192q0 -39 -7.5 -54.5t-35.5 -15.5h-674q1 -85 21 -153.5t58.5 -120t100 -79.5t142.5 -28q78 0 137.5 21.5t120.5 59.5q24 15 41 15q22 0 34 -17l50 -65 q-60 -74 -163.5 -115t-233.5 -41q-171 0 -283 84t-163 227q-36 100 -36 231zM222 616h551q0 97 -38.5 163t-109.5 97q-48 21 -109 21l1 1q-131 0 -204 -76t-91 -206zM248 1449h169q14 0 24.5 -1.5t18 -5t14 -9t11.5 -11.5t11 -16l149 -242h-102q-22 0 -35 6t-26 21z" />
<glyph unicode="&#xe9;" horiz-adv-x="980" d="M40 527q0 170 74.5 288.5t202.5 174.5q88 39 198 39l-3 -1q147 0 244.5 -69.5t142.5 -188.5q32 -85 32 -192q0 -39 -7.5 -54.5t-35.5 -15.5h-674q1 -85 21 -153.5t58.5 -120t100 -79.5t142.5 -28q78 0 137.5 21.5t120.5 59.5q24 15 41 15q22 0 34 -17l50 -65 q-60 -74 -163.5 -115t-233.5 -41q-171 0 -283 84t-163 227q-36 100 -36 231zM222 616h551q0 97 -38.5 163t-109.5 97q-48 21 -109 21l1 1q-131 0 -204 -76t-91 -206zM407 1163l148 242q14 23 30.5 33.5t47.5 10.5h174l-233 -259q-13 -15 -26 -21t-35 -6h-106z" />
<glyph unicode="&#xea;" horiz-adv-x="979" d="M39 527q0 170 74.5 288.5t202.5 174.5q88 39 198 39l-3 -1q147 0 244.5 -69.5t142.5 -188.5q32 -85 32 -192q0 -39 -7.5 -54.5t-35.5 -15.5h-674q1 -85 21 -153.5t58.5 -120t100 -79.5t142.5 -28q78 0 137.5 21.5t120.5 59.5q24 15 41 15q22 0 34 -17l50 -65 q-60 -74 -163.5 -115t-233.5 -41q-171 0 -283 84t-163 227q-36 100 -36 231zM209 1169l223 264h166l223 -264l-119 -1q-20 0 -40 14q-10 10 -63.5 62.5t-81.5 80.5q-28 -29 -81 -80.5t-64 -62.5q-17 -13 -40 -13h-123zM221 616h551q0 97 -38.5 163t-109.5 97q-48 21 -109 21 l1 1q-54 0 -98.5 -13.5t-77.5 -38t-57.5 -60t-39.5 -78t-22 -92.5z" />
<glyph unicode="&#xeb;" horiz-adv-x="979" d="M39 527q0 170 74.5 288.5t202.5 174.5q88 39 198 39l-3 -1q147 0 244.5 -69.5t142.5 -188.5q32 -85 32 -192q0 -39 -7.5 -54.5t-35.5 -15.5h-674q1 -85 21 -153.5t58.5 -120t100 -79.5t142.5 -28q78 0 137.5 21.5t120.5 59.5q24 15 41 15q22 0 34 -17l50 -65 q-60 -74 -163.5 -115t-233.5 -41q-171 0 -283 84t-163 227q-36 100 -36 231zM221 616h551q0 65 -18 116.5t-50.5 87.5t-79.5 56q-48 21 -109 21l1 1q-131 0 -204 -76t-91 -206zM223 1289q0 48 31.5 80.5t78.5 32.5q49 0 82 -32.5t33 -80.5h-1q0 -23 -9 -43.5t-24.5 -35 t-36.5 -23t-44 -8.5q-46 0 -78 32t-32 78zM580 1289q0 48 32.5 80.5t81 32.5t80.5 -32.5t32 -80.5h-2q0 -46 -32.5 -78t-79.5 -32t-79.5 32t-32.5 78z" />
<glyph unicode="&#xec;" horiz-adv-x="582" d="M38 1449h169q33 0 48.5 -10t30.5 -34l149 -242h-102q-35 0 -61 28zM67 0v86q0 14 9 24.5t22 12.5l114 23v721q-96 19 -114 23q-13 2 -22 12.5t-9 24.5v86h322v-867q96 -19 114 -23q13 -2 22 -12.5t9 -24.5v-86h-467z" />
<glyph unicode="&#xed;" horiz-adv-x="611" d="M63 0v86q0 14 9 24.5t22 12.5l114 23v721q-96 19 -114 23q-13 2 -22 12.5t-9 24.5v86h322v-867q96 -19 114 -23q13 -2 22 -12.5t9 -24.5v-86h-467zM192 1163l148 242q15 24 31 34t48 10h174l-233 -258q-26 -28 -62 -28h-106z" />
<glyph unicode="&#xee;" horiz-adv-x="636" d="M15 1169l223 264h166l223 -264h-119q-20 0 -40 14q-24 24 -72.5 71.5t-72.5 71.5q-27 -28 -78 -77.5t-67 -65.5q-16 -14 -40 -14h-123zM83 0v86q0 14 9 24.5t22 12.5l114 23v721q-96 19 -114 23q-13 2 -22 12.5t-9 24.5v86h322v-867q96 -19 114 -23q13 -2 22 -12.5 t9 -24.5v-86h-467z" />
<glyph unicode="&#xef;" horiz-adv-x="643" d="M35 1288q0 48 31.5 80.5t78.5 32.5q48 0 81 -32.5t33 -80.5q0 -46 -33.5 -78t-80.5 -32q-46 0 -78 32t-32 78zM87 0v86q0 14 9 24.5t22 12.5l114 23v721q-96 19 -114 23q-13 2 -22 12.5t-9 24.5v86h322v-867q96 -19 114 -23q13 -2 22 -12.5t9 -24.5v-86h-467zM392 1289 q0 48 32.5 80.5t80.5 32.5t80.5 -32.5t32.5 -80.5q0 -47 -32.5 -78.5t-80.5 -31.5t-80.5 31.5t-32.5 78.5z" />
<glyph unicode="&#xf0;" horiz-adv-x="1042" d="M40 465q0 154 71.5 262.5t190.5 162.5q81 37 186 37q214 0 342 -173q-13 91 -44 164t-77 127.5t-110 98.5l-184 -135l-33 56l1 2q-10 17 -10 26q0 22 23 37l103 72q-90 39 -204 66q-19 5 -30.5 18.5t-11.5 35.5q0 14 5 29l20 62q208 -36 357 -124l167 122l35 -57 q8 -14 8 -24q0 -21 -22 -37l-97 -67q268 -221 268 -623q0 -214 -69 -361t-208 -213q-90 -43 -211 -43q-158 0 -268.5 76t-161.5 202q-36 88 -36 201zM219 465q0 -117 47.5 -198.5t131.5 -117.5q51 -22 113 -22l-2 -1q69 0 122.5 23.5t88.5 63t58 97t33.5 119.5t12.5 136 q-85 224 -303 224q-144 0 -223 -88t-79 -236z" />
<glyph unicode="&#xf1;" horiz-adv-x="1245" d="M64 -1v86q0 31 30 37l114 23v721q-96 20 -114 24q-30 6 -30 37v86h250q38 0 48 -37l14 -110l1 1q148 163 336 163q163 0 250.5 -104.5t87.5 -279.5v-499q97 -19 114 -24q31 -6 31 -37v-86h-323v645q0 242 -213 242q-148 0 -274 -141v-600q8 -2 114 -24q31 -6 31 -37v-86 h-467zM339 1204q0 94 47 154t132 60q17 0 33.5 -3.5t35 -12.5t26.5 -13.5t27 -16.5q5 -3 21 -13.5t25 -16t24 -11t28 -5.5l-1 -3q74 0 77 86h108q0 -61 -19.5 -108t-60 -75t-98.5 -28q-8 0 -16 1t-16 3t-14.5 3.5t-14.5 5.5t-12.5 6t-13.5 7t-12 7t-12 7.5t-11 6.5l-21 14 t-24.5 16t-24.5 11.5t-28 5.5q-73 0 -74 -88h-111z" />
<glyph unicode="&#xf2;" horiz-adv-x="1053" d="M41 508q0 181 74.5 304.5t209.5 179.5q89 37 201 37q173 0 287 -82.5t163 -223.5q33 -96 33 -215q0 -183 -73.5 -306.5t-208.5 -177.5q-90 -36 -201 -36q-174 0 -287 81t-164 223q-34 95 -34 216zM227 505q0 -177 71.5 -278.5t227.5 -101.5v-1q153 0 225.5 102.5 t72.5 279.5t-72.5 280t-225.5 103q-80 0 -139 -28.5t-93.5 -81t-50.5 -120.5t-16 -154zM259 1448h169q33 0 49 -9.5t30 -33.5l149 -242h-102q-37 0 -61 27z" />
<glyph unicode="&#xf3;" horiz-adv-x="1053" d="M42 508q0 181 74.5 304.5t209.5 179.5q89 37 201 37q173 0 287 -82.5t163 -223.5q33 -96 33 -215q0 -183 -73.5 -306.5t-208.5 -177.5q-90 -36 -201 -36q-174 0 -287 81t-164 223q-34 95 -34 216zM228 505q0 -177 71.5 -278.5t227.5 -101.5v-1q153 0 225.5 102.5 t72.5 279.5t-72.5 280t-225.5 103q-80 0 -139 -28.5t-93.5 -81t-50.5 -120.5t-16 -154zM419 1162l148 242q14 23 30.5 33.5t47.5 10.5h174l-233 -259q-24 -27 -61 -27h-106z" />
<glyph unicode="&#xf4;" horiz-adv-x="1052" d="M41 508q0 181 74.5 304.5t209.5 179.5q89 37 201 37q173 0 287 -82.5t163 -223.5q33 -96 33 -215q0 -183 -73.5 -306.5t-208.5 -177.5q-90 -36 -201 -36q-174 0 -287 81t-164 223q-34 95 -34 216zM221 1168l223 264h166l223 -264l-119 -1q-20 0 -40 14q-13 13 -29 28.5 t-29.5 29l-28 28l-29.5 29.5t-29 28q-28 -29 -81 -80.5t-64 -62.5q-17 -13 -40 -13h-123zM227 505q0 -86 16.5 -153.5t51 -119t93 -79.5t138.5 -28v-1q78 0 136.5 28t93 80t51.5 120.5t17 153.5q0 86 -17 154.5t-51.5 120.5t-93 80t-136.5 28q-80 0 -139 -28.5t-93.5 -81 t-50.5 -120.5t-16 -154z" />
<glyph unicode="&#xf5;" horiz-adv-x="1052" d="M41 508q0 181 74.5 304.5t209.5 179.5q89 37 201 37q173 0 287 -82.5t163 -223.5q33 -96 33 -215q0 -183 -73.5 -306.5t-208.5 -177.5q-90 -36 -201 -36q-174 0 -287 81t-164 223q-34 95 -34 216zM227 505q0 -177 71.5 -278.5t227.5 -101.5v-1q153 0 225.5 102.5 t72.5 279.5t-72.5 280t-225.5 103q-80 0 -139 -28.5t-93.5 -81t-50.5 -120.5t-16 -154zM239 1202q0 94 47 154t132 60q14 0 29 -3.5t25 -6.5t26 -11.5t21 -11.5t21 -13q5 -3 21 -13.5t25 -16t24 -11t28 -5.5l-1 -3q74 0 77 86h108q0 -61 -19.5 -108t-60 -75t-98.5 -28 q-8 0 -16 1t-16 3t-14.5 3.5t-14.5 5.5t-12.5 6t-13.5 7t-12 7t-12 7.5t-11 6.5l-21 14t-24.5 16t-24.5 11.5t-28 5.5q-73 0 -74 -88h-111z" />
<glyph unicode="&#xf6;" horiz-adv-x="1052" d="M41 508q0 181 74.5 304.5t209.5 179.5q89 37 201 37q173 0 287 -82.5t163 -223.5q33 -96 33 -215q0 -183 -73.5 -306.5t-208.5 -177.5q-90 -36 -201 -36q-174 0 -287 81t-164 223q-34 95 -34 216zM227 505q0 -177 71.5 -278.5t227.5 -101.5v-1q153 0 225.5 102.5 t72.5 279.5t-72.5 280t-225.5 103q-80 0 -139 -28.5t-93.5 -81t-50.5 -120.5t-16 -154zM235 1288q0 48 31.5 80.5t78.5 32.5q49 0 82 -32.5t33 -80.5h-1q0 -46 -33.5 -78t-80.5 -32q-46 0 -78 32t-32 78zM592 1288q0 48 32.5 80.5t80.5 32.5q49 0 81 -32.5t32 -80.5h-2 q0 -46 -32.5 -78t-79.5 -32t-79.5 32t-32.5 78z" />
<glyph unicode="&#xf7;" horiz-adv-x="1039" d="M38 604v135h958v-135h-958zM390 312q0 54 35 89t89 35q52 0 88 -36t36 -88q0 -54 -35 -88.5t-89 -34.5q-55 0 -89 34.5t-34 89.5zM391 1025q0 54 35 89t89 35q52 0 88 -36t36 -88q0 -54 -35 -88.5t-89 -34.5q-55 0 -89 34.5t-34 89.5z" />
<glyph unicode="&#xf8;" horiz-adv-x="1076" d="M39 -77l145 196q-136 142 -136 388q0 181 74.5 304.5t209.5 179.5q89 37 201 37q153 0 270 -73l68 91q15 20 22 28t23 15.5t39 7.5h90l-157 -213l1 -2q127 -139 127 -377q0 -183 -73.5 -306.5t-208.5 -177.5q-90 -36 -201 -36q-151 0 -262 65l-55 -74q-42 -53 -110 -53 h-67zM223 504q0 -160 59 -258l436 590q-74 56 -184 56q-65 0 -117 -19t-88 -53t-60 -83t-35 -107t-11 -126zM357 166q71 -48 177 -48l1 -2q80 0 140 29.5t96 82.5t53.5 122t17.5 154q0 152 -52 247z" />
<glyph unicode="&#xf9;" horiz-adv-x="1210" d="M28 927v86h322v-646q0 -115 52.5 -178t159.5 -63l1 -2q151 0 274 140v601q-15 4 -113 24q-31 6 -31 37v86h322v-867q97 -19 114 -24q31 -6 31 -37v-86h-251q-38 0 -48 37l-14 109q-145 -162 -336 -162q-163 0 -251 103.5t-88 280.5v500q-96 20 -114 24q-30 6 -30 37z M333 1447h169q33 0 49 -9.5t30 -33.5l149 -242h-102q-37 0 -61 27z" />
<glyph unicode="&#xfa;" horiz-adv-x="1209" d="M28 927v86h322v-646q0 -115 52.5 -178t159.5 -63l1 -2q151 0 274 140v601q-15 4 -113 24q-31 6 -31 37v86h322v-867q97 -19 114 -24q31 -6 31 -37v-86h-251q-38 0 -48 37l-14 109q-145 -162 -336 -162q-163 0 -251 103.5t-88 280.5v500q-96 20 -114 24q-30 6 -30 37z M492 1161l148 242q14 23 30.5 33.5t47.5 10.5h174l-233 -259q-24 -27 -61 -27h-106z" />
<glyph unicode="&#xfb;" horiz-adv-x="1209" d="M28 927v86h322v-646q0 -115 52.5 -178t159.5 -63l1 -2q151 0 274 140v601q-15 4 -113 24q-31 6 -31 37v86h322v-867q97 -19 114 -24q31 -6 31 -37v-86h-251q-38 0 -48 37l-14 109q-145 -162 -336 -162q-163 0 -251 103.5t-88 280.5v500q-96 20 -114 24q-30 6 -30 37z M295 1167l223 264h166l223 -264l-119 -1q-20 0 -40 14q-10 10 -63.5 62.5t-81.5 80.5q-28 -29 -81 -80.5t-64 -62.5q-17 -13 -40 -13h-123z" />
<glyph unicode="&#xfc;" horiz-adv-x="1209" d="M28 927v86h322v-646q0 -115 52.5 -178t159.5 -63l1 -2q151 0 274 140v601q-15 4 -113 24q-31 6 -31 37v86h322v-867q97 -19 114 -24q31 -6 31 -37v-86h-251q-38 0 -48 37l-14 109q-145 -162 -336 -162q-163 0 -251 103.5t-88 280.5v500q-96 20 -114 24q-30 6 -30 37z M309 1287q0 48 31.5 80.5t78.5 32.5q49 0 82 -32.5t33 -80.5h-1q0 -46 -33.5 -78t-80.5 -32q-46 0 -78 32t-32 78zM666 1287q0 48 32.5 80.5t80.5 32.5q49 0 81 -32.5t32 -80.5h-2q0 -46 -32.5 -78t-79.5 -32t-79.5 32t-32.5 78z" />
<glyph unicode="&#xfd;" horiz-adv-x="1189" d="M27 928v86h454v-86q0 -31 -30 -37q-10 -3 -111 -22l225 -530q17 -40 27 -90q18 59 30 90l219 529q-27 6 -63 13t-46 9q-28 6 -28 37v86h376l71 1v-86q0 -12 -3.5 -20t-13 -12.5t-16.5 -6.5t-24 -4.5t-26 -4.5q-13 -3 -24.5 -5t-18.5 -3.5t-8 -1.5l-503 -1168 q-20 -44 -63 -44h-132l185 402l-356 813q-72 13 -91 18q-30 6 -30 37zM495 1164l148 242q14 23 30.5 33.5t47.5 10.5h174l-233 -259q-7 -7 -12.5 -12t-12.5 -8.5t-15.5 -5t-20.5 -1.5h-106z" />
<glyph unicode="&#xfe;" horiz-adv-x="1047" d="M109 -343v1813h178v-607q141 164 332 164q74 0 134.5 -22.5t103 -63.5t71 -92t46.5 -116q27 -96 27 -222q0 -174 -66.5 -300t-186.5 -186q-80 -40 -183 -40q-95 0 -160.5 34.5t-117.5 98.5v-461h-178zM287 242q45 -60 100.5 -90t138.5 -30q149 0 221 106t72 283 q0 373 -259 373l1 2q-92 0 -155.5 -40.5t-118.5 -113.5v-490z" />
<glyph unicode="&#xff;" horiz-adv-x="1189" d="M27 928v86h454v-86q0 -31 -30 -37q-10 -3 -111 -22l225 -530q17 -40 27 -90q18 59 30 90l219 529q-27 6 -63 13t-46 9q-28 6 -28 37v86h376l71 1v-86q0 -12 -3.5 -20t-13 -12.5t-16.5 -6.5t-24 -4.5t-26 -4.5q-13 -3 -24.5 -5t-18.5 -3.5t-8 -1.5l-503 -1168 q-20 -44 -63 -44h-132l185 402l-356 813q-72 13 -91 18q-30 6 -30 37zM312 1290q0 48 31.5 80.5t78.5 32.5q49 0 82 -32.5t33 -80.5h-1q0 -23 -9 -43.5t-24.5 -35t-36.5 -23t-44 -8.5q-46 0 -78 32t-32 78zM669 1290q0 48 32.5 80.5t81 32.5t80.5 -32.5t32 -80.5h-2 q0 -46 -32.5 -78t-79.5 -32t-79.5 32t-32.5 78z" />
<glyph unicode="&#x152;" horiz-adv-x="2121" d="M47 715q0 156 44.5 291t126 233t201.5 154t264 56q86 0 162.5 -19t138 -54.5t110.5 -80.5t88 -102v240h860v-346h-97q-34 0 -42 35q-3 15 -14 153l-535 -2v-476h528v-152h-528v-489h537q10 133 12 142q7 34 42 34h97v-334h-860v240q-80 -114 -205 -184t-285 -70 q-291 0 -469 204q-54 62 -93 141t-61 178t-22 208zM245 712q0 -194 69.5 -330.5t200.5 -197.5q84 -39 188 -39q86 0 157.5 25.5t122.5 71t86.5 104t57.5 130.5l-1 -1q32 107 32 237q0 195 -68.5 331.5t-198.5 197.5q-84 39 -188 39q-86 0 -157.5 -25.5t-122.5 -71.5 t-86.5 -104t-58.5 -130q-33 -105 -33 -237z" />
<glyph unicode="&#x153;" horiz-adv-x="1676" d="M45 507q0 180 70 303.5t198 180.5q83 37 186 37q135 0 228 -61.5t144 -168.5q50 105 143 168t227 63l-3 4q71 0 130 -21t102 -59.5t73.5 -86t50.5 -106.5q30 -87 30 -199q0 -39 -7 -54.5t-34 -15.5h-627q13 -266 180 -338q51 -22 117 -22q50 0 96 13t75 28t66 40 q23 15 41 15q21 0 33 -17l51 -65q-39 -48 -94 -82.5t-127 -54t-155 -19.5q-132 0 -223 62.5t-142 170.5q-113 -235 -383 -235q-161 0 -264.5 82.5t-149.5 221.5q-32 98 -32 216zM225 509q0 -84 15 -151t47 -119.5t87 -81t130 -28.5v-2q74 0 128.5 29t86 82t46 120t14.5 151 t-14 150.5t-45 120.5t-86 83.5t-131 29.5q-278 0 -278 -384zM956 598h508q0 100 -34 172.5t-99 106.5q-44 23 -99 23h-2q-128 0 -193.5 -82.5t-80.5 -219.5z" />
<glyph unicode="&#x178;" horiz-adv-x="1401" d="M39 1346v86h482v-86q0 -31 -31 -37q-109 -22 -113 -23l268 -456q31 -56 57 -126q27 75 57 127l268 456q-6 1 -114 23q-30 6 -30 37v86l482 -2v-86q0 -32 -25 -36q-26 -5 -105 -24l-437 -717v-424q31 -7 114 -23q30 -6 30 -37v-86h-481v86q0 31 30 37l114 23v424l-436 717 q-73 18 -102 24q-28 6 -28 37zM377 1663q0 47 31.5 80t77.5 33q48 0 80.5 -32t32.5 -80l-3 -2q0 -46 -32.5 -77.5t-79.5 -31.5q-44 0 -75.5 32.5t-31.5 77.5zM802 1661q0 48 31.5 80.5t78.5 32.5q46 0 78 -32.5t32 -79.5v-2q0 -46 -32 -77.5t-78 -31.5t-78 32t-32 78z" />
<glyph unicode="&#x2c6;" horiz-adv-x="752" d="M70 1169l223 264h166l223 -264l-119 -1q-20 0 -40 14q-17 17 -46 45t-53.5 52.5l-45.5 45.5q-28 -29 -81 -80.5t-64 -62.5q-17 -13 -40 -13h-123z" />
<glyph unicode="&#x2dc;" horiz-adv-x="750" d="M85 1203q0 94 47 154t132 60q23 0 48 -8.5t37 -15.5t37 -22q5 -3 21 -13.5t25 -16t24 -11t28 -5.5l-1 -3q74 0 77 86h108q0 -61 -19.5 -108t-60 -75t-98.5 -28q-8 0 -16 1t-16 3t-14.5 3.5t-14.5 5.5t-12.5 6t-13.5 7t-12 7t-12 7.5t-11 6.5l-21 14t-24.5 16t-24.5 11.5 t-28 5.5q-73 0 -74 -88h-111z" />
<glyph unicode="&#x2000;" horiz-adv-x="919" />
<glyph unicode="&#x2001;" horiz-adv-x="1838" />
<glyph unicode="&#x2002;" horiz-adv-x="919" />
<glyph unicode="&#x2003;" horiz-adv-x="1838" />
<glyph unicode="&#x2004;" horiz-adv-x="612" />
<glyph unicode="&#x2005;" horiz-adv-x="459" />
<glyph unicode="&#x2006;" horiz-adv-x="306" />
<glyph unicode="&#x2007;" horiz-adv-x="306" />
<glyph unicode="&#x2008;" horiz-adv-x="229" />
<glyph unicode="&#x2009;" horiz-adv-x="367" />
<glyph unicode="&#x200a;" horiz-adv-x="102" />
<glyph unicode="&#x2010;" horiz-adv-x="683" d="M95 524v151h494v-151h-494z" />
<glyph unicode="&#x2011;" horiz-adv-x="683" d="M95 524v151h494v-151h-494z" />
<glyph unicode="&#x2012;" horiz-adv-x="683" d="M95 524v151h494v-151h-494z" />
<glyph unicode="&#x2013;" horiz-adv-x="989" d="M95 525v130h800v-130h-800z" />
<glyph unicode="&#x2014;" horiz-adv-x="1519" d="M95 525v130h1330v-130h-1330z" />
<glyph unicode="&#x2018;" horiz-adv-x="381" d="M79 1203q0 177 170 325l55 -34q14 -8 14 -23q0 -14 -10 -24q-84 -99 -84 -196q0 -70 41 -138q7 -10 7 -23q0 -24 -27 -34l-109 -44l-2 -1q-55 93 -55 192z" />
<glyph unicode="&#x2019;" horiz-adv-x="380" d="M67 1049q0 14 10 24q24 29 40.5 54t30 63.5t13.5 79.5q0 70 -41 138q-7 10 -7 21q0 25 27 35l109 44v1q55 -93 55 -192q0 -178 -169 -325l-55 34q-13 8 -13 23z" />
<glyph unicode="&#x201a;" horiz-adv-x="395" d="M76 -218q0 14 10 24q38 45 61 91.5t23 105.5q0 70 -41 138q-7 10 -7 21q0 24 27 35l109 44v1q55 -93 55 -192q0 -178 -169 -325l-55 34q-13 8 -13 23z" />
<glyph unicode="&#x201c;" horiz-adv-x="685" d="M79 1203q0 177 170 325l55 -34q14 -8 14 -23q0 -14 -10 -24q-84 -99 -84 -196q0 -70 41 -138q7 -10 7 -23q0 -24 -27 -34l-109 -44l-2 -1q-55 93 -55 192zM381 1202q0 177 170 325l55 -34q14 -8 14 -23q0 -14 -10 -24q-38 -45 -61 -91.5t-23 -104.5q0 -70 41 -138 q7 -10 7 -23q0 -24 -27 -34l-109 -44l-2 -1q-55 93 -55 192z" />
<glyph unicode="&#x201d;" horiz-adv-x="684" d="M67 1049q0 14 10 24q24 29 40.5 54t30 63.5t13.5 79.5q0 70 -41 138q-7 10 -7 21q0 25 27 35l109 44v1q55 -93 55 -192q0 -178 -169 -325l-55 34q-13 8 -13 23zM371 1050q0 14 10 24q38 45 61 91.5t23 105.5q0 70 -41 138q-7 10 -7 21q0 24 27 35l109 44v1 q55 -93 55 -192q0 -178 -169 -325l-55 34q-13 8 -13 23z" />
<glyph unicode="&#x201e;" horiz-adv-x="699" d="M76 -218q0 14 10 24q38 45 61 91.5t23 105.5q0 70 -41 138q-7 10 -7 21q0 24 27 35l109 44v1q55 -93 55 -192q0 -178 -169 -325l-55 34q-13 8 -13 23zM380 -217q0 14 10 24q38 45 61 91.5t23 105.5q0 70 -41 138q-7 10 -7 21q0 24 27 35l109 44v1q55 -93 55 -192 q0 -178 -169 -325l-55 34q-13 8 -13 23z" />
<glyph unicode="&#x2022;" horiz-adv-x="893" d="M74 593q0 150 110 263q48 50 115 80.5t146 30.5q121 0 210.5 -65t133.5 -164q30 -68 30 -144q0 -122 -64.5 -209t-164.5 -131q-68 -30 -144 -30q-151 0 -261 110q-109 109 -109 261z" />
<glyph unicode="&#x2026;" horiz-adv-x="1451" d="M89 109q0 53 34.5 88.5t87.5 35.5t87.5 -35.5t34.5 -88.5q0 -54 -34 -88.5t-88 -34.5t-88 34t-34 89zM603 107q0 53 34.5 88.5t87.5 35.5t87.5 -35.5t34.5 -88.5q0 -54 -34 -88.5t-88 -34.5t-88 34t-34 89zM1118 108q0 53 34.5 88.5t87.5 35.5t87.5 -35.5t34.5 -88.5 q0 -54 -34 -88.5t-88 -34.5t-88 34t-34 89z" />
<glyph unicode="&#x202f;" horiz-adv-x="367" />
<glyph unicode="&#x2039;" horiz-adv-x="472" d="M63 542l249 389l58 -28q28 -16 28 -42q0 -17 -10 -33l-159 -261q-13 -23 -27 -37q14 -13 28 -36l159 -261q11 -18 11 -34q0 -29 -28 -42l-58 -28l-249 389z" />
<glyph unicode="&#x203a;" horiz-adv-x="476" d="M77 200q0 17 10 33l159 261q14 24 27 36q-12 10 -27 36l-159 261q-10 16 -10 33q0 29 28 42l58 28l249 -389v-22l-249 -389l-58 28q-28 13 -28 42z" />
<glyph unicode="&#x205f;" horiz-adv-x="459" />
<glyph unicode="&#x20ac;" horiz-adv-x="1207" d="M59 552v102h134q-1 10 -1 30v72q0 15 2 41h-135v102l140 -6q29 184 117.5 319t230.5 193q93 38 200 38q91 0 166.5 -25t127.5 -64.5t99 -98.5l-61 -68q-6 -8 -9.5 -11t-10.5 -6.5t-16 -3.5q-17 0 -35 19q-95 103 -251 103q-83 0 -148.5 -30.5t-109 -85.5t-71 -123.5 t-41.5 -152.5h547v-55q0 -20 -14.5 -34t-35.5 -14h-508q-1 -13 -1 -39v-72q0 -20 1 -30h467v-56q0 -19 -15.5 -32.5t-36.5 -13.5h-406q12 -89 38 -161t69 -130t109 -89.5t150 -31.5q86 0 144.5 28t110.5 80q1 1 10.5 11t14 14t13 8.5t15.5 4.5q15 0 28 -13l75 -70 q-149 -216 -420 -216q-344 0 -481 331q-43 105 -60 236h-142z" />
<glyph unicode="&#x2122;" horiz-adv-x="1417" d="M65 1328v105h486v-105h-180v-487h-126v487h-180zM647 842v592h106q18 0 24.5 -4t17.5 -18l169 -303q19 -42 22 -52q12 35 21 52l169 303q9 14 16 18t25 4h106v-592h-110v365l9 75l-183 -336q-13 -28 -45 -28h-18q-31 0 -43 28l-184 333l8 -72v-365h-110z" />
<glyph unicode="&#x25fc;" horiz-adv-x="1010" d="M0 0v1010h1010v-1010h-1010z" />
</font>
</defs>
</svg>
