<?xml version="1.0" encoding="UTF-8" standalone="no"?>
<!-- Created with Inkscape (http://www.inkscape.org/) -->

<svg
   xmlns:dc="http://purl.org/dc/elements/1.1/"
   xmlns:cc="http://creativecommons.org/ns#"
   xmlns:rdf="http://www.w3.org/1999/02/22-rdf-syntax-ns#"
   xmlns:svg="http://www.w3.org/2000/svg"
   xmlns="http://www.w3.org/2000/svg"
   xmlns:sodipodi="http://sodipodi.sourceforge.net/DTD/sodipodi-0.dtd"
   xmlns:inkscape="http://www.inkscape.org/namespaces/inkscape"
   width="140"
   height="60"
   id="svg2"
   version="1.1"
   inkscape:version="0.48.5 r10040"
   sodipodi:docname="mapasculturais_logo-site.svg">
  <defs
     id="defs4" />
  <sodipodi:namedview
     id="base"
     pagecolor="#ffffff"
     bordercolor="#666666"
     borderopacity="1.0"
     inkscape:pageopacity="0.0"
     inkscape:pageshadow="2"
     inkscape:zoom="8.826299"
     inkscape:cx="62.243403"
     inkscape:cy="31.869748"
     inkscape:document-units="px"
     inkscape:current-layer="layer1"
     showgrid="false"
     inkscape:window-width="1920"
     inkscape:window-height="1014"
     inkscape:window-x="0"
     inkscape:window-y="27"
     inkscape:window-maximized="1" />
  <metadata
     id="metadata7">
    <rdf:RDF>
      <cc:Work
         rdf:about="">
        <dc:format>image/svg+xml</dc:format>
        <dc:type
           rdf:resource="http://purl.org/dc/dcmitype/StillImage" />
        <dc:title />
      </cc:Work>
    </rdf:RDF>
  </metadata>
  <g
     inkscape:label="Camada 1"
     inkscape:groupmode="layer"
     id="layer1"
     transform="translate(0,-992.36218)">
    <rect
       style="fill:#cccccc;stroke:none"
       id="rect2985"
       width="140"
       height="60"
       x="0.1107864"
       y="992.36877"
       inkscape:export-filename="/home/system/mapasculturaisThemeEstadoSP/assets/img/logo-site.png"
       inkscape:export-xdpi="90"
       inkscape:export-ydpi="90" />
    <g
       transform="translate(106.80673,1008.0205)"
       style="font-size:40px;font-style:normal;font-weight:normal;line-height:125%;letter-spacing:0px;word-spacing:0px;fill:#ffffff;fill-opacity:1;stroke:none;font-family:Sans"
       id="flowRoot2987">
      <g
         transform="matrix(1.1264055,0,0,1.1264055,-112.6039,15.741836)"
         style="fill:#ffffff;font-family:Sans"
         id="flowRoot3006">
        <path
           d="m 11.943768,-18.635966 1.595229,0 0,13.4900897 -1.595229,0 0,-13.4900897"
           style="font-size:17.75559425px;text-align:center;text-anchor:middle"
           id="path2990" />
        <path
           d="m 20.630831,-13.737573 c -0.855417,9e-6 -1.531655,0.335238 -2.028715,1.005688 -0.497067,0.664686 -0.745599,1.577896 -0.745596,2.7396331 -3e-6,1.1617467 0.245639,2.0778466 0.736926,2.7483024 0.497061,0.6646803 1.176188,0.9970194 2.037385,0.9970183 0.849627,1.1e-6 1.522975,-0.3352279 2.020046,-1.005688 0.497056,-0.6704559 0.745588,-1.5836658 0.745596,-2.7396327 -8e-6,-1.1501771 -0.24854,-2.0604971 -0.745596,-2.7309631 -0.497071,-0.67623 -1.170419,-1.014349 -2.020046,-1.014358 m 0,-1.352476 c 1.387149,9e-6 2.476644,0.450835 3.268486,1.352476 0.791825,0.901659 1.187742,2.150098 1.187752,3.7453211 -10e-6,1.5894526 -0.395927,2.8378916 -1.187752,3.7453207 -0.791842,0.9016514 -1.881337,1.3524766 -3.268486,1.3524769 -1.392939,-3e-7 -2.485323,-0.4508255 -3.277155,-1.3524769 -0.786057,-0.9074291 -1.179084,-2.1558681 -1.179083,-3.7453207 -1e-6,-1.5952231 0.393026,-2.8436621 1.179083,-3.7453211 0.791832,-0.901641 1.884216,-1.352467 3.277155,-1.352476"
           style="font-size:17.75559425px;text-align:center;text-anchor:middle"
           id="path2992" />
        <path
           d="m 34.112252,-10.113628 c -8e-6,-1.155957 -0.23987,-2.051828 -0.719587,-2.687614 -0.473952,-0.635772 -1.14152,-0.953661 -2.002706,-0.95367 -0.855418,9e-6 -1.522986,0.317898 -2.002707,0.95367 -0.473947,0.635786 -0.71092,1.531657 -0.710917,2.687614 -3e-6,1.1501871 0.23697,2.0431678 0.710917,2.6789446 0.479721,0.6357814 1.147289,0.953671 2.002707,0.9536696 0.861186,1.4e-6 1.528754,-0.3178882 2.002706,-0.9536696 0.479717,-0.6357768 0.719579,-1.5287575 0.719587,-2.6789446 m 1.595229,3.7626601 c -1e-5,1.6530269 -0.367028,2.8812365 -1.101055,3.6846326 -0.734044,0.8091709 -1.858217,1.2137576 -3.372523,1.2137613 -0.560646,-3.7e-6 -1.089499,-0.043352 -1.586559,-0.1300459 -0.497067,-0.080921 -0.979681,-0.2080767 -1.447844,-0.3814678 l 0,-1.5518806 c 0.468163,0.2543101 0.930547,0.4421539 1.387156,0.5635321 0.456601,0.1213738 0.921876,0.1820618 1.395825,0.1820642 1.046141,-2.4e-6 1.829305,-0.2745434 2.349496,-0.8236238 0.520175,-0.5433037 0.780267,-1.3669266 0.780275,-2.4708712 l 0,-0.7889449 c -0.329457,0.5722029 -0.751384,0.9999088 -1.26578,1.2831191 -0.51441,0.2832111 -1.12996,0.4248165 -1.846651,0.4248165 -1.190646,0 -2.150094,-0.4537151 -2.878348,-1.3611467 -0.728258,-0.9074288 -1.092387,-2.1096293 -1.092386,-3.606605 -1e-6,-1.502746 0.364128,-2.707836 1.092386,-3.615275 0.728254,-0.907421 1.687702,-1.361137 2.878348,-1.361146 0.716691,9e-6 1.332241,0.141615 1.846651,0.424816 0.514396,0.28322 0.936323,0.710926 1.26578,1.283119 l 0,-1.473853 1.595229,0 0,8.5049991"
           style="font-size:17.75559425px;text-align:center;text-anchor:middle"
           id="path2994" />
        <path
           d="m 42.755966,-13.737573 c -0.855417,9e-6 -1.531655,0.335238 -2.028716,1.005688 -0.497067,0.664686 -0.745598,1.577896 -0.745596,2.7396331 -2e-6,1.1617467 0.24564,2.0778466 0.736927,2.7483024 0.49706,0.6646803 1.176188,0.9970194 2.037385,0.9970183 0.849626,1.1e-6 1.522974,-0.3352279 2.020045,-1.005688 0.497057,-0.6704559 0.745589,-1.5836658 0.745597,-2.7396327 -8e-6,-1.1501771 -0.24854,-2.0604971 -0.745597,-2.7309631 -0.497071,-0.67623 -1.170419,-1.014349 -2.020045,-1.014358 m 0,-1.352476 c 1.387149,9e-6 2.476643,0.450835 3.268486,1.352476 0.791825,0.901659 1.187742,2.150098 1.187752,3.7453211 -1e-5,1.5894526 -0.395927,2.8378916 -1.187752,3.7453207 -0.791843,0.9016514 -1.881337,1.3524766 -3.268486,1.3524769 -1.39294,-3e-7 -2.485324,-0.4508255 -3.277156,-1.3524769 -0.786056,-0.9074291 -1.179083,-2.1558681 -1.179082,-3.7453207 -1e-6,-1.5952231 0.393026,-2.8436621 1.179082,-3.7453211 0.791832,-0.901641 1.884216,-1.352467 3.277156,-1.352476"
           style="font-size:17.75559425px;text-align:center;text-anchor:middle"
           id="path2996" />
        <path
           d="m 49.388308,-10.720509 4.672981,0 0,1.421835 -4.672981,0 0,-1.421835"
           style="font-size:17.75559425px;text-align:center;text-anchor:middle"
           id="path2998" />
        <path
           d="m 62.800367,-14.569866 0,1.508532 c -0.450833,-0.231185 -0.918998,-0.404579 -1.404495,-0.520184 -0.485511,-0.115587 -0.988354,-0.173385 -1.508532,-0.173394 -0.791839,9e-6 -1.38716,0.121385 -1.785963,0.364128 -0.393031,0.242761 -0.589544,0.606889 -0.589541,1.092386 -3e-6,0.369915 0.141602,0.661795 0.424816,0.875642 0.283208,0.208079 0.852519,0.407483 1.707936,0.598211 l 0.546192,0.121376 c 1.132838,0.242757 1.936231,0.586656 2.410183,1.0316969 0.479717,0.4392701 0.719579,1.0548198 0.719587,1.8466511 -8e-6,0.9016531 -0.358356,1.6154596 -1.075045,2.1414218 -0.710924,0.5259633 -1.690602,0.7889446 -2.939037,0.7889449 -0.520187,-3e-7 -1.063489,-0.052019 -1.629908,-0.1560551 -0.560644,-0.098257 -1.153075,-0.2485319 -1.777293,-0.4508256 l 0,-1.6472475 c 0.58954,0.3063319 1.17041,0.5375243 1.742614,0.6935779 0.572199,0.1502764 1.13862,0.2254139 1.699266,0.2254128 0.751371,1.1e-6 1.329352,-0.1271547 1.733945,-0.3814678 0.404581,-0.26009 0.606874,-0.6242181 0.606881,-1.0923852 -7e-6,-0.4334832 -0.147392,-0.7658223 -0.442156,-0.9970183 -0.288997,-0.2311888 -0.927666,-0.4537115 -1.916009,-0.6675687 l -0.554863,-0.1300458 c -0.988351,-0.2080689 -1.702157,-0.5259584 -2.141421,-0.9536694 -0.439268,-0.433481 -0.6589,-1.025911 -0.658899,-1.777294 -1e-6,-0.913203 0.323668,-1.618339 0.971009,-2.115412 0.647336,-0.497055 1.566326,-0.745587 2.756972,-0.745596 0.589536,9e-6 1.144398,0.04336 1.664587,0.130045 0.520176,0.08671 0.999901,0.216753 1.439174,0.390138"
           style="font-size:17.75559425px;text-align:center;text-anchor:middle"
           id="path3000" />
        <path
           d="m 65.86945,-14.855967 1.595229,0 0,9.7100907 -1.595229,0 0,-9.7100907 m 0,-3.779999 1.595229,0 0,2.020045 -1.595229,0 0,-2.020045"
           style="font-size:17.75559425px;text-align:center;text-anchor:middle"
           id="path3002" />
        <path
           d="m 72.371744,-17.612939 0,2.756972 3.285825,0 0,1.239771 -3.285825,0 0,5.2711916 c -3e-6,0.7918372 0.106923,1.3004605 0.32078,1.5258714 0.219629,0.2254143 0.661784,0.3381206 1.326468,0.3381192 l 1.638577,0 0,1.3351375 -1.638577,0 c -1.231105,0 -2.080737,-0.2283025 -2.548899,-0.6849082 -0.468167,-0.4623841 -0.70225,-1.3004566 -0.702248,-2.5142199 l 0,-5.2711916 -1.170413,0 0,-1.239771 1.170413,0 0,-2.756972 1.603899,0"
           style="font-size:17.75559425px;text-align:center;text-anchor:middle"
           id="path3004" />
        <path
           d="m 86.069905,-10.399729 0,0.7802752 -7.334586,0 c 0.06936,1.0981684 0.398804,1.9362409 0.988348,2.5142199 0.595317,0.5722032 1.42183,0.8583038 2.479541,0.8583027 0.612654,1.1e-6 1.205084,-0.075137 1.777293,-0.2254129 0.577973,-0.1502737 1.150175,-0.3756863 1.716606,-0.6762384 l 0,1.5085319 c -0.572211,0.2427525 -1.158862,0.4277065 -1.759954,0.5548623 -0.601108,0.1271558 -1.210878,0.1907337 -1.829312,0.190734 -1.548995,-3e-7 -2.777205,-0.4508255 -3.684633,-1.3524769 -0.901652,-0.9016493 -1.352477,-2.1211892 -1.352476,-3.6586235 -1e-6,-1.5894433 0.427705,-2.8494413 1.283119,-3.7799993 0.861189,-0.936321 2.020041,-1.404486 3.476559,-1.404495 1.306231,9e-6 2.337927,0.421936 3.095091,1.265779 0.762926,0.838081 1.144394,1.979594 1.144404,3.424541 m -1.595229,-0.468165 c -0.01157,-0.872746 -0.25721,-1.569213 -0.736927,-2.089403 -0.473952,-0.520176 -1.103951,-0.780267 -1.89,-0.780276 -0.890096,9e-6 -1.603903,0.251431 -2.141421,0.754266 -0.531747,0.502852 -0.838077,1.210878 -0.918991,2.124083 l 5.687339,-0.0087"
           style="font-size:17.75559425px;text-align:center;text-anchor:middle"
           id="path3006" />
        <path
           d="m 88.913573,-7.3479862 1.829312,0 0,2.2021099 -1.829312,0 0,-2.2021099"
           style="font-size:17.75559425px;text-align:center;text-anchor:middle"
           id="path3008" />
        <path
           d="m 95.884035,-6.6023899 0,5.1498159 -1.603898,0 0,-13.403393 1.603898,0 0,1.473853 c 0.335226,-0.577973 0.757152,-1.005679 1.26578,-1.283119 0.514399,-0.283201 1.127059,-0.424807 1.837982,-0.424816 1.179073,9e-6 2.135633,0.468174 2.869683,1.404495 0.7398,0.936338 1.10971,2.167437 1.10972,3.6933021 -1e-5,1.5258747 -0.36992,2.7569742 -1.10972,3.6933023 -0.73405,0.9363304 -1.69061,1.404495 -2.869683,1.4044953 -0.710923,-3e-7 -1.323583,-0.1387157 -1.837982,-0.4161468 -0.508628,-0.2832105 -0.930554,-0.7138064 -1.26578,-1.2917888 m 5.427245,-3.389862 c -1e-5,-1.1732961 -0.24276,-2.0922861 -0.72825,-2.7569721 -0.47974,-0.67045 -1.141525,-1.005679 -1.985371,-1.005688 -0.843858,9e-6 -1.508536,0.335238 -1.994036,1.005688 -0.479729,0.664686 -0.719591,1.583676 -0.719588,2.7569721 -3e-6,1.1733063 0.239859,2.095186 0.719588,2.7656419 0.4855,0.6646802 1.150178,0.9970193 1.994036,0.9970182 0.843846,1.1e-6 1.505631,-0.332338 1.985371,-0.9970182 0.48549,-0.6704559 0.72824,-1.5923356 0.72825,-2.7656419"
           style="font-size:17.75559425px;text-align:center;text-anchor:middle"
           id="path3010" />
        <path
           d="m 113.68297,-11.00661 0,5.8607337 -1.59522,0 0,-5.8087147 c -1e-5,-0.918984 -0.17919,-1.606782 -0.53753,-2.063394 -0.35835,-0.456598 -0.89588,-0.6849 -1.61257,-0.684909 -0.86119,9e-6 -1.54032,0.27455 -2.03738,0.823624 -0.49707,0.54909 -0.7456,1.297575 -0.7456,2.245459 l 0,5.4879347 -1.6039,0 0,-9.7100907 1.6039,0 0,1.508532 c 0.38147,-0.583753 0.8294,-1.020128 1.34381,-1.309128 0.52018,-0.288981 1.11839,-0.433477 1.79463,-0.433486 1.1155,9e-6 1.95935,0.346798 2.53156,1.040366 0.57219,0.687807 0.8583,1.702163 0.8583,3.043073"
           style="font-size:17.75559425px;text-align:center;text-anchor:middle"
           id="path3012" />
        <path
           d="m 123.27169,-10.113628 c 0,-1.155957 -0.23987,-2.051828 -0.71958,-2.687614 -0.47396,-0.635772 -1.14152,-0.953661 -2.00271,-0.95367 -0.85542,9e-6 -1.52298,0.317898 -2.00271,0.95367 -0.47394,0.635786 -0.71092,1.531657 -0.71091,2.687614 -1e-5,1.1501871 0.23697,2.0431678 0.71091,2.6789446 0.47973,0.6357814 1.14729,0.953671 2.00271,0.9536696 0.86119,1.4e-6 1.52875,-0.3178882 2.00271,-0.9536696 0.47971,-0.6357768 0.71958,-1.5287575 0.71958,-2.6789446 m 1.59523,3.7626601 c -10e-6,1.6530269 -0.36702,2.8812365 -1.10105,3.6846326 -0.73405,0.8091709 -1.85822,1.2137576 -3.37252,1.2137613 -0.56065,-3.7e-6 -1.0895,-0.043352 -1.58656,-0.1300459 -0.49707,-0.080921 -0.97969,-0.2080767 -1.44785,-0.3814678 l 0,-1.5518806 c 0.46816,0.2543101 0.93055,0.4421539 1.38716,0.5635321 0.4566,0.1213738 0.92187,0.1820618 1.39582,0.1820642 1.04614,-2.4e-6 1.82931,-0.2745434 2.3495,-0.8236238 0.52017,-0.5433037 0.78027,-1.3669266 0.78027,-2.4708712 l 0,-0.7889449 c -0.32945,0.5722029 -0.75138,0.9999088 -1.26578,1.2831191 -0.51441,0.2832111 -1.12996,0.4248165 -1.84665,0.4248165 -1.19064,0 -2.15009,-0.4537151 -2.87835,-1.3611467 -0.72825,-0.9074288 -1.09238,-2.1096293 -1.09238,-3.606605 0,-1.502746 0.36413,-2.707836 1.09238,-3.615275 0.72826,-0.907421 1.68771,-1.361137 2.87835,-1.361146 0.71669,9e-6 1.33224,0.141615 1.84665,0.424816 0.5144,0.28322 0.93633,0.710926 1.26578,1.283119 l 0,-1.473853 1.59523,0 0,8.5049991"
           style="font-size:17.75559425px;text-align:center;text-anchor:middle"
           id="path3014" />
        <path
           d="m 26.170785,15.574763 2.861009,0 0,-9.8748154 -3.112431,0.6242201 0,-1.5952291 3.095091,-0.6242202 1.751284,0 0,11.4700446 2.861009,0 0,1.473853 -7.455962,0 0,-1.473853"
           style="font-size:17.75559425px;text-align:center;text-anchor:middle"
           id="path3016" />
        <path
           d="m 41.984361,5.6305898 -4.421559,6.9097702 4.421559,0 0,-6.9097702 m -0.459495,-1.5258714 2.202109,0 0,8.4356416 1.846652,0 0,1.456513 -1.846652,0 0,3.051743 -1.742614,0 0,-3.051743 -5.843394,0 0,-1.690596 5.383899,-8.2015586"
           style="font-size:17.75559425px;text-align:center;text-anchor:middle"
           id="path3018" />
        <path
           d="m 52.223305,5.2577917 c -0.901656,1.18e-5 -1.580784,0.4450572 -2.037385,1.3351375 -0.450829,0.8843214 -0.676242,2.2165676 -0.676239,3.9967428 -3e-6,1.774408 0.22541,3.106654 0.676239,3.996742 0.456601,0.884314 1.135729,1.326469 2.037385,1.326468 0.907424,1e-6 1.586552,-0.442154 2.037385,-1.326468 0.456597,-0.890088 0.6849,-2.222334 0.684908,-3.996742 C 54.94559,8.8094968 54.717287,7.4772506 54.26069,6.5929292 53.809857,5.7028489 53.130729,5.2578035 52.223305,5.2577917 m 0,-1.3871558 c 1.450726,1.32e-5 2.55756,0.5751043 3.320504,1.725275 0.768706,1.1444139 1.153063,2.8089992 1.153073,4.9937611 -1e-5,2.178995 -0.384367,3.84358 -1.153073,4.993761 -0.762944,1.144404 -1.869778,1.716605 -3.320504,1.716605 -1.450738,0 -2.560462,-0.572201 -3.329174,-1.716605 -0.762938,-1.150181 -1.144405,-2.814766 -1.144404,-4.993761 -10e-7,-2.1847619 0.381466,-3.8493472 1.144404,-4.9937611 0.768712,-1.1501707 1.878436,-1.7252618 3.329174,-1.725275"
           style="font-size:17.75559425px;text-align:center;text-anchor:middle"
           id="path3020" />
        <path
           d="m 67.629403,7.3385254 -3.511238,4.7249996 3.693302,4.985091 -1.88133,0 -2.82633,-3.814678 -2.82633,3.814678 -1.88133,0 3.77133,-5.080458 -3.45055,-4.6296326 1.88133,0 2.574908,3.4592196 2.574908,-3.4592196 1.88133,0"
           style="font-size:17.75559425px;text-align:center;text-anchor:middle"
           id="path3022" />
        <path
           d="m 74.253072,9.8787545 c -0.78606,7.1e-6 -1.410279,0.2687685 -1.87266,0.8062845 -0.456609,0.537528 -0.684912,1.274454 -0.684908,2.210779 -4e-6,0.930554 0.228299,1.66748 0.684908,2.21078 0.462381,0.537524 1.0866,0.806285 1.87266,0.806284 0.786049,1e-6 1.407378,-0.26876 1.863991,-0.806284 0.462377,-0.5433 0.693569,-1.280226 0.693578,-2.21078 -9e-6,-0.936325 -0.231201,-1.673251 -0.693578,-2.210779 C 75.66045,10.147523 75.039121,9.8787616 74.253072,9.8787545 m 3.476559,-5.4879352 0,1.5952292 C 77.290357,5.7779864 76.845311,5.6190416 76.394494,5.5092137 75.949441,5.3994088 75.507285,5.3445006 75.068026,5.3444889 c -1.155968,1.17e-5 -2.040279,0.3901489 -2.652935,1.1704128 -0.606884,0.7802848 -0.953673,1.9593661 -1.040367,3.5372473 0.341006,-0.5028365 0.768712,-0.8871939 1.283119,-1.1530733 0.514399,-0.2716429 1.08082,-0.4074685 1.699266,-0.407477 1.300451,8.5e-6 2.326368,0.3959255 3.077752,1.1877521 0.757146,0.7860612 1.135724,1.8582162 1.135734,3.2164672 -1e-5,1.329361 -0.393038,2.395736 -1.179083,3.199128 -0.786063,0.803395 -1.832209,1.205092 -3.13844,1.205092 -1.496976,0 -2.641379,-0.572201 -3.43321,-1.716605 -0.791837,-1.150181 -1.187754,-2.814766 -1.187752,-4.993761 -2e-6,-2.0460465 0.485502,-3.6759529 1.456513,-4.8897244 0.971005,-1.2195286 2.274353,-1.8292985 3.910046,-1.8293117 0.439258,1.32e-5 0.881414,0.043362 1.326467,0.1300459 0.450818,0.08671 0.918982,0.2167559 1.404495,0.3901375"
           style="font-size:17.75559425px;text-align:center;text-anchor:middle"
           id="path3024" />
        <path
           d="m 85.34165,5.2577917 c -0.901656,1.18e-5 -1.580784,0.4450572 -2.037385,1.3351375 -0.450829,0.8843214 -0.676242,2.2165676 -0.676239,3.9967428 -3e-6,1.774408 0.22541,3.106654 0.676239,3.996742 0.456601,0.884314 1.135729,1.326469 2.037385,1.326468 0.907424,1e-6 1.586552,-0.442154 2.037385,-1.326468 0.456597,-0.890088 0.6849,-2.222334 0.684908,-3.996742 -8e-6,-1.7801752 -0.228311,-3.1124214 -0.684908,-3.9967428 C 86.928202,5.7028489 86.249074,5.2578035 85.34165,5.2577917 m 0,-1.3871558 c 1.450727,1.32e-5 2.55756,0.5751043 3.320504,1.725275 0.768706,1.1444139 1.153063,2.8089992 1.153073,4.9937611 -10e-6,2.178995 -0.384367,3.84358 -1.153073,4.993761 -0.762944,1.144404 -1.869777,1.716605 -3.320504,1.716605 -1.450738,0 -2.560462,-0.572201 -3.329174,-1.716605 -0.762937,-1.150181 -1.144405,-2.814766 -1.144404,-4.993761 -10e-7,-2.1847619 0.381467,-3.8493472 1.144404,-4.9937611 0.768712,-1.1501707 1.878436,-1.7252618 3.329174,-1.725275"
           style="font-size:17.75559425px;text-align:center;text-anchor:middle"
           id="path3026" />
        <path
           d="m 94.219444,15.592102 0,5.149816 -1.603899,0 0,-13.4033926 1.603899,0 0,1.473853 c 0.335226,-0.5779727 0.757152,-1.0056787 1.26578,-1.2831191 0.514398,-0.2832011 1.127058,-0.4248065 1.837981,-0.4248164 1.179075,9.9e-6 2.135634,0.4681745 2.869675,1.4044952 0.73981,0.9363378 1.10972,2.1674369 1.10973,3.6933019 -1e-5,1.525875 -0.36992,2.756975 -1.10973,3.693303 -0.734041,0.93633 -1.6906,1.404495 -2.869675,1.404495 -0.710923,0 -1.323583,-0.138716 -1.837981,-0.416147 -0.508628,-0.28321 -0.930554,-0.713806 -1.26578,-1.291789 m 5.427247,-3.389862 c -8e-6,-1.173296 -0.24276,-2.092286 -0.728257,-2.7569717 -0.479732,-0.6704504 -1.14152,-1.0056794 -1.985366,-1.005688 -0.843858,8.6e-6 -1.508537,0.3352376 -1.994037,1.005688 -0.479728,0.6646857 -0.71959,1.5836757 -0.719587,2.7569717 -3e-6,1.173307 0.239859,2.095186 0.719587,2.765642 0.4855,0.664681 1.150179,0.99702 1.994037,0.997019 0.843846,1e-6 1.505634,-0.332338 1.985366,-0.997019 0.485497,-0.670456 0.728249,-1.592335 0.728257,-2.765642"
           style="font-size:17.75559425px;text-align:center;text-anchor:middle"
           id="path3028" />
        <path
           d="m 112.01839,7.3385254 -3.51124,4.7249996 3.69331,4.985091 -1.88133,0 -2.82633,-3.814678 -2.82633,3.814678 -1.88133,0 3.77133,-5.080458 -3.45055,-4.6296326 1.88133,0 2.5749,3.4592196 2.57491,-3.4592196 1.88133,0"
           style="font-size:17.75559425px;text-align:center;text-anchor:middle"
           id="path3030" />
      </g>
    </g>
  </g>
</svg>
